<?xml version="1.0" standalone="no"?>
<!-- Generator: Adobe Fireworks 10, Export SVG Extension by Aaron Beall (http://fireworks.abeall.com) . Version: 0.6.1  -->
<!DOCTYPE svg PUBLIC "-//W3C//DTD SVG 1.1//EN" "http://www.w3.org/Graphics/SVG/1.1/DTD/svg11.dtd">
<svg id="levels.fw-end" viewBox="0 0 800 600" style="background-color:#ffffff" version="1.1"
	xmlns="http://www.w3.org/2000/svg" xmlns:xlink="http://www.w3.org/1999/xlink" xml:space="preserve"
	x="0px" y="0px" width="800px" height="600px"
>
	<g id="Layer%201">
		<rect id="spawn" x="388" y="440" width="24" height="24" fill="#ff8000"/>
		<g>
			<path d="M 259 171 L 266.4531 171 L 267.5469 171 C 269.1563 171 270.4531 170.5469 271.4531 169.6406 C 272.4375 168.7344 272.9375 167.5313 272.9375 166 C 272.9375 164.4844 272.4375 163.2813 271.4531 162.4063 C 270.4531 161.5313 269.1563 161.0625 267.5469 161 L 266.4531 161 L 240.4844 161 L 239.4375 161 C 237.8281 161 236.5313 161.4688 235.5469 162.3906 C 234.5469 163.3281 234.0625 164.5313 234.0625 166 C 234.0625 167.5313 234.5313 168.7344 235.5 169.6094 C 236.4688 170.4844 237.7813 170.9531 239.4375 171 L 240.4844 171 L 248 171 L 248 200.0625 L 248 201.2031 C 248 202.9219 248.5 204.3125 249.5 205.3906 C 250.5 206.4688 251.8281 207 253.4688 207 C 255.1406 207 256.4688 206.4844 257.4531 205.4219 C 258.4219 204.3594 258.9375 202.9531 259 201.2031 L 259 200.0625 L 259 171 L 259 171 Z" stroke="#000000" stroke-width="1" fill="none"/>
			<path d="M 287 175.6094 L 287 167.0313 L 287 166.4063 C 287 164.9063 286.5938 163.6719 285.7813 162.7344 C 284.9688 161.7969 283.875 161.3125 282.5313 161.3125 C 281.1719 161.3125 280.0938 161.7813 279.2813 162.6875 C 278.4688 163.6094 278.0313 164.8438 278 166.4063 L 278 167.4531 L 278 201 L 278 202.0156 C 278 203.5 278.4063 204.7031 279.25 205.625 C 280.0781 206.5469 281.1719 207 282.5313 207 C 283.875 207 284.9531 206.5625 285.75 205.6563 C 286.5313 204.75 286.9531 203.5469 287 202.0156 L 287 201 L 287 189.8125 C 287 188.8281 287.0625 188.0156 287.2031 187.3594 C 287.3281 186.7031 287.5625 186.1094 287.8906 185.5625 C 288.3438 184.8125 289 184.1875 289.875 183.7188 C 290.75 183.25 291.6406 183 292.5625 183 C 293.5313 183 294.4375 183.25 295.3125 183.75 C 296.1875 184.25 296.8281 184.9375 297.25 185.8281 C 297.5156 186.375 297.7031 186.9219 297.8281 187.4531 C 297.9375 188 298 188.7813 298 189.8125 L 298 201 L 298 202.0156 C 298 203.5 298.4063 204.7031 299.2188 205.625 C 300.0313 206.5469 301.1094 207 302.4688 207 C 303.8125 207 304.9063 206.5625 305.7188 205.6563 C 306.5313 204.7656 306.9531 203.5469 307 202.0156 L 307 201 L 307 188.9531 C 307 187.8281 306.9531 186.875 306.8906 186.0625 C 306.8281 185.25 306.7031 184.5156 306.5469 183.8438 C 306.3906 183.1719 306.1719 182.5469 305.9063 181.9531 C 305.625 181.375 305.2656 180.75 304.8125 180.0625 C 303.5781 178.1406 301.9375 176.6563 299.8906 175.5938 C 297.8438 174.5313 295.5781 174 293.0781 174 C 291.8906 174 290.8281 174.125 289.9219 174.3438 C 289.0156 174.5625 288.0313 174.9844 287 175.6094 L 287 175.6094 Z" stroke="#000000" stroke-width="1" fill="none"/>
			<path d="M 332.7656 198.7656 C 331.9375 199.5938 330.8906 200 329.6094 200 C 328.2656 200 327.1719 199.5781 326.2969 198.7344 C 325.4219 197.8906 325 196.8125 325 195.5 C 325 194.25 325.4219 193.1875 326.2969 192.3125 C 327.1719 191.4375 328.2188 191 329.4688 191 C 330.7813 191 331.875 191.4531 332.7188 192.3438 C 333.5625 193.25 334 194.3438 334 195.6406 C 334 196.8906 333.5781 197.9375 332.7656 198.7656 L 332.7656 198.7656 ZM 335.7813 206.3438 C 336.4688 206.7813 337.2969 207 338.2656 207 C 339.8125 207 341.0469 206.4219 341.9688 205.2344 C 342.375 204.7031 342.6563 204.1406 342.7969 203.5781 C 342.9219 203.0156 343 202.1406 343 200.9531 L 343 199.7188 L 343 189.3906 L 343 187.0156 C 343.0469 184.3906 342.8594 182.25 342.4219 180.625 C 341.9844 179 341.2344 177.6563 340.1875 176.6094 C 339 175.4375 337.4844 174.5469 335.6406 173.9219 C 333.7969 173.3125 331.75 173 329.5156 173 C 326.2656 173 323.6406 173.6094 321.6094 174.8125 C 319.5781 176.0156 318.5781 177.6094 318.5781 179.6094 C 318.5781 180.7969 318.9063 181.75 319.5781 182.4531 C 320.2344 183.1719 321.1094 183.5156 322.1719 183.5156 C 322.5313 183.5156 322.9375 183.4844 323.375 183.4063 C 323.8125 183.3438 324.3438 183.1875 325 182.9531 L 327.2656 182.3438 C 328.2031 182.125 329.0625 182 329.8125 182 C 331.3281 182 332.4063 182.2969 333.0469 182.875 C 333.6719 183.4688 334 184.4844 334 185.9219 C 332.75 185.2813 331.5781 184.7969 330.4844 184.4844 C 329.3906 184.1719 328.2656 184 327.1094 184 C 325.3906 184 323.7969 184.3125 322.3438 184.9375 C 320.875 185.5625 319.6094 186.4219 318.5156 187.5156 C 317.4219 188.6094 316.5625 189.8906 315.9375 191.3594 C 315.3125 192.8438 315 194.4375 315 196.1406 C 315 197.8125 315.2813 199.3594 315.8438 200.7969 C 316.4063 202.2344 317.2031 203.4844 318.2344 204.5781 C 319.2656 205.6719 320.4531 206.5156 321.8281 207.1094 C 323.2031 207.6875 324.6875 208 326.2813 208 C 327.6406 208 328.9375 207.625 330.1719 206.875 C 331.3906 206.125 332.6719 205.2344 334 204.1719 C 334.5 205.1875 335.0938 205.9063 335.7813 206.3438 L 335.7813 206.3438 Z" stroke="#000000" stroke-width="1" fill="none"/>
			<path d="M 373 201.0156 L 373 202.0313 C 373 203.5156 373.4063 204.7188 374.25 205.625 C 375.0781 206.5469 376.1719 207 377.5313 207 C 378.8438 207 379.9063 206.5625 380.7188 205.6563 C 381.5313 204.7656 381.9531 203.5469 382 202.0156 L 382 201 L 382 189.8906 C 382 188.1094 381.8281 186.4531 381.4844 184.9531 C 381.1406 183.4531 380.6719 182.1719 380.0469 181.1406 C 378.6875 178.9531 376.875 177.2031 374.5938 175.9219 C 372.3125 174.6406 369.9219 174 367.4063 174 C 365.2344 174 363.1563 174.4844 361.1719 175.4219 C 359.1875 176.3594 357.5156 177.6875 356.1719 179.3906 C 355.0469 180.8281 354.2344 182.3438 353.7344 183.9375 C 353.2344 185.5313 353 187.4375 353 189.625 L 353 201 L 353 202.0156 C 353 203.5 353.4063 204.7031 354.25 205.625 C 355.0781 206.5469 356.1563 207 357.4688 207 C 358.8125 207 359.9063 206.5625 360.7188 205.6563 C 361.5313 204.7656 361.9531 203.5625 362 202.0313 L 362 201.0156 L 362 190.4688 L 362 188.7813 C 362 187.1719 362.5156 185.8125 363.5469 184.6875 C 364.5781 183.5625 365.8906 183 367.4688 183 C 368.5 183 369.4688 183.2969 370.3906 183.875 C 371.3125 184.4688 371.9844 185.2031 372.3906 186.0938 C 372.6094 186.6875 372.7656 187.2656 372.8594 187.8438 C 372.9531 188.4375 373 189.3906 373 190.7344 L 373 201.0156 L 373 201.0156 Z" stroke="#000000" stroke-width="1" fill="none"/>
			<path d="M 401 183.0156 L 401 165.6406 L 401 164.5938 C 401 163.0938 400.5938 161.8594 399.7813 160.9219 C 398.9688 159.9844 397.875 159.5 396.5313 159.5 C 395.1719 159.5 394.0938 159.9688 393.2813 160.875 C 392.4688 161.7969 392.0313 163.0313 392 164.5938 L 392 165.6406 L 392 199.8594 L 392 200.8906 C 392 202.4219 392.4063 203.6563 393.25 204.5938 C 394.0781 205.5313 395.1719 206 396.5313 206 C 397.875 206 398.9531 205.5469 399.75 204.625 C 400.5313 203.7031 400.9531 202.4531 401 200.8906 L 401 199.8594 L 401 191.9219 L 411.9063 203.4531 L 412.5938 204.2031 C 413.8281 206.0625 415.0469 207 416.25 207 C 417.5781 207 418.7188 206.375 419.6563 205.1563 C 420.5938 203.9375 421.0781 202.6563 421.0781 201.3125 C 421.0781 200.5313 420.9063 199.8438 420.5625 199.25 C 420.2188 198.6563 419.5313 197.8594 418.5313 196.8906 L 409.1406 187.8594 L 417.9063 181.5 L 418.7344 180.875 C 420.2969 179.7813 421.0781 178.4375 421.0781 176.8125 C 421.0781 175.5781 420.625 174.4844 419.7344 173.5469 C 418.8281 172.6094 417.7813 172.125 416.5938 172.125 C 415.4844 172.125 414.3125 172.5625 413.0781 173.4375 L 412.3281 174.125 L 401 183.0156 L 401 183.0156 Z" stroke="#000000" stroke-width="1" fill="none"/>
			<path d="M 434.8594 174.875 C 432.7656 175.6563 431.0938 176.8438 429.8594 178.4688 C 428.6094 180.0938 428 181.8438 428 183.7344 C 428 185.4063 428.4531 186.9531 429.375 188.3906 C 430.2969 189.8281 431.5156 190.9375 433.0313 191.7031 C 434 192.1563 435.2344 192.625 436.75 193.125 C 438.2656 193.625 439.6719 194.0313 440.9688 194.3438 C 442.9844 194.7969 444 195.5625 444 196.6406 C 444 197.3281 443.6875 197.8906 443.0938 198.3281 C 442.5 198.7813 441.7344 199 440.8281 199 C 440.3594 199 439.9375 198.9688 439.5781 198.8906 C 439.2031 198.8281 438.8281 198.6875 438.4375 198.4844 C 438.0469 198.2813 437.6094 198 437.125 197.625 C 436.6406 197.25 436.0625 196.7656 435.375 196.1719 C 434.4375 195.3906 433.5938 194.7969 432.8438 194.4063 C 432.0938 194.0156 431.3281 193.8125 430.5469 193.8125 C 429.3906 193.8125 428.3906 194.2969 427.5625 195.2344 C 426.7344 196.1719 426.3281 197.2656 426.3281 198.5156 C 426.3281 199.7656 426.7031 200.9531 427.4688 202.0938 C 428.2188 203.2344 429.25 204.2344 430.5313 205.1094 C 431.8125 205.9844 433.2969 206.6719 434.9531 207.2031 C 436.6094 207.7344 438.3281 208 440.125 208 C 442.0625 208 443.8125 207.7188 445.3906 207.1875 C 446.9688 206.6563 448.3281 205.8906 449.4531 204.8906 C 450.5781 203.8906 451.4375 202.7031 452.0625 201.3281 C 452.6875 199.9531 453 198.4375 453 196.7656 C 453 195.0469 452.625 193.5 451.8906 192.125 C 451.1563 190.75 450.125 189.6875 448.7813 188.9063 C 448.0781 188.5469 447.3438 188.2188 446.5625 187.9219 C 445.7813 187.6406 444.6563 187.2813 443.1875 186.875 C 441.1875 186.3438 439.8281 185.8438 439.0938 185.3906 C 438.3594 184.9375 438 184.3281 438 183.5625 C 438 183.1563 438.1563 182.7969 438.4844 182.4844 C 438.7969 182.1719 439.2188 182 439.7344 182 C 440.2344 182 440.7031 182.1094 441.1719 182.3125 C 441.6406 182.5313 442.4219 182.9531 443.5156 183.5938 C 444.3906 184.1094 445.1094 184.4688 445.6875 184.6719 C 446.2656 184.875 446.8594 184.9688 447.4531 184.9688 C 448.5469 184.9688 449.5156 184.5625 450.3438 183.7344 C 451.1719 182.9063 451.5938 181.9375 451.5938 180.8438 C 451.5938 179.9219 451.2813 179.0469 450.6875 178.2188 C 450.0938 177.4063 449.2969 176.6719 448.3125 176.0469 C 447.3125 175.4219 446.1563 174.9219 444.8281 174.5469 C 443.4844 174.1875 442.0938 174 440.625 174 C 438.4375 174 436.5156 174.2969 434.8594 174.875 L 434.8594 174.875 Z" stroke="#000000" stroke-width="1" fill="none"/>
			<path d="M 491 183 L 492.6563 183 L 493.5625 183 C 494.9375 183 496.0469 182.5781 496.8906 181.7344 C 497.7344 180.8906 498.1719 179.8125 498.1719 178.5 C 498.1719 177.1563 497.75 176.0781 496.9219 175.2813 C 496.0938 174.4844 494.9688 174.0625 493.5625 174 L 492.6563 174 L 491 174 L 491 173 L 491 172.4375 C 491.0313 171.9688 491.1875 171.5625 491.4688 171.2344 C 491.75 170.9219 492.0625 170.75 492.4375 170.75 C 492.6563 170.75 492.9219 170.8281 493.2031 170.9688 L 494.1719 171.5156 C 494.7969 171.8438 495.4375 172 496.0938 172 C 497.25 172 498.2344 171.5469 499.0625 170.6406 C 499.8906 169.7344 500.3125 168.6563 500.3125 167.375 C 500.3125 166.5313 500.0781 165.7031 499.6094 164.9063 C 499.1406 164.125 498.5313 163.4375 497.75 162.875 C 496.9688 162.3125 496.0469 161.8594 494.9844 161.5156 C 493.9219 161.1719 492.7969 161 491.6094 161 C 489.6719 161 488 161.4219 486.5625 162.25 C 485.125 163.0781 484.0156 164.2656 483.2031 165.8281 C 482.9844 166.2344 482.7969 166.6563 482.6719 167.0938 C 482.5313 167.5469 482.4063 168.0469 482.2969 168.6094 C 482.1875 169.1719 482.1094 169.8125 482.0625 170.5469 C 482.0156 171.2969 482 172.1719 482 173.2031 L 482 174 L 481.7188 174 C 480.3438 174 479.2188 174.4219 478.375 175.2344 C 477.5156 176.0625 477.0938 177.1563 477.0938 178.5 C 477.0938 181.25 478.7188 182.75 482 183 L 482 201.0625 L 482 202.0625 C 482 203.5313 482.4063 204.7344 483.2188 205.6406 C 484.0313 206.5469 485.1094 207 486.4688 207 C 487.8125 207 488.9063 206.5625 489.7188 205.6719 C 490.5313 204.7813 490.9531 203.5781 491 202.0625 L 491 201.0625 L 491 183 L 491 183 Z" stroke="#000000" stroke-width="1" fill="none"/>
			<path d="M 522.1563 183.6406 C 523.125 184.0781 523.9531 184.6406 524.6563 185.3438 C 525.3594 186.0625 525.9219 186.9063 526.3594 187.875 C 526.7813 188.8438 527 189.9063 527 191.0313 C 527 192.125 526.7813 193.1719 526.3594 194.1406 C 525.9219 195.1094 525.3438 195.9531 524.625 196.6563 C 523.8906 197.375 523.0469 197.9375 522.0781 198.3594 C 521.1094 198.7969 520.0781 199 519 199 C 517.9063 199 516.8906 198.8125 515.9219 198.4063 C 514.9531 198 514.0938 197.4531 513.375 196.7344 C 512.6406 196.0156 512.0625 195.1875 511.6406 194.2344 C 511.2031 193.2969 511 192.2969 511 191.25 C 511 190.0625 511.1875 188.9844 511.5938 187.9844 C 512 186.9844 512.5625 186.125 513.2969 185.3906 C 514.0156 184.6563 514.875 184.0781 515.875 183.6406 C 516.875 183.2188 517.9375 183 519.0781 183 C 520.1563 183 521.1875 183.2188 522.1563 183.6406 L 522.1563 183.6406 ZM 512.3594 175.3438 C 510.2813 176.25 508.4844 177.4688 506.9531 179 C 505.4219 180.5469 504.2188 182.375 503.3281 184.4844 C 502.4375 186.6094 502 188.875 502 191.3125 C 502 193.625 502.4531 195.7813 503.3594 197.7969 C 504.2656 199.8281 505.4844 201.5938 507.0156 203.1094 C 508.5469 204.625 510.3438 205.8125 512.4219 206.6875 C 514.5 207.5625 516.7031 208 519.0313 208 C 521.3438 208 523.5313 207.5469 525.5938 206.6563 C 527.6563 205.7656 529.4531 204.5469 531 203 C 532.5469 201.4688 533.7656 199.6719 534.6563 197.625 C 535.5469 195.5781 536 193.4063 536 191.1094 C 536 188.7188 535.5469 186.4844 534.6563 184.4219 C 533.7656 182.3594 532.5625 180.5469 531.0313 179 C 529.5 177.4688 527.7188 176.25 525.6719 175.3438 C 523.6094 174.4531 521.4219 174 519.1094 174 C 516.6875 174 514.4375 174.4531 512.3594 175.3438 L 512.3594 175.3438 Z" stroke="#000000" stroke-width="1" fill="none"/>
			<path d="M 548.4688 174 C 546.7969 174 545.5156 174.7969 544.6094 176.375 C 544.4688 176.5938 544.3594 176.8281 544.2656 177.0469 C 544.1719 177.2813 544.125 177.5469 544.0938 177.8281 C 544.0625 178.125 544.0469 178.4844 544.0313 178.9219 C 544 179.3594 544 179.9063 544 180.5781 L 544 200.9688 L 544 201.9844 C 544 203.4844 544.4063 204.6875 545.25 205.6094 C 546.0781 206.5469 547.1719 207 548.5313 207 C 549.875 207 550.9531 206.5625 551.75 205.6719 C 552.5313 204.7813 552.9531 203.5781 553 202.0469 L 553 201.0469 L 553 187.3438 C 553 185.875 553.1406 184.8281 553.4531 184.1719 C 553.75 183.5313 554.2656 183.2031 555 183.2031 C 555.5 183.2031 556.1094 183.4219 556.7969 183.8281 C 557.6719 184.3438 558.2813 184.6719 558.625 184.7969 C 558.9688 184.9375 559.4531 185 560.1094 185 C 561.625 185 562.9219 184.4844 564 183.4375 C 565.0781 182.3906 565.625 181.1094 565.625 179.6094 C 565.625 178.8281 565.4531 178.1094 565.1406 177.4219 C 564.8281 176.7344 564.4063 176.1406 563.875 175.6406 C 563.3438 175.1406 562.7188 174.75 562 174.4531 C 561.2813 174.1563 560.5156 174 559.7031 174 C 557.1719 174 554.7969 174.9063 552.5938 176.7031 C 551.6875 174.9063 550.3125 174 548.4688 174 L 548.4688 174 Z" stroke="#000000" stroke-width="1" fill="none"/>
			<path d="M 290.5 267.8 L 290.5 253.8 L 294.3281 253.8 C 296.4063 253.8 297.9219 254.0344 298.8594 254.5031 C 299.9219 255.0656 300.7813 255.9406 301.4688 257.1281 C 302.1563 258.3156 302.5 259.5656 302.5 260.8625 C 302.5 262.0812 302.2031 263.2531 301.6094 264.3469 C 301.0156 265.4406 300.2188 266.3 299.25 266.8937 C 298.6406 267.2687 298.0313 267.5187 297.4219 267.6281 C 296.7969 267.7531 295.7656 267.8 294.3281 267.8 L 290.5 267.8 L 290.5 267.8 ZM 290.5 277.8 L 295.5625 277.8 C 297.6094 277.8 299.25 277.6906 300.4844 277.4562 C 301.7188 277.2219 302.9531 276.8 304.1875 276.1906 C 305.5938 275.5031 306.875 274.6125 308.0156 273.5344 C 309.1563 272.4719 310.1406 271.2687 310.9688 269.9406 C 311.7813 268.6125 312.4063 267.1906 312.8438 265.675 C 313.2813 264.1594 313.5 262.5969 313.5 261.0031 C 313.5 259.425 313.2656 257.8469 312.7969 256.2531 C 312.3281 254.675 311.6875 253.175 310.8594 251.7687 C 308.5313 248.0031 305.2813 245.6281 301.125 244.6437 C 300 244.4094 298.8906 244.2062 297.7813 244.05 C 296.6719 243.8937 295.6563 243.8 294.7344 243.8 L 286.875 243.8 L 285.625 243.8 C 281.5313 243.8 279.5 245.8312 279.5 249.8781 L 279.5 251.0969 L 279.5 282.7687 L 279.5 283.925 C 279.5 285.6594 279.9844 287.0656 280.9688 288.1594 C 281.9531 289.2531 283.2813 289.8 284.9688 289.8 C 286.6406 289.8 287.9688 289.3 288.9531 288.3 C 289.9219 287.3 290.4375 285.9719 290.5 284.3156 L 290.5 283.2219 L 290.5 277.8 L 290.5 277.8 Z" stroke="#000000" stroke-width="1" fill="none"/>
			<path d="M 320.5 282.6594 L 320.5 283.6906 C 320.5 285.2219 320.9063 286.4562 321.75 287.3937 C 322.5781 288.3312 323.6719 288.8 325.0313 288.8 C 326.4688 288.8 327.5938 288.3156 328.3906 287.3469 C 329.1719 286.3781 329.5469 285.0344 329.5 283.2844 L 329.5 282.6594 L 329.5 248.0187 L 329.5 247.3937 C 329.5 245.8937 329.0938 244.6594 328.2813 243.7219 C 327.4688 242.7844 326.375 242.3 325.0313 242.3 C 323.6719 242.3 322.5938 242.7687 321.7813 243.675 C 320.9688 244.5969 320.5313 245.8312 320.5 247.3937 L 320.5 248.4406 L 320.5 282.6594 L 320.5 282.6594 Z" stroke="#000000" stroke-width="1" fill="none"/>
			<path d="M 355.2656 281.5656 C 354.4375 282.3937 353.3906 282.8 352.1094 282.8 C 350.7656 282.8 349.6719 282.3781 348.7969 281.5344 C 347.9219 280.6906 347.5 279.6125 347.5 278.3 C 347.5 277.05 347.9219 275.9875 348.7969 275.1125 C 349.6719 274.2375 350.7188 273.8 351.9688 273.8 C 353.2813 273.8 354.375 274.2531 355.2188 275.1437 C 356.0625 276.05 356.5 277.1437 356.5 278.4406 C 356.5 279.6906 356.0781 280.7375 355.2656 281.5656 L 355.2656 281.5656 ZM 358.2813 289.1437 C 358.9688 289.5812 359.7969 289.8 360.7656 289.8 C 362.3125 289.8 363.5469 289.2219 364.4688 288.0344 C 364.875 287.5031 365.1563 286.9406 365.2969 286.3781 C 365.4219 285.8156 365.5 284.9406 365.5 283.7531 L 365.5 282.5187 L 365.5 272.1906 L 365.5 269.8156 C 365.5469 267.1906 365.3594 265.05 364.9219 263.425 C 364.4844 261.8 363.7344 260.4562 362.6875 259.4094 C 361.5 258.2375 359.9844 257.3469 358.1406 256.7219 C 356.2969 256.1125 354.25 255.8 352.0156 255.8 C 348.7656 255.8 346.1406 256.4094 344.1094 257.6125 C 342.0781 258.8156 341.0781 260.4094 341.0781 262.4094 C 341.0781 263.5969 341.4063 264.55 342.0781 265.2531 C 342.7344 265.9719 343.6094 266.3156 344.6719 266.3156 C 345.0313 266.3156 345.4375 266.2844 345.875 266.2062 C 346.3125 266.1437 346.8438 265.9875 347.5 265.7531 L 349.7656 265.1437 C 350.7031 264.925 351.5625 264.8 352.3125 264.8 C 353.8281 264.8 354.9063 265.0969 355.5469 265.675 C 356.1719 266.2687 356.5 267.2844 356.5 268.7219 C 355.25 268.0812 354.0781 267.5969 352.9844 267.2844 C 351.8906 266.9719 350.7656 266.8 349.6094 266.8 C 347.8906 266.8 346.2969 267.1125 344.8438 267.7375 C 343.375 268.3625 342.1094 269.2219 341.0156 270.3156 C 339.9219 271.4094 339.0625 272.6906 338.4375 274.1594 C 337.8125 275.6437 337.5 277.2375 337.5 278.9406 C 337.5 280.6125 337.7813 282.1594 338.3438 283.5969 C 338.9063 285.0344 339.7031 286.2844 340.7344 287.3781 C 341.7656 288.4719 342.9531 289.3156 344.3281 289.9094 C 345.7031 290.4875 347.1875 290.8 348.7813 290.8 C 350.1406 290.8 351.4375 290.425 352.6719 289.675 C 353.8906 288.925 355.1719 288.0344 356.5 286.9719 C 357 287.9875 357.5938 288.7062 358.2813 289.1437 L 358.2813 289.1437 Z" stroke="#000000" stroke-width="1" fill="none"/>
			<path d="M 388.8906 275.8937 L 382.125 260.925 L 381.7188 260.0187 C 380.75 257.9094 379.2656 256.8469 377.2969 256.8469 C 376.0938 256.8469 375.0156 257.2844 374.0781 258.1281 C 373.1406 258.9875 372.6719 260.0187 372.6719 261.2062 C 372.6719 261.9875 372.8906 262.9094 373.3594 263.9562 L 373.8438 264.8625 L 384.3281 286.3781 L 383.375 288.8625 C 382.6719 290.675 381.7656 291.5969 380.6719 291.5969 C 380.2031 291.5969 379.75 291.5187 379.2969 291.3937 L 377.9844 291.0656 C 377.3906 290.8781 376.7344 290.8 376.0469 290.8 C 374.9375 290.8 373.9844 291.2219 373.1875 292.0812 C 372.375 292.925 371.9844 293.925 371.9844 295.0812 C 371.9844 295.8625 372.2031 296.5812 372.6406 297.2844 C 373.0781 297.9562 373.6563 298.55 374.3906 299.0969 C 375.125 299.6125 375.9844 300.0187 376.9844 300.3469 C 377.9688 300.6437 379.0156 300.8 380.125 300.8 C 381.5938 300.8 383.0156 300.4719 384.3906 299.8469 C 385.7656 299.2062 386.9219 298.3469 387.8594 297.2531 C 388.3594 296.6281 388.7813 296.0344 389.125 295.4719 C 389.4688 294.8937 389.9531 293.9719 390.6094 292.7062 L 403.7969 265.0656 C 404.2031 264.1906 404.4844 263.4875 404.6406 262.9562 C 404.7969 262.425 404.8906 261.9094 404.8906 261.4094 C 404.8906 260.2219 404.4063 259.1594 403.4375 258.2375 C 402.4688 257.3156 401.375 256.8469 400.1406 256.8469 C 398.0625 256.8469 396.5156 257.9875 395.5156 260.2375 L 395.0938 261.2687 L 388.8906 275.8937 L 388.8906 275.8937 Z" stroke="#000000" stroke-width="1" fill="none"/>
			<path d="M 412.2969 245.2531 C 411.2031 246.2219 410.6719 247.425 410.6719 248.8937 C 410.6719 249.5656 410.8125 250.1906 411.125 250.7844 C 411.4219 251.3781 411.8281 251.8937 412.3281 252.3312 C 412.8281 252.7687 413.4219 253.1281 414.0938 253.3937 C 414.75 253.675 415.4531 253.8 416.1875 253.8 C 417.75 253.8 419.0781 253.3156 420.1563 252.3312 C 421.2344 251.3469 421.7813 250.1594 421.7813 248.7687 C 421.7813 247.3937 421.25 246.2219 420.1875 245.2531 C 419.125 244.2844 417.8438 243.8 416.3281 243.8 C 414.7188 243.8 413.375 244.2844 412.2969 245.2531 L 412.2969 245.2531 ZM 420.5 262.3312 L 420.5 261.3 C 420.5 259.7844 420.0781 258.55 419.25 257.6125 C 418.4063 256.675 417.3125 256.1906 415.9688 256.1906 C 414.6563 256.1906 413.5938 256.6594 412.7813 257.5812 C 411.9688 258.5031 411.5313 259.7375 411.5 261.3 L 411.5 262.3312 L 411.5 283.6594 L 411.5 284.6906 C 411.5 286.2219 411.9063 287.4562 412.75 288.3937 C 413.5781 289.3312 414.6719 289.8 416.0313 289.8 C 417.3438 289.8 418.4063 289.3469 419.2188 288.425 C 420.0313 287.5031 420.4531 286.2531 420.5 284.6906 L 420.5 283.6594 L 420.5 262.3312 L 420.5 262.3312 Z" stroke="#000000" stroke-width="1" fill="none"/>
			<path d="M 450.5 283.8156 L 450.5 284.8312 C 450.5 286.3156 450.9063 287.5187 451.75 288.425 C 452.5781 289.3469 453.6719 289.8 455.0313 289.8 C 456.3438 289.8 457.4063 289.3625 458.2188 288.4562 C 459.0313 287.5656 459.4531 286.3469 459.5 284.8156 L 459.5 283.8 L 459.5 272.6906 C 459.5 270.9094 459.3281 269.2531 458.9844 267.7531 C 458.6406 266.2531 458.1719 264.9719 457.5469 263.9406 C 456.1875 261.7531 454.375 260.0031 452.0938 258.7219 C 449.8125 257.4406 447.4219 256.8 444.9063 256.8 C 442.7344 256.8 440.6563 257.2844 438.6719 258.2219 C 436.6875 259.1594 435.0156 260.4875 433.6719 262.1906 C 432.5469 263.6281 431.7344 265.1437 431.2344 266.7375 C 430.7344 268.3312 430.5 270.2375 430.5 272.425 L 430.5 283.8 L 430.5 284.8156 C 430.5 286.3 430.9063 287.5031 431.75 288.425 C 432.5781 289.3469 433.6563 289.8 434.9688 289.8 C 436.3125 289.8 437.4063 289.3625 438.2188 288.4562 C 439.0313 287.5656 439.4531 286.3625 439.5 284.8312 L 439.5 283.8156 L 439.5 273.2687 L 439.5 271.5812 C 439.5 269.9719 440.0156 268.6125 441.0469 267.4875 C 442.0781 266.3625 443.3906 265.8 444.9688 265.8 C 446 265.8 446.9688 266.0969 447.8906 266.675 C 448.8125 267.2687 449.4844 268.0031 449.8906 268.8937 C 450.1094 269.4875 450.2656 270.0656 450.3594 270.6437 C 450.4531 271.2375 450.5 272.1906 450.5 273.5344 L 450.5 283.8156 L 450.5 283.8156 Z" stroke="#000000" stroke-width="1" fill="none"/>
			<path d="M 488.625 267.7062 C 489.875 268.9719 490.5 270.5187 490.5 272.3312 C 490.5 274.1594 489.875 275.6906 488.625 276.9406 C 487.375 278.1906 485.8281 278.8 484 278.8 C 482.1563 278.8 480.625 278.1906 479.375 276.9406 C 478.125 275.6906 477.5 274.1437 477.5 272.2687 C 477.5 271.3937 477.6563 270.55 478 269.7375 C 478.3281 268.9406 478.7969 268.2531 479.4063 267.675 C 480 267.0969 480.7031 266.6437 481.4844 266.3 C 482.2656 265.9719 483.0938 265.8 484 265.8 C 485.8281 265.8 487.375 266.4406 488.625 267.7062 L 488.625 267.7062 ZM 486.6719 257.5031 C 485.2969 257.0344 483.7188 256.8 481.9531 256.8 C 479.9063 256.8 478 257.2062 476.2344 258.0031 C 474.4531 258.8156 472.9375 259.925 471.6563 261.3469 C 470.375 262.7687 469.3594 264.4406 468.6094 266.3625 C 467.8594 268.2844 467.5 270.3469 467.5 272.5344 C 467.5 274.6906 467.8594 276.7062 468.6094 278.55 C 469.3594 280.4094 470.375 282.0187 471.6875 283.3937 C 473 284.7687 474.5313 285.8469 476.3125 286.6281 C 478.0781 287.4094 480.0156 287.8 482.1094 287.8 C 483.7344 287.8 485.2031 287.5812 486.5156 287.1281 C 487.8125 286.6906 489.1406 285.9719 490.5 284.9875 L 490.5 285.5187 C 490.5 287.8625 489.9375 289.675 488.8125 290.925 C 487.6875 292.1594 486.0781 292.8 484.0156 292.8 C 482.9531 292.8 482.0313 292.6437 481.25 292.3625 C 480.4688 292.05 479.5469 291.5344 478.5 290.8 C 477.4844 290.0656 476.7031 289.5969 476.1563 289.3625 C 475.5938 289.1281 474.9688 289.0031 474.2813 289.0031 C 473.0313 289.0031 471.9844 289.4406 471.1406 290.3156 C 470.2969 291.1906 469.875 292.2531 469.875 293.5187 C 469.875 294.6125 470.2344 295.675 470.9688 296.6906 C 471.7031 297.6906 472.7031 298.5812 473.9688 299.3625 C 475.2344 300.1125 476.7031 300.7062 478.3594 301.1594 C 480.0156 301.5812 481.75 301.8 483.5938 301.8 C 486.3438 301.8 488.8594 301.2844 491.1406 300.2844 C 493.4219 299.2531 495.2969 297.8 496.7969 295.9094 C 497.7344 294.6906 498.4219 293.2219 498.8594 291.5031 C 499.2813 289.7844 499.5 287.6437 499.5 285.0969 L 499.5 262.4094 C 499.5 261.4406 499.4375 260.7062 499.3281 260.2062 C 499.2031 259.7062 498.9688 259.1906 498.625 258.675 C 498.2188 258.0812 497.6875 257.6125 497.0625 257.2844 C 496.4219 256.9719 495.7656 256.8 495.1094 256.8 C 494.2031 256.8 493.3906 257.0812 492.7031 257.6281 C 492 258.1906 491.4688 258.9562 491.1094 259.9562 C 489.5156 258.8 488.0469 257.9719 486.6719 257.5031 L 486.6719 257.5031 Z" stroke="#000000" stroke-width="1" fill="none"/>
			<path d="M 520.5 249.5656 L 520.5 248.4719 C 520.5 246.8625 520.0469 245.5656 519.1406 244.5656 C 518.2344 243.5812 517.0156 243.0812 515.5 243.0812 C 513.9688 243.0812 512.7656 243.5812 511.8906 244.5656 C 511.0156 245.5656 510.5469 246.8625 510.5 248.4719 L 510.5 249.5656 L 510.5 269.3781 L 510.5 270.4094 C 510.5 272.0344 510.9531 273.3312 511.8594 274.3156 C 512.7656 275.3156 513.9688 275.8 515.5 275.8 C 517.0156 275.8 518.2188 275.3156 519.0938 274.3469 C 519.9688 273.3781 520.4375 272.0656 520.5 270.4094 L 520.5 269.3781 L 520.5 249.5656 L 520.5 249.5656 ZM 519.8438 289.0344 C 521 287.8625 521.5781 286.4406 521.5781 284.7687 C 521.5781 283.1125 521 281.6906 519.8438 280.5344 C 518.6875 279.3781 517.2969 278.8 515.6406 278.8 C 513.9844 278.8 512.5625 279.3781 511.3906 280.5344 C 510.2188 281.6906 509.6406 283.1125 509.6406 284.7687 C 509.6406 286.4406 510.2188 287.8625 511.3906 289.0344 C 512.5625 290.2062 513.9844 290.8 515.6406 290.8 C 517.2969 290.8 518.6875 290.2062 519.8438 289.0344 L 519.8438 289.0344 Z" stroke="#000000" stroke-width="1" fill="none"/>
		</g>
		<path d="M 144.58 69 L 643.42 69 C 687.9237 69 724 105.0763 724 149.58 L 724 462.42 C 724 506.9237 687.9237 543 643.42 543 L 511 543 L 436 468 L 363 468 L 288 543 L 144.58 543 C 100.0763 543 64 506.9237 64 462.42 L 64 149.58 C 64 105.0763 100.0763 69 144.58 69 ZM -21 -32 L -21 632 L 834 632 L 834 -32 L -21 -32 Z" stroke="#000000" stroke-width="1" fill="none"/>
		<rect id="key" x="392" y="129" width="18" height="18" fill="#ff8000"/>
		<rect id="key_-id_2-" x="552" y="238" width="18" height="18" fill="#ff8000"/>
		<rect id="key_-id_5-" x="392" y="219" width="18" height="18" fill="#ff8000"/>
		<rect id="key_-id_7-" x="195" y="513" width="18" height="18" fill="#ff8000"/>
		<rect id="key_-id_6-" x="587" y="514" width="18" height="18" fill="#ff8000"/>
		<rect id="key_-id_3-" x="231" y="234" width="18" height="18" fill="#ff8000"/>
	</g>
</svg>