<?xml version="1.0" standalone="no"?>
<!-- Generator: Adobe Fireworks 10, Export SVG Extension by Aaron Beall (http://fireworks.abeall.com) . Version: 0.6.1  -->
<!DOCTYPE svg PUBLIC "-//W3C//DTD SVG 1.1//EN" "http://www.w3.org/Graphics/SVG/1.1/DTD/svg11.dtd">
<svg id="levels.fw-intro" viewBox="0 0 800 600" style="background-color:#ffffff00" version="1.1"
	xmlns="http://www.w3.org/2000/svg" xmlns:xlink="http://www.w3.org/1999/xlink" xml:space="preserve"
	x="0px" y="0px" width="800px" height="600px"
>
	<g id="Layer%201">
		<path d="M 148 158 L 638 158 L 638 446 L 604 446 L 556 422 L 526 422 L 478 446 L 447 446 L 447 419 L 272 361 L 148 361 L 148 158 ZM -21 -32 L -21 632 L 834 632 L 834 -32 L -21 -32 Z" stroke="#ffffff" stroke-width="10" fill="#bbbbbb"/>
		<path d="M 148 158 L 638 158 L 638 446 L 604 446 L 556 422 L 526 422 L 478 446 L 447 446 L 447 419 L 272 361 L 148 361 L 148 158 ZM -21 -32 L -21 632 L 834 632 L 834 -32 L -21 -32 Z" stroke="#666666" stroke-width="7" fill="none"/>
	</g>
</svg>