<?xml version="1.0" standalone="no"?>
<!-- Generator: Adobe Fireworks 10, Export SVG Extension by Aaron Beall (http://fireworks.abeall.com) . Version: 0.6.1  -->
<!DOCTYPE svg PUBLIC "-//W3C//DTD SVG 1.1//EN" "http://www.w3.org/Graphics/SVG/1.1/DTD/svg11.dtd">
<svg id="levels.fw-jump" viewBox="0 0 800 600" style="background-color:#ffffff00" version="1.1"
	xmlns="http://www.w3.org/2000/svg" xmlns:xlink="http://www.w3.org/1999/xlink" xml:space="preserve"
	x="0px" y="0px" width="800px" height="600px"
>
	<g id="Layer%201">
		<path d="M 148 158 L 638 158 L 638 361 L 527 361 L 498 390 L 498 506 L 289 506 L 289 389 L 261 361 L 148 361 L 148 158 ZM -21 -32 L -21 632 L 834 632 L 834 -32 L -21 -32 Z" stroke="#ffffff" stroke-width="10" fill="#bbbbbb"/>
		<path d="M 148 158 L 638 158 L 638 361 L 527 361 L 498 390 L 498 506 L 289 506 L 289 389 L 261 361 L 148 361 L 148 158 ZM -21 -32 L -21 632 L 834 632 L 834 -32 L -21 -32 Z" stroke="#666666" stroke-width="7" fill="none"/>
		<path d="M 291 506 L 294 488 L 297 506 L 291 506 Z" stroke="#ffffff00" stroke-width="1" fill="#ff0000"/>
		<path d="M 297 506 L 300 488 L 303 506 L 297 506 Z" stroke="#ffffff00" stroke-width="1" fill="#ff0000"/>
		<path d="M 303 506 L 306 488 L 309 506 L 303 506 Z" stroke="#ffffff00" stroke-width="1" fill="#ff0000"/>
		<path d="M 309 506 L 312 488 L 315 506 L 309 506 Z" stroke="#ffffff00" stroke-width="1" fill="#ff0000"/>
		<path d="M 315 506 L 318 488 L 321 506 L 315 506 Z" stroke="#ffffff00" stroke-width="1" fill="#ff0000"/>
		<path d="M 321 506 L 324 488 L 327 506 L 321 506 Z" stroke="#ffffff00" stroke-width="1" fill="#ff0000"/>
		<path d="M 327 506 L 330 488 L 333 506 L 327 506 Z" stroke="#ffffff00" stroke-width="1" fill="#ff0000"/>
		<path d="M 333 506 L 336 488 L 339 506 L 333 506 Z" stroke="#ffffff00" stroke-width="1" fill="#ff0000"/>
		<path d="M 339 506 L 342 488 L 345 506 L 339 506 Z" stroke="#ffffff00" stroke-width="1" fill="#ff0000"/>
		<path d="M 345 506 L 348 488 L 351 506 L 345 506 Z" stroke="#ffffff00" stroke-width="1" fill="#ff0000"/>
		<path d="M 351 506 L 354 488 L 357 506 L 351 506 Z" stroke="#ffffff00" stroke-width="1" fill="#ff0000"/>
		<path d="M 357 506 L 360 488 L 363 506 L 357 506 Z" stroke="#ffffff00" stroke-width="1" fill="#ff0000"/>
		<path d="M 363 506 L 366 488 L 369 506 L 363 506 Z" stroke="#ffffff00" stroke-width="1" fill="#ff0000"/>
		<path d="M 369 506 L 372 488 L 375 506 L 369 506 Z" stroke="#ffffff00" stroke-width="1" fill="#ff0000"/>
		<path d="M 375 506 L 378 488 L 381 506 L 375 506 Z" stroke="#ffffff00" stroke-width="1" fill="#ff0000"/>
		<path d="M 381 506 L 384 488 L 387 506 L 381 506 Z" stroke="#ffffff00" stroke-width="1" fill="#ff0000"/>
		<path d="M 387 506 L 390 488 L 393 506 L 387 506 Z" stroke="#ffffff00" stroke-width="1" fill="#ff0000"/>
		<path d="M 393 506 L 396 488 L 399 506 L 393 506 Z" stroke="#ffffff00" stroke-width="1" fill="#ff0000"/>
		<path d="M 399 506 L 402 488 L 405 506 L 399 506 Z" stroke="#ffffff00" stroke-width="1" fill="#ff0000"/>
		<path d="M 405 506 L 408 488 L 411 506 L 405 506 Z" stroke="#ffffff00" stroke-width="1" fill="#ff0000"/>
		<path d="M 411 506 L 414 488 L 417 506 L 411 506 Z" stroke="#ffffff00" stroke-width="1" fill="#ff0000"/>
		<path d="M 417 506 L 420 488 L 423 506 L 417 506 Z" stroke="#ffffff00" stroke-width="1" fill="#ff0000"/>
		<path d="M 423 506 L 426 488 L 429 506 L 423 506 Z" stroke="#ffffff00" stroke-width="1" fill="#ff0000"/>
		<path d="M 429 506 L 432 488 L 435 506 L 429 506 Z" stroke="#ffffff00" stroke-width="1" fill="#ff0000"/>
		<path d="M 435 506 L 438 488 L 441 506 L 435 506 Z" stroke="#ffffff00" stroke-width="1" fill="#ff0000"/>
		<path d="M 441 506 L 444 488 L 447 506 L 441 506 Z" stroke="#ffffff00" stroke-width="1" fill="#ff0000"/>
		<path d="M 447 506 L 450 488 L 453 506 L 447 506 Z" stroke="#ffffff00" stroke-width="1" fill="#ff0000"/>
		<path d="M 453 506 L 456 488 L 459 506 L 453 506 Z" stroke="#ffffff00" stroke-width="1" fill="#ff0000"/>
		<path d="M 459 506 L 462 488 L 465 506 L 459 506 Z" stroke="#ffffff00" stroke-width="1" fill="#ff0000"/>
		<path d="M 465 506 L 468 488 L 471 506 L 465 506 Z" stroke="#ffffff00" stroke-width="1" fill="#ff0000"/>
		<path d="M 471 506 L 474 488 L 477 506 L 471 506 Z" stroke="#ffffff00" stroke-width="1" fill="#ff0000"/>
		<path d="M 477 506 L 480 488 L 483 506 L 477 506 Z" stroke="#ffffff00" stroke-width="1" fill="#ff0000"/>
		<path d="M 483 506 L 486 488 L 489 506 L 483 506 Z" stroke="#ffffff00" stroke-width="1" fill="#ff0000"/>
		<path d="M 489 506 L 492 488 L 495 506 L 489 506 Z" stroke="#ffffff00" stroke-width="1" fill="#ff0000"/>
	</g>
</svg>