<?xml version="1.0" standalone="no"?>
<!-- Generator: Adobe Fireworks 10, Export SVG Extension by Aaron Beall (http://fireworks.abeall.com) . Version: 0.6.1  -->
<!DOCTYPE svg PUBLIC "-//W3C//DTD SVG 1.1//EN" "http://www.w3.org/Graphics/SVG/1.1/DTD/svg11.dtd">
<svg id="levels.fw-slide" viewBox="0 0 800 600" style="background-color:#ffffff" version="1.1"
	xmlns="http://www.w3.org/2000/svg" xmlns:xlink="http://www.w3.org/1999/xlink" xml:space="preserve"
	x="0px" y="0px" width="800px" height="600px"
>
	<g id="Layer%201">
		<path d="M -69 -5 L -92 -5 L -92 632 L 863 632 L 863 19 L 979 19 L 979 -165 L -69 -165 L -69 -5 ZM 525 120 L 634 120 L 634 102 L 516 102 L 394 204 L 28 204 L 28 19 L 768 19 L 768 91 L 768 258 C 768 258 775 438 440 438 C 440 438 238 435 191 382 L 174 396 C 174 396 208 456 440 456 L 766 456 L 766 581 L 290 581 C 34 581 35 447 28 393 L 28 347.595 C 28 310 53.2224 274.2323 93 267 C 148 257 176 287 199 325 L 281 325 L 525 120 Z" stroke="#ffffff" stroke-width="10" fill="#bbbbbb"/>
		<path d="M -69 -5 L -92 -5 L -92 632 L 863 632 L 863 19 L 979 19 L 979 -165 L -69 -165 L -69 -5 ZM 525 120 L 634 120 L 634 102 L 516 102 L 394 204 L 28 204 L 28 19 L 768 19 L 768 91 L 768 258 C 768 258 775 438 440 438 C 440 438 238 435 191 382 L 174 396 C 174 396 208 456 440 456 L 766 456 L 766 581 L 290 581 C 34 581 35 447 28 393 L 28 347.595 C 28 308 53.2224 274.2323 93 267 C 148 257 176 287 199 325 L 281 325 L 525 120 Z" stroke="#666666" stroke-width="7" fill="none"/>
		<path d="M 184 98 L 184 127 L 235 120 L 235 130 L 257 112 L 235 94 L 235 104 L 184 98 Z" stroke="#ffffff00" stroke-width="1" fill="#dddddd"/>
	</g>
</svg>