<?xml version="1.0" standalone="no"?>
<!-- Generator: Adobe Fireworks 10, Export SVG Extension by Aaron Beall (http://fireworks.abeall.com) . Version: 0.6.1  -->
<!DOCTYPE svg PUBLIC "-//W3C//DTD SVG 1.1//EN" "http://www.w3.org/Graphics/SVG/1.1/DTD/svg11.dtd">
<svg id="levels.fw-rjump" viewBox="0 0 800 600" style="background-color:#ffffff00" version="1.1"
	xmlns="http://www.w3.org/2000/svg" xmlns:xlink="http://www.w3.org/1999/xlink" xml:space="preserve"
	x="0px" y="0px" width="800px" height="600px"
>
	<g id="Layer%201">
		<path d="M 148 217 L 638 37 L 638 240 L 527 240 L 498 269 L 498 565 L 289 565 L 289 448 L 261 420 L 148 420 L 148 217 ZM -21 -53 L -21 691 L 834 691 L 834 -53 L -21 -53 Z" stroke="#ffffff" stroke-width="10" fill="#bbbbbb"/>
		<path d="M 148 217 L 638 37 L 638 240 L 527 240 L 498 269 L 498 565 L 289 565 L 289 448 L 261 420 L 148 420 L 148 217 ZM -21 -53 L -21 691 L 834 691 L 834 -53 L -21 -53 Z" stroke="#666666" stroke-width="7" fill="none"/>
		<path d="M 291 565 L 294 547 L 297 565 L 291 565 Z" stroke="#ffffff00" stroke-width="1" fill="#ff0000"/>
		<path d="M 297 565 L 300 547 L 303 565 L 297 565 Z" stroke="#ffffff00" stroke-width="1" fill="#ff0000"/>
		<path d="M 303 565 L 306 547 L 309 565 L 303 565 Z" stroke="#ffffff00" stroke-width="1" fill="#ff0000"/>
		<path d="M 309 565 L 312 547 L 315 565 L 309 565 Z" stroke="#ffffff00" stroke-width="1" fill="#ff0000"/>
		<path d="M 315 565 L 318 547 L 321 565 L 315 565 Z" stroke="#ffffff00" stroke-width="1" fill="#ff0000"/>
		<path d="M 321 565 L 324 547 L 327 565 L 321 565 Z" stroke="#ffffff00" stroke-width="1" fill="#ff0000"/>
		<path d="M 327 565 L 330 547 L 333 565 L 327 565 Z" stroke="#ffffff00" stroke-width="1" fill="#ff0000"/>
		<path d="M 333 565 L 336 547 L 339 565 L 333 565 Z" stroke="#ffffff00" stroke-width="1" fill="#ff0000"/>
		<path d="M 339 565 L 342 547 L 345 565 L 339 565 Z" stroke="#ffffff00" stroke-width="1" fill="#ff0000"/>
		<path d="M 345 565 L 348 547 L 351 565 L 345 565 Z" stroke="#ffffff00" stroke-width="1" fill="#ff0000"/>
		<path d="M 351 565 L 354 547 L 357 565 L 351 565 Z" stroke="#ffffff00" stroke-width="1" fill="#ff0000"/>
		<path d="M 357 565 L 360 547 L 363 565 L 357 565 Z" stroke="#ffffff00" stroke-width="1" fill="#ff0000"/>
		<path d="M 363 565 L 366 547 L 369 565 L 363 565 Z" stroke="#ffffff00" stroke-width="1" fill="#ff0000"/>
		<path d="M 369 565 L 372 547 L 375 565 L 369 565 Z" stroke="#ffffff00" stroke-width="1" fill="#ff0000"/>
		<path d="M 375 565 L 378 547 L 381 565 L 375 565 Z" stroke="#ffffff00" stroke-width="1" fill="#ff0000"/>
		<path d="M 381 565 L 384 547 L 387 565 L 381 565 Z" stroke="#ffffff00" stroke-width="1" fill="#ff0000"/>
		<path d="M 387 565 L 390 547 L 393 565 L 387 565 Z" stroke="#ffffff00" stroke-width="1" fill="#ff0000"/>
		<path d="M 393 565 L 396 547 L 399 565 L 393 565 Z" stroke="#ffffff00" stroke-width="1" fill="#ff0000"/>
		<path d="M 399 565 L 402 547 L 405 565 L 399 565 Z" stroke="#ffffff00" stroke-width="1" fill="#ff0000"/>
		<path d="M 405 565 L 408 547 L 411 565 L 405 565 Z" stroke="#ffffff00" stroke-width="1" fill="#ff0000"/>
		<path d="M 411 565 L 414 547 L 417 565 L 411 565 Z" stroke="#ffffff00" stroke-width="1" fill="#ff0000"/>
		<path d="M 417 565 L 420 547 L 423 565 L 417 565 Z" stroke="#ffffff00" stroke-width="1" fill="#ff0000"/>
		<path d="M 423 565 L 426 547 L 429 565 L 423 565 Z" stroke="#ffffff00" stroke-width="1" fill="#ff0000"/>
		<path d="M 429 565 L 432 547 L 435 565 L 429 565 Z" stroke="#ffffff00" stroke-width="1" fill="#ff0000"/>
		<path d="M 435 565 L 438 547 L 441 565 L 435 565 Z" stroke="#ffffff00" stroke-width="1" fill="#ff0000"/>
		<path d="M 441 565 L 444 547 L 447 565 L 441 565 Z" stroke="#ffffff00" stroke-width="1" fill="#ff0000"/>
		<path d="M 447 565 L 450 547 L 453 565 L 447 565 Z" stroke="#ffffff00" stroke-width="1" fill="#ff0000"/>
		<path d="M 453 565 L 456 547 L 459 565 L 453 565 Z" stroke="#ffffff00" stroke-width="1" fill="#ff0000"/>
		<path d="M 459 565 L 462 547 L 465 565 L 459 565 Z" stroke="#ffffff00" stroke-width="1" fill="#ff0000"/>
		<path d="M 465 565 L 468 547 L 471 565 L 465 565 Z" stroke="#ffffff00" stroke-width="1" fill="#ff0000"/>
		<path d="M 471 565 L 474 547 L 477 565 L 471 565 Z" stroke="#ffffff00" stroke-width="1" fill="#ff0000"/>
		<path d="M 477 565 L 480 547 L 483 565 L 477 565 Z" stroke="#ffffff00" stroke-width="1" fill="#ff0000"/>
		<path d="M 483 565 L 486 547 L 489 565 L 483 565 Z" stroke="#ffffff00" stroke-width="1" fill="#ff0000"/>
		<path d="M 489 565 L 492 547 L 495 565 L 489 565 Z" stroke="#ffffff00" stroke-width="1" fill="#ff0000"/>
		<path d="M 341.012 255.4651 L 355.5092 280.4326 L 395.721 249.2704 L 400.6969 258.0303 L 411.031 231.0552 L 382.6947 226.338 L 387.7201 235.185 L 341.012 255.4651 Z" stroke="#ffffff00" stroke-width="1" fill="#dddddd"/>
	</g>
</svg>