<?xml version="1.0" standalone="no"?>
<!-- Generator: Adobe Fireworks 10, Export SVG Extension by Aaron Beall (http://fireworks.abeall.com) . Version: 0.6.1  -->
<!DOCTYPE svg PUBLIC "-//W3C//DTD SVG 1.1//EN" "http://www.w3.org/Graphics/SVG/1.1/DTD/svg11.dtd">
<svg id="levels.fw-locked" viewBox="0 0 800 600" style="background-color:#ffffff00" version="1.1"
	xmlns="http://www.w3.org/2000/svg" xmlns:xlink="http://www.w3.org/1999/xlink" xml:space="preserve"
	x="0px" y="0px" width="800px" height="600px"
>
	<g id="Layer%201">
		<path d="M 34 185 L 180 137 L 614 137 L 766 185 L 766 361 L 492 361 L 492 518 L 462 518 L 422 498 L 382 498 L 342 518 L 308 518 L 308 361 L 34 361 L 34 185 ZM -58 -23 L -58 655 L 850 655 L 850 -23 L -58 -23 Z" stroke="#ffffff" stroke-width="10" fill="#bbbbbb"/>
		<g>
			<path d="M 284 361 L 287 343 L 290 361 L 284 361 Z" stroke="#ffffff00" stroke-width="1" fill="#ff0000"/>
			<path d="M 290 361 L 293 343 L 296 361 L 290 361 Z" stroke="#ffffff00" stroke-width="1" fill="#ff0000"/>
			<path d="M 296 361 L 299 343 L 302 361 L 296 361 Z" stroke="#ffffff00" stroke-width="1" fill="#ff0000"/>
			<path d="M 302 361 L 305 343 L 308 361 L 302 361 Z" stroke="#ffffff00" stroke-width="1" fill="#ff0000"/>
		</g>
		<g>
			<path d="M 260 361 L 263 343 L 266 361 L 260 361 Z" stroke="#ffffff00" stroke-width="1" fill="#ff0000"/>
			<path d="M 266 361 L 269 343 L 272 361 L 266 361 Z" stroke="#ffffff00" stroke-width="1" fill="#ff0000"/>
			<path d="M 272 361 L 275 343 L 278 361 L 272 361 Z" stroke="#ffffff00" stroke-width="1" fill="#ff0000"/>
			<path d="M 278 361 L 281 343 L 284 361 L 278 361 Z" stroke="#ffffff00" stroke-width="1" fill="#ff0000"/>
		</g>
		<g>
			<path d="M 236 361 L 239 343 L 242 361 L 236 361 Z" stroke="#ffffff00" stroke-width="1" fill="#ff0000"/>
			<path d="M 242 361 L 245 343 L 248 361 L 242 361 Z" stroke="#ffffff00" stroke-width="1" fill="#ff0000"/>
			<path d="M 248 361 L 251 343 L 254 361 L 248 361 Z" stroke="#ffffff00" stroke-width="1" fill="#ff0000"/>
			<path d="M 254 361 L 257 343 L 260 361 L 254 361 Z" stroke="#ffffff00" stroke-width="1" fill="#ff0000"/>
		</g>
		<g>
			<path d="M 212 361 L 215 343 L 218 361 L 212 361 Z" stroke="#ffffff00" stroke-width="1" fill="#ff0000"/>
			<path d="M 218 361 L 221 343 L 224 361 L 218 361 Z" stroke="#ffffff00" stroke-width="1" fill="#ff0000"/>
			<path d="M 224 361 L 227 343 L 230 361 L 224 361 Z" stroke="#ffffff00" stroke-width="1" fill="#ff0000"/>
			<path d="M 230 361 L 233 343 L 236 361 L 230 361 Z" stroke="#ffffff00" stroke-width="1" fill="#ff0000"/>
		</g>
		<g>
			<path d="M 188 361 L 191 343 L 194 361 L 188 361 Z" stroke="#ffffff00" stroke-width="1" fill="#ff0000"/>
			<path d="M 194 361 L 197 343 L 200 361 L 194 361 Z" stroke="#ffffff00" stroke-width="1" fill="#ff0000"/>
			<path d="M 200 361 L 203 343 L 206 361 L 200 361 Z" stroke="#ffffff00" stroke-width="1" fill="#ff0000"/>
			<path d="M 206 361 L 209 343 L 212 361 L 206 361 Z" stroke="#ffffff00" stroke-width="1" fill="#ff0000"/>
		</g>
		<g>
			<path d="M 164 361 L 167 343 L 170 361 L 164 361 Z" stroke="#ffffff00" stroke-width="1" fill="#ff0000"/>
			<path d="M 170 361 L 173 343 L 176 361 L 170 361 Z" stroke="#ffffff00" stroke-width="1" fill="#ff0000"/>
			<path d="M 176 361 L 179 343 L 182 361 L 176 361 Z" stroke="#ffffff00" stroke-width="1" fill="#ff0000"/>
			<path d="M 182 361 L 185 343 L 188 361 L 182 361 Z" stroke="#ffffff00" stroke-width="1" fill="#ff0000"/>
		</g>
		<g>
			<path d="M 613 361 L 616 343 L 619 361 L 613 361 Z" stroke="#ffffff00" stroke-width="1" fill="#ff0000"/>
			<path d="M 619 361 L 622 343 L 625 361 L 619 361 Z" stroke="#ffffff00" stroke-width="1" fill="#ff0000"/>
			<path d="M 625 361 L 628 343 L 631 361 L 625 361 Z" stroke="#ffffff00" stroke-width="1" fill="#ff0000"/>
			<path d="M 631 361 L 634 343 L 637 361 L 631 361 Z" stroke="#ffffff00" stroke-width="1" fill="#ff0000"/>
		</g>
		<g>
			<path d="M 589 361 L 592 343 L 595 361 L 589 361 Z" stroke="#ffffff00" stroke-width="1" fill="#ff0000"/>
			<path d="M 595 361 L 598 343 L 601 361 L 595 361 Z" stroke="#ffffff00" stroke-width="1" fill="#ff0000"/>
			<path d="M 601 361 L 604 343 L 607 361 L 601 361 Z" stroke="#ffffff00" stroke-width="1" fill="#ff0000"/>
			<path d="M 607 361 L 610 343 L 613 361 L 607 361 Z" stroke="#ffffff00" stroke-width="1" fill="#ff0000"/>
		</g>
		<g>
			<path d="M 565 361 L 568 343 L 571 361 L 565 361 Z" stroke="#ffffff00" stroke-width="1" fill="#ff0000"/>
			<path d="M 571 361 L 574 343 L 577 361 L 571 361 Z" stroke="#ffffff00" stroke-width="1" fill="#ff0000"/>
			<path d="M 577 361 L 580 343 L 583 361 L 577 361 Z" stroke="#ffffff00" stroke-width="1" fill="#ff0000"/>
			<path d="M 583 361 L 586 343 L 589 361 L 583 361 Z" stroke="#ffffff00" stroke-width="1" fill="#ff0000"/>
		</g>
		<g>
			<path d="M 541 361 L 544 343 L 547 361 L 541 361 Z" stroke="#ffffff00" stroke-width="1" fill="#ff0000"/>
			<path d="M 547 361 L 550 343 L 553 361 L 547 361 Z" stroke="#ffffff00" stroke-width="1" fill="#ff0000"/>
			<path d="M 553 361 L 556 343 L 559 361 L 553 361 Z" stroke="#ffffff00" stroke-width="1" fill="#ff0000"/>
			<path d="M 559 361 L 562 343 L 565 361 L 559 361 Z" stroke="#ffffff00" stroke-width="1" fill="#ff0000"/>
		</g>
		<g>
			<path d="M 517 361 L 520 343 L 523 361 L 517 361 Z" stroke="#ffffff00" stroke-width="1" fill="#ff0000"/>
			<path d="M 523 361 L 526 343 L 529 361 L 523 361 Z" stroke="#ffffff00" stroke-width="1" fill="#ff0000"/>
			<path d="M 529 361 L 532 343 L 535 361 L 529 361 Z" stroke="#ffffff00" stroke-width="1" fill="#ff0000"/>
			<path d="M 535 361 L 538 343 L 541 361 L 535 361 Z" stroke="#ffffff00" stroke-width="1" fill="#ff0000"/>
		</g>
		<g>
			<path d="M 493 361 L 496 343 L 499 361 L 493 361 Z" stroke="#ffffff00" stroke-width="1" fill="#ff0000"/>
			<path d="M 499 361 L 502 343 L 505 361 L 499 361 Z" stroke="#ffffff00" stroke-width="1" fill="#ff0000"/>
			<path d="M 505 361 L 508 343 L 511 361 L 505 361 Z" stroke="#ffffff00" stroke-width="1" fill="#ff0000"/>
			<path d="M 511 361 L 514 343 L 517 361 L 511 361 Z" stroke="#ffffff00" stroke-width="1" fill="#ff0000"/>
		</g>
		<path d="M 34 185 L 180 137 L 614 137 L 766 185 L 766 361 L 492 361 L 492 518 L 462 518 L 422 498 L 382 498 L 342 518 L 308 518 L 308 361 L 34 361 L 34 185 ZM -58 -23 L -58 655 L 850 655 L 850 -23 L -58 -23 Z" stroke="#666666" stroke-width="7" fill="none"/>
	</g>
</svg>