<?xml version="1.0" standalone="no"?>
<!-- Generator: Adobe Fireworks 10, Export SVG Extension by Aaron Beall (http://fireworks.abeall.com) . Version: 0.6.1  -->
<!DOCTYPE svg PUBLIC "-//W3C//DTD SVG 1.1//EN" "http://www.w3.org/Graphics/SVG/1.1/DTD/svg11.dtd">
<svg id="levels.fw-locked%20Copy" viewBox="0 0 800 600" style="background-color:#ffffff00" version="1.1"
	xmlns="http://www.w3.org/2000/svg" xmlns:xlink="http://www.w3.org/1999/xlink" xml:space="preserve"
	x="0px" y="0px" width="800px" height="600px"
>
	<g id="Layer%201">
		<rect x="211" y="301" width="103" height="30" stroke="#ffffff" stroke-width="10" fill="#bbbbbb" rx="3.75" ry="3.75"/>
		<path d="M 188 15 L 514 15 L 666 63 L 666 279 L 412 279 L 412 586 L 362 586 L 322 566 L 282 566 L 242 586 L 188 586 L 188 429 L 188 15 ZM -58 -75 L -58 643 L 850 643 L 850 -75 L -58 -75 Z" stroke="#ffffff" stroke-width="10" fill="#bbbbbb"/>
		<path d="M 188 15 L 514 15 L 666 63 L 666 279 L 412 279 L 412 586 L 362 586 L 322 566 L 282 566 L 242 586 L 188 586 L 188 429 L 188 15 ZM -58 -75 L -58 643 L 850 643 L 850 -75 L -58 -75 Z" stroke="#666666" stroke-width="7" fill="none"/>
		<g>
			<path d="M 214 586 L 217 568 L 220 586 L 214 586 Z" stroke="#ffffff00" stroke-width="1" fill="#ff0000"/>
			<path d="M 220 586 L 223 568 L 226 586 L 220 586 Z" stroke="#ffffff00" stroke-width="1" fill="#ff0000"/>
			<path d="M 226 586 L 229 568 L 232 586 L 226 586 Z" stroke="#ffffff00" stroke-width="1" fill="#ff0000"/>
			<path d="M 232 586 L 235 568 L 238 586 L 232 586 Z" stroke="#ffffff00" stroke-width="1" fill="#ff0000"/>
		</g>
		<g>
			<path d="M 190 586 L 193 568 L 196 586 L 190 586 Z" stroke="#ffffff00" stroke-width="1" fill="#ff0000"/>
			<path d="M 196 586 L 199 568 L 202 586 L 196 586 Z" stroke="#ffffff00" stroke-width="1" fill="#ff0000"/>
			<path d="M 202 586 L 205 568 L 208 586 L 202 586 Z" stroke="#ffffff00" stroke-width="1" fill="#ff0000"/>
			<path d="M 208 586 L 211 568 L 214 586 L 208 586 Z" stroke="#ffffff00" stroke-width="1" fill="#ff0000"/>
		</g>
		<g>
			<path d="M 188 537 L 206 540 L 188 543 L 188 537 Z" stroke="#ffffff00" stroke-width="1" fill="#ff0000"/>
			<path d="M 188 543 L 206 546 L 188 549 L 188 543 Z" stroke="#ffffff00" stroke-width="1" fill="#ff0000"/>
			<path d="M 188 549 L 206 552 L 188 555 L 188 549 Z" stroke="#ffffff00" stroke-width="1" fill="#ff0000"/>
			<path d="M 188 555 L 206 558 L 188 561 L 188 555 Z" stroke="#ffffff00" stroke-width="1" fill="#ff0000"/>
		</g>
		<g>
			<path d="M 188 513 L 206 516 L 188 519 L 188 513 Z" stroke="#ffffff00" stroke-width="1" fill="#ff0000"/>
			<path d="M 188 519 L 206 522 L 188 525 L 188 519 Z" stroke="#ffffff00" stroke-width="1" fill="#ff0000"/>
			<path d="M 188 525 L 206 528 L 188 531 L 188 525 Z" stroke="#ffffff00" stroke-width="1" fill="#ff0000"/>
			<path d="M 188 531 L 206 534 L 188 537 L 188 531 Z" stroke="#ffffff00" stroke-width="1" fill="#ff0000"/>
		</g>
		<g>
			<path d="M 188 489 L 206 492 L 188 495 L 188 489 Z" stroke="#ffffff00" stroke-width="1" fill="#ff0000"/>
			<path d="M 188 495 L 206 498 L 188 501 L 188 495 Z" stroke="#ffffff00" stroke-width="1" fill="#ff0000"/>
			<path d="M 188 501 L 206 504 L 188 507 L 188 501 Z" stroke="#ffffff00" stroke-width="1" fill="#ff0000"/>
			<path d="M 188 507 L 206 510 L 188 513 L 188 507 Z" stroke="#ffffff00" stroke-width="1" fill="#ff0000"/>
		</g>
		<g>
			<path d="M 188 465 L 206 468 L 188 471 L 188 465 Z" stroke="#ffffff00" stroke-width="1" fill="#ff0000"/>
			<path d="M 188 471 L 206 474 L 188 477 L 188 471 Z" stroke="#ffffff00" stroke-width="1" fill="#ff0000"/>
			<path d="M 188 477 L 206 480 L 188 483 L 188 477 Z" stroke="#ffffff00" stroke-width="1" fill="#ff0000"/>
			<path d="M 188 483 L 206 486 L 188 489 L 188 483 Z" stroke="#ffffff00" stroke-width="1" fill="#ff0000"/>
		</g>
		<g>
			<path d="M 188 441 L 206 444 L 188 447 L 188 441 Z" stroke="#ffffff00" stroke-width="1" fill="#ff0000"/>
			<path d="M 188 447 L 206 450 L 188 453 L 188 447 Z" stroke="#ffffff00" stroke-width="1" fill="#ff0000"/>
			<path d="M 188 453 L 206 456 L 188 459 L 188 453 Z" stroke="#ffffff00" stroke-width="1" fill="#ff0000"/>
			<path d="M 188 459 L 206 462 L 188 465 L 188 459 Z" stroke="#ffffff00" stroke-width="1" fill="#ff0000"/>
		</g>
		<g>
			<path d="M 188 417 L 206 420 L 188 423 L 188 417 Z" stroke="#ffffff00" stroke-width="1" fill="#ff0000"/>
			<path d="M 188 423 L 206 426 L 188 429 L 188 423 Z" stroke="#ffffff00" stroke-width="1" fill="#ff0000"/>
			<path d="M 188 429 L 206 432 L 188 435 L 188 429 Z" stroke="#ffffff00" stroke-width="1" fill="#ff0000"/>
			<path d="M 188 435 L 206 438 L 188 441 L 188 435 Z" stroke="#ffffff00" stroke-width="1" fill="#ff0000"/>
		</g>
		<g>
			<path d="M 188 393 L 206 396 L 188 399 L 188 393 Z" stroke="#ffffff00" stroke-width="1" fill="#ff0000"/>
			<path d="M 188 399 L 206 402 L 188 405 L 188 399 Z" stroke="#ffffff00" stroke-width="1" fill="#ff0000"/>
			<path d="M 188 405 L 206 408 L 188 411 L 188 405 Z" stroke="#ffffff00" stroke-width="1" fill="#ff0000"/>
			<path d="M 188 411 L 206 414 L 188 417 L 188 411 Z" stroke="#ffffff00" stroke-width="1" fill="#ff0000"/>
		</g>
		<g>
			<path d="M 188 369 L 206 372 L 188 375 L 188 369 Z" stroke="#ffffff00" stroke-width="1" fill="#ff0000"/>
			<path d="M 188 375 L 206 378 L 188 381 L 188 375 Z" stroke="#ffffff00" stroke-width="1" fill="#ff0000"/>
			<path d="M 188 381 L 206 384 L 188 387 L 188 381 Z" stroke="#ffffff00" stroke-width="1" fill="#ff0000"/>
			<path d="M 188 387 L 206 390 L 188 393 L 188 387 Z" stroke="#ffffff00" stroke-width="1" fill="#ff0000"/>
		</g>
		<g>
			<path d="M 188 345 L 206 348 L 188 351 L 188 345 Z" stroke="#ffffff00" stroke-width="1" fill="#ff0000"/>
			<path d="M 188 351 L 206 354 L 188 357 L 188 351 Z" stroke="#ffffff00" stroke-width="1" fill="#ff0000"/>
			<path d="M 188 357 L 206 360 L 188 363 L 188 357 Z" stroke="#ffffff00" stroke-width="1" fill="#ff0000"/>
			<path d="M 188 363 L 206 366 L 188 369 L 188 363 Z" stroke="#ffffff00" stroke-width="1" fill="#ff0000"/>
		</g>
		<g>
			<path d="M 188 321 L 206 324 L 188 327 L 188 321 Z" stroke="#ffffff00" stroke-width="1" fill="#ff0000"/>
			<path d="M 188 327 L 206 330 L 188 333 L 188 327 Z" stroke="#ffffff00" stroke-width="1" fill="#ff0000"/>
			<path d="M 188 333 L 206 336 L 188 339 L 188 333 Z" stroke="#ffffff00" stroke-width="1" fill="#ff0000"/>
			<path d="M 188 339 L 206 342 L 188 345 L 188 339 Z" stroke="#ffffff00" stroke-width="1" fill="#ff0000"/>
		</g>
		<g>
			<path d="M 188 297 L 206 300 L 188 303 L 188 297 Z" stroke="#ffffff00" stroke-width="1" fill="#ff0000"/>
			<path d="M 188 303 L 206 306 L 188 309 L 188 303 Z" stroke="#ffffff00" stroke-width="1" fill="#ff0000"/>
			<path d="M 188 309 L 206 312 L 188 315 L 188 309 Z" stroke="#ffffff00" stroke-width="1" fill="#ff0000"/>
			<path d="M 188 315 L 206 318 L 188 321 L 188 315 Z" stroke="#ffffff00" stroke-width="1" fill="#ff0000"/>
		</g>
		<g>
			<path d="M 188 273 L 206 276 L 188 279 L 188 273 Z" stroke="#ffffff00" stroke-width="1" fill="#ff0000"/>
			<path d="M 188 279 L 206 282 L 188 285 L 188 279 Z" stroke="#ffffff00" stroke-width="1" fill="#ff0000"/>
			<path d="M 188 285 L 206 288 L 188 291 L 188 285 Z" stroke="#ffffff00" stroke-width="1" fill="#ff0000"/>
			<path d="M 188 291 L 206 294 L 188 297 L 188 291 Z" stroke="#ffffff00" stroke-width="1" fill="#ff0000"/>
		</g>
		<g>
			<path d="M 188 249 L 206 252 L 188 255 L 188 249 Z" stroke="#ffffff00" stroke-width="1" fill="#ff0000"/>
			<path d="M 188 255 L 206 258 L 188 261 L 188 255 Z" stroke="#ffffff00" stroke-width="1" fill="#ff0000"/>
			<path d="M 188 261 L 206 264 L 188 267 L 188 261 Z" stroke="#ffffff00" stroke-width="1" fill="#ff0000"/>
			<path d="M 188 267 L 206 270 L 188 273 L 188 267 Z" stroke="#ffffff00" stroke-width="1" fill="#ff0000"/>
		</g>
		<g>
			<path d="M 412 537 L 394 540 L 412 543 L 412 537 Z" stroke="#ffffff00" stroke-width="1" fill="#ff0000"/>
			<path d="M 412 543 L 394 546 L 412 549 L 412 543 Z" stroke="#ffffff00" stroke-width="1" fill="#ff0000"/>
			<path d="M 412 549 L 394 552 L 412 555 L 412 549 Z" stroke="#ffffff00" stroke-width="1" fill="#ff0000"/>
			<path d="M 412 555 L 394 558 L 412 561 L 412 555 Z" stroke="#ffffff00" stroke-width="1" fill="#ff0000"/>
		</g>
		<g>
			<path d="M 412 513 L 394 516 L 412 519 L 412 513 Z" stroke="#ffffff00" stroke-width="1" fill="#ff0000"/>
			<path d="M 412 519 L 394 522 L 412 525 L 412 519 Z" stroke="#ffffff00" stroke-width="1" fill="#ff0000"/>
			<path d="M 412 525 L 394 528 L 412 531 L 412 525 Z" stroke="#ffffff00" stroke-width="1" fill="#ff0000"/>
			<path d="M 412 531 L 394 534 L 412 537 L 412 531 Z" stroke="#ffffff00" stroke-width="1" fill="#ff0000"/>
		</g>
		<g>
			<path d="M 412 489 L 394 492 L 412 495 L 412 489 Z" stroke="#ffffff00" stroke-width="1" fill="#ff0000"/>
			<path d="M 412 495 L 394 498 L 412 501 L 412 495 Z" stroke="#ffffff00" stroke-width="1" fill="#ff0000"/>
			<path d="M 412 501 L 394 504 L 412 507 L 412 501 Z" stroke="#ffffff00" stroke-width="1" fill="#ff0000"/>
			<path d="M 412 507 L 394 510 L 412 513 L 412 507 Z" stroke="#ffffff00" stroke-width="1" fill="#ff0000"/>
		</g>
		<g>
			<path d="M 412 465 L 394 468 L 412 471 L 412 465 Z" stroke="#ffffff00" stroke-width="1" fill="#ff0000"/>
			<path d="M 412 471 L 394 474 L 412 477 L 412 471 Z" stroke="#ffffff00" stroke-width="1" fill="#ff0000"/>
			<path d="M 412 477 L 394 480 L 412 483 L 412 477 Z" stroke="#ffffff00" stroke-width="1" fill="#ff0000"/>
			<path d="M 412 483 L 394 486 L 412 489 L 412 483 Z" stroke="#ffffff00" stroke-width="1" fill="#ff0000"/>
		</g>
		<g>
			<path d="M 412 441 L 394 444 L 412 447 L 412 441 Z" stroke="#ffffff00" stroke-width="1" fill="#ff0000"/>
			<path d="M 412 447 L 394 450 L 412 453 L 412 447 Z" stroke="#ffffff00" stroke-width="1" fill="#ff0000"/>
			<path d="M 412 453 L 394 456 L 412 459 L 412 453 Z" stroke="#ffffff00" stroke-width="1" fill="#ff0000"/>
			<path d="M 412 459 L 394 462 L 412 465 L 412 459 Z" stroke="#ffffff00" stroke-width="1" fill="#ff0000"/>
		</g>
		<g>
			<path d="M 412 417 L 394 420 L 412 423 L 412 417 Z" stroke="#ffffff00" stroke-width="1" fill="#ff0000"/>
			<path d="M 412 423 L 394 426 L 412 429 L 412 423 Z" stroke="#ffffff00" stroke-width="1" fill="#ff0000"/>
			<path d="M 412 429 L 394 432 L 412 435 L 412 429 Z" stroke="#ffffff00" stroke-width="1" fill="#ff0000"/>
			<path d="M 412 435 L 394 438 L 412 441 L 412 435 Z" stroke="#ffffff00" stroke-width="1" fill="#ff0000"/>
		</g>
		<g>
			<path d="M 412 393 L 394 396 L 412 399 L 412 393 Z" stroke="#ffffff00" stroke-width="1" fill="#ff0000"/>
			<path d="M 412 399 L 394 402 L 412 405 L 412 399 Z" stroke="#ffffff00" stroke-width="1" fill="#ff0000"/>
			<path d="M 412 405 L 394 408 L 412 411 L 412 405 Z" stroke="#ffffff00" stroke-width="1" fill="#ff0000"/>
			<path d="M 412 411 L 394 414 L 412 417 L 412 411 Z" stroke="#ffffff00" stroke-width="1" fill="#ff0000"/>
		</g>
		<g>
			<path d="M 412 369 L 394 372 L 412 375 L 412 369 Z" stroke="#ffffff00" stroke-width="1" fill="#ff0000"/>
			<path d="M 412 375 L 394 378 L 412 381 L 412 375 Z" stroke="#ffffff00" stroke-width="1" fill="#ff0000"/>
			<path d="M 412 381 L 394 384 L 412 387 L 412 381 Z" stroke="#ffffff00" stroke-width="1" fill="#ff0000"/>
			<path d="M 412 387 L 394 390 L 412 393 L 412 387 Z" stroke="#ffffff00" stroke-width="1" fill="#ff0000"/>
		</g>
		<g>
			<path d="M 412 345 L 394 348 L 412 351 L 412 345 Z" stroke="#ffffff00" stroke-width="1" fill="#ff0000"/>
			<path d="M 412 351 L 394 354 L 412 357 L 412 351 Z" stroke="#ffffff00" stroke-width="1" fill="#ff0000"/>
			<path d="M 412 357 L 394 360 L 412 363 L 412 357 Z" stroke="#ffffff00" stroke-width="1" fill="#ff0000"/>
			<path d="M 412 363 L 394 366 L 412 369 L 412 363 Z" stroke="#ffffff00" stroke-width="1" fill="#ff0000"/>
		</g>
		<g>
			<path d="M 412 321 L 394 324 L 412 327 L 412 321 Z" stroke="#ffffff00" stroke-width="1" fill="#ff0000"/>
			<path d="M 412 327 L 394 330 L 412 333 L 412 327 Z" stroke="#ffffff00" stroke-width="1" fill="#ff0000"/>
			<path d="M 412 333 L 394 336 L 412 339 L 412 333 Z" stroke="#ffffff00" stroke-width="1" fill="#ff0000"/>
			<path d="M 412 339 L 394 342 L 412 345 L 412 339 Z" stroke="#ffffff00" stroke-width="1" fill="#ff0000"/>
		</g>
		<g>
			<path d="M 412 297 L 394 300 L 412 303 L 412 297 Z" stroke="#ffffff00" stroke-width="1" fill="#ff0000"/>
			<path d="M 412 303 L 394 306 L 412 309 L 412 303 Z" stroke="#ffffff00" stroke-width="1" fill="#ff0000"/>
			<path d="M 412 309 L 394 312 L 412 315 L 412 309 Z" stroke="#ffffff00" stroke-width="1" fill="#ff0000"/>
			<path d="M 412 315 L 394 318 L 412 321 L 412 315 Z" stroke="#ffffff00" stroke-width="1" fill="#ff0000"/>
		</g>
		<g>
			<path d="M 412 279 L 394 282 L 412 285 L 412 279 Z" stroke="#ffffff00" stroke-width="1" fill="#ff0000"/>
			<path d="M 412 285 L 394 288 L 412 291 L 412 285 Z" stroke="#ffffff00" stroke-width="1" fill="#ff0000"/>
			<path d="M 412 291 L 394 294 L 412 297 L 412 291 Z" stroke="#ffffff00" stroke-width="1" fill="#ff0000"/>
		</g>
		<g>
			<path d="M 188 63 L 206 66 L 188 69 L 188 63 Z" stroke="#ffffff00" stroke-width="1" fill="#ff0000"/>
			<path d="M 188 69 L 206 72 L 188 75 L 188 69 Z" stroke="#ffffff00" stroke-width="1" fill="#ff0000"/>
			<path d="M 188 75 L 206 78 L 188 81 L 188 75 Z" stroke="#ffffff00" stroke-width="1" fill="#ff0000"/>
			<path d="M 188 81 L 206 84 L 188 87 L 188 81 Z" stroke="#ffffff00" stroke-width="1" fill="#ff0000"/>
		</g>
		<g>
			<path d="M 188 87 L 206 90 L 188 93 L 188 87 Z" stroke="#ffffff00" stroke-width="1" fill="#ff0000"/>
			<path d="M 188 93 L 206 96 L 188 99 L 188 93 Z" stroke="#ffffff00" stroke-width="1" fill="#ff0000"/>
			<path d="M 188 99 L 206 102 L 188 105 L 188 99 Z" stroke="#ffffff00" stroke-width="1" fill="#ff0000"/>
			<path d="M 188 105 L 206 108 L 188 111 L 188 105 Z" stroke="#ffffff00" stroke-width="1" fill="#ff0000"/>
		</g>
		<g>
			<path d="M 188 111 L 206 114 L 188 117 L 188 111 Z" stroke="#ffffff00" stroke-width="1" fill="#ff0000"/>
			<path d="M 188 117 L 206 120 L 188 123 L 188 117 Z" stroke="#ffffff00" stroke-width="1" fill="#ff0000"/>
			<path d="M 188 123 L 206 126 L 188 129 L 188 123 Z" stroke="#ffffff00" stroke-width="1" fill="#ff0000"/>
			<path d="M 188 129 L 206 132 L 188 135 L 188 129 Z" stroke="#ffffff00" stroke-width="1" fill="#ff0000"/>
		</g>
		<g>
			<path d="M 188 39 L 206 42 L 188 45 L 188 39 Z" stroke="#ffffff00" stroke-width="1" fill="#ff0000"/>
			<path d="M 188 45 L 206 48 L 188 51 L 188 45 Z" stroke="#ffffff00" stroke-width="1" fill="#ff0000"/>
			<path d="M 188 51 L 206 54 L 188 57 L 188 51 Z" stroke="#ffffff00" stroke-width="1" fill="#ff0000"/>
			<path d="M 188 57 L 206 60 L 188 63 L 188 57 Z" stroke="#ffffff00" stroke-width="1" fill="#ff0000"/>
		</g>
		<g>
			<path d="M 188 15 L 206 18 L 188 21 L 188 15 Z" stroke="#ffffff00" stroke-width="1" fill="#ff0000"/>
			<path d="M 188 21 L 206 24 L 188 27 L 188 21 Z" stroke="#ffffff00" stroke-width="1" fill="#ff0000"/>
			<path d="M 188 27 L 206 30 L 188 33 L 188 27 Z" stroke="#ffffff00" stroke-width="1" fill="#ff0000"/>
			<path d="M 188 33 L 206 36 L 188 39 L 188 33 Z" stroke="#ffffff00" stroke-width="1" fill="#ff0000"/>
		</g>
		<g>
			<path d="M 386 586 L 389 568 L 392 586 L 386 586 Z" stroke="#ffffff00" stroke-width="1" fill="#ff0000"/>
			<path d="M 392 586 L 395 568 L 398 586 L 392 586 Z" stroke="#ffffff00" stroke-width="1" fill="#ff0000"/>
			<path d="M 398 586 L 401 568 L 404 586 L 398 586 Z" stroke="#ffffff00" stroke-width="1" fill="#ff0000"/>
			<path d="M 404 586 L 407 568 L 410 586 L 404 586 Z" stroke="#ffffff00" stroke-width="1" fill="#ff0000"/>
		</g>
		<g>
			<path d="M 362 586 L 365 568 L 368 586 L 362 586 Z" stroke="#ffffff00" stroke-width="1" fill="#ff0000"/>
			<path d="M 368 586 L 371 568 L 374 586 L 368 586 Z" stroke="#ffffff00" stroke-width="1" fill="#ff0000"/>
			<path d="M 374 586 L 377 568 L 380 586 L 374 586 Z" stroke="#ffffff00" stroke-width="1" fill="#ff0000"/>
			<path d="M 380 586 L 383 568 L 386 586 L 380 586 Z" stroke="#ffffff00" stroke-width="1" fill="#ff0000"/>
		</g>
		<g>
			<path d="M 484 279 L 487 261 L 490 279 L 484 279 Z" stroke="#ffffff00" stroke-width="1" fill="#ff0000"/>
			<path d="M 490 279 L 493 261 L 496 279 L 490 279 Z" stroke="#ffffff00" stroke-width="1" fill="#ff0000"/>
			<path d="M 496 279 L 499 261 L 502 279 L 496 279 Z" stroke="#ffffff00" stroke-width="1" fill="#ff0000"/>
			<path d="M 502 279 L 505 261 L 508 279 L 502 279 Z" stroke="#ffffff00" stroke-width="1" fill="#ff0000"/>
		</g>
		<g>
			<path d="M 508 279 L 511 261 L 514 279 L 508 279 Z" stroke="#ffffff00" stroke-width="1" fill="#ff0000"/>
			<path d="M 514 279 L 517 261 L 520 279 L 514 279 Z" stroke="#ffffff00" stroke-width="1" fill="#ff0000"/>
			<path d="M 520 279 L 523 261 L 526 279 L 520 279 Z" stroke="#ffffff00" stroke-width="1" fill="#ff0000"/>
			<path d="M 526 279 L 529 261 L 532 279 L 526 279 Z" stroke="#ffffff00" stroke-width="1" fill="#ff0000"/>
		</g>
		<g>
			<path d="M 460 279 L 463 261 L 466 279 L 460 279 Z" stroke="#ffffff00" stroke-width="1" fill="#ff0000"/>
			<path d="M 466 279 L 469 261 L 472 279 L 466 279 Z" stroke="#ffffff00" stroke-width="1" fill="#ff0000"/>
			<path d="M 472 279 L 475 261 L 478 279 L 472 279 Z" stroke="#ffffff00" stroke-width="1" fill="#ff0000"/>
			<path d="M 478 279 L 481 261 L 484 279 L 478 279 Z" stroke="#ffffff00" stroke-width="1" fill="#ff0000"/>
		</g>
		<g>
			<path d="M 436 279 L 439 261 L 442 279 L 436 279 Z" stroke="#ffffff00" stroke-width="1" fill="#ff0000"/>
			<path d="M 442 279 L 445 261 L 448 279 L 442 279 Z" stroke="#ffffff00" stroke-width="1" fill="#ff0000"/>
			<path d="M 448 279 L 451 261 L 454 279 L 448 279 Z" stroke="#ffffff00" stroke-width="1" fill="#ff0000"/>
			<path d="M 454 279 L 457 261 L 460 279 L 454 279 Z" stroke="#ffffff00" stroke-width="1" fill="#ff0000"/>
		</g>
		<g>
			<path d="M 412 279 L 415 261 L 418 279 L 412 279 Z" stroke="#ffffff00" stroke-width="1" fill="#ff0000"/>
			<path d="M 418 279 L 421 261 L 424 279 L 418 279 Z" stroke="#ffffff00" stroke-width="1" fill="#ff0000"/>
			<path d="M 424 279 L 427 261 L 430 279 L 424 279 Z" stroke="#ffffff00" stroke-width="1" fill="#ff0000"/>
			<path d="M 430 279 L 433 261 L 436 279 L 430 279 Z" stroke="#ffffff00" stroke-width="1" fill="#ff0000"/>
		</g>
		<g>
			<path d="M 279 15 L 282 33 L 285 15 L 279 15 Z" stroke="#ffffff00" stroke-width="1" fill="#ff0000"/>
			<path d="M 285 15 L 288 33 L 291 15 L 285 15 Z" stroke="#ffffff00" stroke-width="1" fill="#ff0000"/>
			<path d="M 291 15 L 294 33 L 297 15 L 291 15 Z" stroke="#ffffff00" stroke-width="1" fill="#ff0000"/>
			<path d="M 297 15 L 300 33 L 303 15 L 297 15 Z" stroke="#ffffff00" stroke-width="1" fill="#ff0000"/>
		</g>
		<g>
			<path d="M 303 15 L 306 33 L 309 15 L 303 15 Z" stroke="#ffffff00" stroke-width="1" fill="#ff0000"/>
			<path d="M 309 15 L 312 33 L 315 15 L 309 15 Z" stroke="#ffffff00" stroke-width="1" fill="#ff0000"/>
			<path d="M 315 15 L 318 33 L 321 15 L 315 15 Z" stroke="#ffffff00" stroke-width="1" fill="#ff0000"/>
			<path d="M 321 15 L 324 33 L 327 15 L 321 15 Z" stroke="#ffffff00" stroke-width="1" fill="#ff0000"/>
		</g>
		<g>
			<path d="M 255 15 L 258 33 L 261 15 L 255 15 Z" stroke="#ffffff00" stroke-width="1" fill="#ff0000"/>
			<path d="M 261 15 L 264 33 L 267 15 L 261 15 Z" stroke="#ffffff00" stroke-width="1" fill="#ff0000"/>
			<path d="M 267 15 L 270 33 L 273 15 L 267 15 Z" stroke="#ffffff00" stroke-width="1" fill="#ff0000"/>
			<path d="M 273 15 L 276 33 L 279 15 L 273 15 Z" stroke="#ffffff00" stroke-width="1" fill="#ff0000"/>
		</g>
		<g>
			<path d="M 231 15 L 234 33 L 237 15 L 231 15 Z" stroke="#ffffff00" stroke-width="1" fill="#ff0000"/>
			<path d="M 237 15 L 240 33 L 243 15 L 237 15 Z" stroke="#ffffff00" stroke-width="1" fill="#ff0000"/>
			<path d="M 243 15 L 246 33 L 249 15 L 243 15 Z" stroke="#ffffff00" stroke-width="1" fill="#ff0000"/>
			<path d="M 249 15 L 252 33 L 255 15 L 249 15 Z" stroke="#ffffff00" stroke-width="1" fill="#ff0000"/>
		</g>
		<g>
			<path d="M 207 15 L 210 33 L 213 15 L 207 15 Z" stroke="#ffffff00" stroke-width="1" fill="#ff0000"/>
			<path d="M 213 15 L 216 33 L 219 15 L 213 15 Z" stroke="#ffffff00" stroke-width="1" fill="#ff0000"/>
			<path d="M 219 15 L 222 33 L 225 15 L 219 15 Z" stroke="#ffffff00" stroke-width="1" fill="#ff0000"/>
			<path d="M 225 15 L 228 33 L 231 15 L 225 15 Z" stroke="#ffffff00" stroke-width="1" fill="#ff0000"/>
		</g>
		<g>
			<path d="M 399 15 L 402 33 L 405 15 L 399 15 Z" stroke="#ffffff00" stroke-width="1" fill="#ff0000"/>
			<path d="M 405 15 L 408 33 L 411 15 L 405 15 Z" stroke="#ffffff00" stroke-width="1" fill="#ff0000"/>
			<path d="M 411 15 L 414 33 L 417 15 L 411 15 Z" stroke="#ffffff00" stroke-width="1" fill="#ff0000"/>
			<path d="M 417 15 L 420 33 L 423 15 L 417 15 Z" stroke="#ffffff00" stroke-width="1" fill="#ff0000"/>
		</g>
		<g>
			<path d="M 423 15 L 426 33 L 429 15 L 423 15 Z" stroke="#ffffff00" stroke-width="1" fill="#ff0000"/>
			<path d="M 429 15 L 432 33 L 435 15 L 429 15 Z" stroke="#ffffff00" stroke-width="1" fill="#ff0000"/>
			<path d="M 435 15 L 438 33 L 441 15 L 435 15 Z" stroke="#ffffff00" stroke-width="1" fill="#ff0000"/>
			<path d="M 441 15 L 444 33 L 447 15 L 441 15 Z" stroke="#ffffff00" stroke-width="1" fill="#ff0000"/>
		</g>
		<g>
			<path d="M 375 15 L 378 33 L 381 15 L 375 15 Z" stroke="#ffffff00" stroke-width="1" fill="#ff0000"/>
			<path d="M 381 15 L 384 33 L 387 15 L 381 15 Z" stroke="#ffffff00" stroke-width="1" fill="#ff0000"/>
			<path d="M 387 15 L 390 33 L 393 15 L 387 15 Z" stroke="#ffffff00" stroke-width="1" fill="#ff0000"/>
			<path d="M 393 15 L 396 33 L 399 15 L 393 15 Z" stroke="#ffffff00" stroke-width="1" fill="#ff0000"/>
		</g>
		<g>
			<path d="M 351 15 L 354 33 L 357 15 L 351 15 Z" stroke="#ffffff00" stroke-width="1" fill="#ff0000"/>
			<path d="M 357 15 L 360 33 L 363 15 L 357 15 Z" stroke="#ffffff00" stroke-width="1" fill="#ff0000"/>
			<path d="M 363 15 L 366 33 L 369 15 L 363 15 Z" stroke="#ffffff00" stroke-width="1" fill="#ff0000"/>
			<path d="M 369 15 L 372 33 L 375 15 L 369 15 Z" stroke="#ffffff00" stroke-width="1" fill="#ff0000"/>
		</g>
		<g>
			<path d="M 327 15 L 330 33 L 333 15 L 327 15 Z" stroke="#ffffff00" stroke-width="1" fill="#ff0000"/>
			<path d="M 333 15 L 336 33 L 339 15 L 333 15 Z" stroke="#ffffff00" stroke-width="1" fill="#ff0000"/>
			<path d="M 339 15 L 342 33 L 345 15 L 339 15 Z" stroke="#ffffff00" stroke-width="1" fill="#ff0000"/>
			<path d="M 345 15 L 348 33 L 351 15 L 345 15 Z" stroke="#ffffff00" stroke-width="1" fill="#ff0000"/>
		</g>
		<g>
			<path d="M 495 15 L 498 33 L 501 15 L 495 15 Z" stroke="#ffffff00" stroke-width="1" fill="#ff0000"/>
			<path d="M 501 15 L 504 33 L 507 15 L 501 15 Z" stroke="#ffffff00" stroke-width="1" fill="#ff0000"/>
			<path d="M 507 15 L 510 33 L 513 15 L 507 15 Z" stroke="#ffffff00" stroke-width="1" fill="#ff0000"/>
		</g>
		<g>
			<path d="M 471 15 L 474 33 L 477 15 L 471 15 Z" stroke="#ffffff00" stroke-width="1" fill="#ff0000"/>
			<path d="M 477 15 L 480 33 L 483 15 L 477 15 Z" stroke="#ffffff00" stroke-width="1" fill="#ff0000"/>
			<path d="M 483 15 L 486 33 L 489 15 L 483 15 Z" stroke="#ffffff00" stroke-width="1" fill="#ff0000"/>
			<path d="M 489 15 L 492 33 L 495 15 L 489 15 Z" stroke="#ffffff00" stroke-width="1" fill="#ff0000"/>
		</g>
		<g>
			<path d="M 447 15 L 450 33 L 453 15 L 447 15 Z" stroke="#ffffff00" stroke-width="1" fill="#ff0000"/>
			<path d="M 453 15 L 456 33 L 459 15 L 453 15 Z" stroke="#ffffff00" stroke-width="1" fill="#ff0000"/>
			<path d="M 459 15 L 462 33 L 465 15 L 459 15 Z" stroke="#ffffff00" stroke-width="1" fill="#ff0000"/>
			<path d="M 465 15 L 468 33 L 471 15 L 465 15 Z" stroke="#ffffff00" stroke-width="1" fill="#ff0000"/>
		</g>
		<rect x="211" y="301" width="103" height="30" stroke="#666666" stroke-width="7" fill="none" rx="3.75" ry="3.75"/>
	</g>
</svg>