<?xml version="1.0" standalone="no"?>
<!-- Generator: Adobe Fireworks 10, Export SVG Extension by Aaron Beall (http://fireworks.abeall.com) . Version: 0.6.1  -->
<!DOCTYPE svg PUBLIC "-//W3C//DTD SVG 1.1//EN" "http://www.w3.org/Graphics/SVG/1.1/DTD/svg11.dtd">
<svg id="levels.fw-tight" viewBox="0 0 800 600" style="background-color:#ffffff00" version="1.1"
	xmlns="http://www.w3.org/2000/svg" xmlns:xlink="http://www.w3.org/1999/xlink" xml:space="preserve"
	x="0px" y="0px" width="800px" height="600px"
>
	<g id="Layer%201">
		<path d="M -58 -75 L -58 643 L 850 643 L 850 -75 L -58 -75 ZM 481 562 L 481 506 L 461 506 L 461 562 L 265 562 L 235 512 L 175 512 L 145 562 L 91 562 L 91 405 L 91 391 L 111 371 L 230 371 L 230 341 L 91 341 L 91 51 L 357 51 L 715 255 L 715 314.565 L 564 465 L 556 506 L 556 562 L 481 562 Z" stroke="#ffffff" stroke-width="10" fill="#bbbbbb"/>
		<path d="M -58 -75 L -58 643 L 850 643 L 850 -75 L -58 -75 ZM 481 562 L 481 506 L 461 506 L 461 562 L 265 562 L 235 512 L 175 512 L 145 562 L 91 562 L 91 405 L 91 391 L 111 371 L 230 371 L 230 341 L 91 341 L 91 51 L 357 51 L 715 255 L 715 314.565 L 564 465 L 556 506 L 556 562 L 481 562 Z" stroke="#666666" stroke-width="7" fill="none"/>
		<g>
			<path d="M 117 562 L 120 544 L 123 562 L 117 562 Z" stroke="#ffffff00" stroke-width="1" fill="#ff0000"/>
			<path d="M 123 562 L 126 544 L 129 562 L 123 562 Z" stroke="#ffffff00" stroke-width="1" fill="#ff0000"/>
			<path d="M 129 562 L 132 544 L 135 562 L 129 562 Z" stroke="#ffffff00" stroke-width="1" fill="#ff0000"/>
			<path d="M 135 562 L 138 544 L 141 562 L 135 562 Z" stroke="#ffffff00" stroke-width="1" fill="#ff0000"/>
		</g>
		<g>
			<path d="M 93 562 L 96 544 L 99 562 L 93 562 Z" stroke="#ffffff00" stroke-width="1" fill="#ff0000"/>
			<path d="M 99 562 L 102 544 L 105 562 L 99 562 Z" stroke="#ffffff00" stroke-width="1" fill="#ff0000"/>
			<path d="M 105 562 L 108 544 L 111 562 L 105 562 Z" stroke="#ffffff00" stroke-width="1" fill="#ff0000"/>
			<path d="M 111 562 L 114 544 L 117 562 L 111 562 Z" stroke="#ffffff00" stroke-width="1" fill="#ff0000"/>
		</g>
		<g>
			<path d="M 289 562 L 292 544 L 295 562 L 289 562 Z" stroke="#ffffff00" stroke-width="1" fill="#ff0000"/>
			<path d="M 295 562 L 298 544 L 301 562 L 295 562 Z" stroke="#ffffff00" stroke-width="1" fill="#ff0000"/>
			<path d="M 301 562 L 304 544 L 307 562 L 301 562 Z" stroke="#ffffff00" stroke-width="1" fill="#ff0000"/>
			<path d="M 307 562 L 310 544 L 313 562 L 307 562 Z" stroke="#ffffff00" stroke-width="1" fill="#ff0000"/>
		</g>
		<g>
			<path d="M 265 562 L 268 544 L 271 562 L 265 562 Z" stroke="#ffffff00" stroke-width="1" fill="#ff0000"/>
			<path d="M 271 562 L 274 544 L 277 562 L 271 562 Z" stroke="#ffffff00" stroke-width="1" fill="#ff0000"/>
			<path d="M 277 562 L 280 544 L 283 562 L 277 562 Z" stroke="#ffffff00" stroke-width="1" fill="#ff0000"/>
			<path d="M 283 562 L 286 544 L 289 562 L 283 562 Z" stroke="#ffffff00" stroke-width="1" fill="#ff0000"/>
		</g>
		<g>
			<path d="M 337 562 L 340 544 L 343 562 L 337 562 Z" stroke="#ffffff00" stroke-width="1" fill="#ff0000"/>
			<path d="M 343 562 L 346 544 L 349 562 L 343 562 Z" stroke="#ffffff00" stroke-width="1" fill="#ff0000"/>
			<path d="M 349 562 L 352 544 L 355 562 L 349 562 Z" stroke="#ffffff00" stroke-width="1" fill="#ff0000"/>
			<path d="M 355 562 L 358 544 L 361 562 L 355 562 Z" stroke="#ffffff00" stroke-width="1" fill="#ff0000"/>
		</g>
		<g>
			<path d="M 313 562 L 316 544 L 319 562 L 313 562 Z" stroke="#ffffff00" stroke-width="1" fill="#ff0000"/>
			<path d="M 319 562 L 322 544 L 325 562 L 319 562 Z" stroke="#ffffff00" stroke-width="1" fill="#ff0000"/>
			<path d="M 325 562 L 328 544 L 331 562 L 325 562 Z" stroke="#ffffff00" stroke-width="1" fill="#ff0000"/>
			<path d="M 331 562 L 334 544 L 337 562 L 331 562 Z" stroke="#ffffff00" stroke-width="1" fill="#ff0000"/>
		</g>
		<g>
			<path d="M 385 562 L 388 544 L 391 562 L 385 562 Z" stroke="#ffffff00" stroke-width="1" fill="#ff0000"/>
			<path d="M 391 562 L 394 544 L 397 562 L 391 562 Z" stroke="#ffffff00" stroke-width="1" fill="#ff0000"/>
			<path d="M 397 562 L 400 544 L 403 562 L 397 562 Z" stroke="#ffffff00" stroke-width="1" fill="#ff0000"/>
			<path d="M 403 562 L 406 544 L 409 562 L 403 562 Z" stroke="#ffffff00" stroke-width="1" fill="#ff0000"/>
		</g>
		<g>
			<path d="M 361 562 L 364 544 L 367 562 L 361 562 Z" stroke="#ffffff00" stroke-width="1" fill="#ff0000"/>
			<path d="M 367 562 L 370 544 L 373 562 L 367 562 Z" stroke="#ffffff00" stroke-width="1" fill="#ff0000"/>
			<path d="M 373 562 L 376 544 L 379 562 L 373 562 Z" stroke="#ffffff00" stroke-width="1" fill="#ff0000"/>
			<path d="M 379 562 L 382 544 L 385 562 L 379 562 Z" stroke="#ffffff00" stroke-width="1" fill="#ff0000"/>
		</g>
		<g>
			<path d="M 433 562 L 436 544 L 439 562 L 433 562 Z" stroke="#ffffff00" stroke-width="1" fill="#ff0000"/>
			<path d="M 439 562 L 442 544 L 445 562 L 439 562 Z" stroke="#ffffff00" stroke-width="1" fill="#ff0000"/>
			<path d="M 445 562 L 448 544 L 451 562 L 445 562 Z" stroke="#ffffff00" stroke-width="1" fill="#ff0000"/>
			<path d="M 451 562 L 454 544 L 457 562 L 451 562 Z" stroke="#ffffff00" stroke-width="1" fill="#ff0000"/>
		</g>
		<g>
			<path d="M 409 562 L 412 544 L 415 562 L 409 562 Z" stroke="#ffffff00" stroke-width="1" fill="#ff0000"/>
			<path d="M 415 562 L 418 544 L 421 562 L 415 562 Z" stroke="#ffffff00" stroke-width="1" fill="#ff0000"/>
			<path d="M 421 562 L 424 544 L 427 562 L 421 562 Z" stroke="#ffffff00" stroke-width="1" fill="#ff0000"/>
			<path d="M 427 562 L 430 544 L 433 562 L 427 562 Z" stroke="#ffffff00" stroke-width="1" fill="#ff0000"/>
		</g>
		<path d="M 499 300 " stroke="#ff0000" stroke-width="1" fill="none"/>
		<path d="M 225 152 L 216 169 L 476 309.44 L 476 434 L 499 414 L 499 300 L 225 152 Z" stroke="#ffffff" stroke-width="10" fill="#bbbbbb"/>
		<path d="M 225 152 L 216 169 L 476 309.44 L 476 434 L 499 414 L 499 300 L 225 152 Z" stroke="#666666" stroke-width="7" fill="none"/>
	</g>
</svg>