<?xml version="1.0" standalone="no"?>
<!-- Generator: Adobe Fireworks 10, Export SVG Extension by Aaron Beall (http://fireworks.abeall.com) . Version: 0.6.1  -->
<!DOCTYPE svg PUBLIC "-//W3C//DTD SVG 1.1//EN" "http://www.w3.org/Graphics/SVG/1.1/DTD/svg11.dtd">
<svg id="levels.fw-shots%20well%20planned" viewBox="0 0 800 600" style="background-color:#ffffff00" version="1.1"
	xmlns="http://www.w3.org/2000/svg" xmlns:xlink="http://www.w3.org/1999/xlink" xml:space="preserve"
	x="0px" y="0px" width="800px" height="600px"
>
	<g id="Layer%201">
		<path d="M 484 428 L 484 609 L 505 609 L 505 449 L 484 428 ZM 365 428 L 344 449 L 344 609 L 365 609 L 365 428 Z" stroke="#ffffff00" stroke-width="1" fill="#666666"/>
		<path d="M 115 163 C 115 163 109.5 157.5 90 138 C 70.5 118.5 95 98 95 98 C 95 98 115.5 74.5 135 94 C 154.5 113.5 160 119 160 119 L 115 163 Z" stroke="#ffffff00" stroke-width="1" fill="#666666"/>
		<path d="M 151 274 L 151 345 L 194 388 L 285 388 L 285 361 C 235.3333 383.3333 164.6667 310.6667 151 274 Z" stroke="#ffffff" stroke-width="10" fill="#bbbbbb"/>
		<path d="M 151 274 L 151 345 L 194 388 L 285 388 L 285 361 C 235.3333 383.3333 164.6667 310.6667 151 274 Z" stroke="#666666" stroke-width="7" fill="none"/>
		<path d="M 613 556 L 306 556 L 265 515 L 96 515 L 96 184 L 64 152 C 31.5 119.5 74 78 74 78 C 74 78 116.5 36.5 148 68 L 224 144 L 305 225 L 343.4969 225 L 381.2327 187.3256 C 368.6541 196.1163 346.0126 194.8605 346.0126 194.8605 C 251.673 194.8605 257.9622 106.9535 257.9622 106.9535 C 257.9622 106.9535 259.2201 29.093 348.5283 29.093 C 422.7421 29.093 424 104.4419 424 104.4419 C 424 104.4419 425.2579 29.093 499.4717 29.093 C 588.7798 29.093 590.0377 106.9535 590.0377 106.9535 C 590.0377 106.9535 596.327 194.8605 501.9874 194.8605 C 501.9874 194.8605 479.3459 196.1163 466.7673 187.3256 L 504.5031 225 L 543 225 L 624 144 L 624 143 L 707 143 L 707 415 L 613 415 L 613 556 ZM -32 563 L -32 648 L 917 648 L 917 556 L 854 556 L 854 -26 L 707 -26 L 707 -19 L 624 -19 L 624 -45 L 424 -45 L 224 -45 L 224 -43 L -48 -43 L -48 563 L -32 563 Z" stroke="#ffffff" stroke-width="10" fill="#bbbbbb"/>
		<path d="M 613 556 L 306 556 L 265 515 L 96 515 L 96 184 L 64 152 C 31.5 119.5 74 78 74 78 C 74 78 116.5 36.5 148 68 L 224 144 L 305 225 L 343.4969 225 L 381.2327 187.3256 C 368.6541 196.1163 346.0126 194.8605 346.0126 194.8605 C 251.673 194.8605 257.9622 106.9535 257.9622 106.9535 C 257.9622 106.9535 259.2201 29.093 348.5283 29.093 C 422.7421 29.093 424 104.4419 424 104.4419 C 424 104.4419 425.2579 29.093 499.4717 29.093 C 588.7798 29.093 590.0377 106.9535 590.0377 106.9535 C 590.0377 106.9535 596.327 194.8605 501.9874 194.8605 C 501.9874 194.8605 479.3459 196.1163 466.7673 187.3256 L 504.5031 225 L 543 225 L 624 144 L 624 143 L 707 143 L 707 415 L 613 415 L 613 556 ZM -32 563 L -32 648 L 917 648 L 917 556 L 854 556 L 854 -26 L 707 -26 L 707 -19 L 624 -19 L 624 -45 L 424 -45 L 224 -45 L 224 -43 L -48 -43 L -48 563 L -32 563 Z" stroke="#666666" stroke-width="7" fill="none"/>
		<g>
			<g>
				<path d="M 535 556 L 538 538 L 541 556 L 535 556 Z" stroke="#ffffff00" stroke-width="1" fill="#ff0000"/>
				<path d="M 541 556 L 544 538 L 547 556 L 541 556 Z" stroke="#ffffff00" stroke-width="1" fill="#ff0000"/>
				<path d="M 547 556 L 550 538 L 553 556 L 547 556 Z" stroke="#ffffff00" stroke-width="1" fill="#ff0000"/>
				<path d="M 553 556 L 556 538 L 559 556 L 553 556 Z" stroke="#ffffff00" stroke-width="1" fill="#ff0000"/>
			</g>
			<g>
				<path d="M 511 556 L 514 538 L 517 556 L 511 556 Z" stroke="#ffffff00" stroke-width="1" fill="#ff0000"/>
				<path d="M 517 556 L 520 538 L 523 556 L 517 556 Z" stroke="#ffffff00" stroke-width="1" fill="#ff0000"/>
				<path d="M 523 556 L 526 538 L 529 556 L 523 556 Z" stroke="#ffffff00" stroke-width="1" fill="#ff0000"/>
				<path d="M 529 556 L 532 538 L 535 556 L 529 556 Z" stroke="#ffffff00" stroke-width="1" fill="#ff0000"/>
			</g>
			<g>
				<path d="M 583 556 L 586 538 L 589 556 L 583 556 Z" stroke="#ffffff00" stroke-width="1" fill="#ff0000"/>
				<path d="M 589 556 L 592 538 L 595 556 L 589 556 Z" stroke="#ffffff00" stroke-width="1" fill="#ff0000"/>
				<path d="M 595 556 L 598 538 L 601 556 L 595 556 Z" stroke="#ffffff00" stroke-width="1" fill="#ff0000"/>
				<path d="M 601 556 L 604 538 L 607 556 L 601 556 Z" stroke="#ffffff00" stroke-width="1" fill="#ff0000"/>
			</g>
			<g>
				<path d="M 559 556 L 562 538 L 565 556 L 559 556 Z" stroke="#ffffff00" stroke-width="1" fill="#ff0000"/>
				<path d="M 565 556 L 568 538 L 571 556 L 565 556 Z" stroke="#ffffff00" stroke-width="1" fill="#ff0000"/>
				<path d="M 571 556 L 574 538 L 577 556 L 571 556 Z" stroke="#ffffff00" stroke-width="1" fill="#ff0000"/>
				<path d="M 577 556 L 580 538 L 583 556 L 577 556 Z" stroke="#ffffff00" stroke-width="1" fill="#ff0000"/>
			</g>
		</g>
		<g>
			<g>
				<path d="M 707 315 L 689 312 L 707 309 L 707 315 Z" stroke="#ffffff00" stroke-width="1" fill="#ff0000"/>
				<path d="M 707 309 L 689 306 L 707 303 L 707 309 Z" stroke="#ffffff00" stroke-width="1" fill="#ff0000"/>
				<path d="M 707 303 L 689 300 L 707 297 L 707 303 Z" stroke="#ffffff00" stroke-width="1" fill="#ff0000"/>
				<path d="M 707 297 L 689 294 L 707 291 L 707 297 Z" stroke="#ffffff00" stroke-width="1" fill="#ff0000"/>
			</g>
			<g>
				<path d="M 707 339 L 689 336 L 707 333 L 707 339 Z" stroke="#ffffff00" stroke-width="1" fill="#ff0000"/>
				<path d="M 707 333 L 689 330 L 707 327 L 707 333 Z" stroke="#ffffff00" stroke-width="1" fill="#ff0000"/>
				<path d="M 707 327 L 689 324 L 707 321 L 707 327 Z" stroke="#ffffff00" stroke-width="1" fill="#ff0000"/>
				<path d="M 707 321 L 689 318 L 707 315 L 707 321 Z" stroke="#ffffff00" stroke-width="1" fill="#ff0000"/>
			</g>
			<g>
				<path d="M 707 267 L 689 264 L 707 261 L 707 267 Z" stroke="#ffffff00" stroke-width="1" fill="#ff0000"/>
				<path d="M 707 261 L 689 258 L 707 255 L 707 261 Z" stroke="#ffffff00" stroke-width="1" fill="#ff0000"/>
				<path d="M 707 255 L 689 252 L 707 249 L 707 255 Z" stroke="#ffffff00" stroke-width="1" fill="#ff0000"/>
				<path d="M 707 249 L 689 246 L 707 243 L 707 249 Z" stroke="#ffffff00" stroke-width="1" fill="#ff0000"/>
			</g>
			<g>
				<path d="M 707 291 L 689 288 L 707 285 L 707 291 Z" stroke="#ffffff00" stroke-width="1" fill="#ff0000"/>
				<path d="M 707 285 L 689 282 L 707 279 L 707 285 Z" stroke="#ffffff00" stroke-width="1" fill="#ff0000"/>
				<path d="M 707 279 L 689 276 L 707 273 L 707 279 Z" stroke="#ffffff00" stroke-width="1" fill="#ff0000"/>
				<path d="M 707 273 L 689 270 L 707 267 L 707 273 Z" stroke="#ffffff00" stroke-width="1" fill="#ff0000"/>
			</g>
			<g>
				<path d="M 707 219 L 689 216 L 707 213 L 707 219 Z" stroke="#ffffff00" stroke-width="1" fill="#ff0000"/>
				<path d="M 707 213 L 689 210 L 707 207 L 707 213 Z" stroke="#ffffff00" stroke-width="1" fill="#ff0000"/>
				<path d="M 707 207 L 689 204 L 707 201 L 707 207 Z" stroke="#ffffff00" stroke-width="1" fill="#ff0000"/>
				<path d="M 707 201 L 689 198 L 707 195 L 707 201 Z" stroke="#ffffff00" stroke-width="1" fill="#ff0000"/>
			</g>
			<g>
				<path d="M 707 243 L 689 240 L 707 237 L 707 243 Z" stroke="#ffffff00" stroke-width="1" fill="#ff0000"/>
				<path d="M 707 237 L 689 234 L 707 231 L 707 237 Z" stroke="#ffffff00" stroke-width="1" fill="#ff0000"/>
				<path d="M 707 231 L 689 228 L 707 225 L 707 231 Z" stroke="#ffffff00" stroke-width="1" fill="#ff0000"/>
				<path d="M 707 225 L 689 222 L 707 219 L 707 225 Z" stroke="#ffffff00" stroke-width="1" fill="#ff0000"/>
			</g>
			<g>
				<path d="M 707 171 L 689 168 L 707 165 L 707 171 Z" stroke="#ffffff00" stroke-width="1" fill="#ff0000"/>
				<path d="M 707 165 L 689 162 L 707 159 L 707 165 Z" stroke="#ffffff00" stroke-width="1" fill="#ff0000"/>
				<path d="M 707 159 L 689 156 L 707 153 L 707 159 Z" stroke="#ffffff00" stroke-width="1" fill="#ff0000"/>
				<path d="M 707 153 L 689 150 L 707 147 L 707 153 Z" stroke="#ffffff00" stroke-width="1" fill="#ff0000"/>
			</g>
			<g>
				<path d="M 707 195 L 689 192 L 707 189 L 707 195 Z" stroke="#ffffff00" stroke-width="1" fill="#ff0000"/>
				<path d="M 707 189 L 689 186 L 707 183 L 707 189 Z" stroke="#ffffff00" stroke-width="1" fill="#ff0000"/>
				<path d="M 707 183 L 689 180 L 707 177 L 707 183 Z" stroke="#ffffff00" stroke-width="1" fill="#ff0000"/>
				<path d="M 707 177 L 689 174 L 707 171 L 707 177 Z" stroke="#ffffff00" stroke-width="1" fill="#ff0000"/>
			</g>
		</g>
	</g>
</svg>