<?xml version="1.0" standalone="no"?>
<!-- Generator: Adobe Fireworks 10, Export SVG Extension by Aaron Beall (http://fireworks.abeall.com) . Version: 0.6.1  -->
<!DOCTYPE svg PUBLIC "-//W3C//DTD SVG 1.1//EN" "http://www.w3.org/Graphics/SVG/1.1/DTD/svg11.dtd">
<svg id="levels.fw-rocket%20maze" viewBox="0 0 800 800" style="background-color:#ffffff00" version="1.1"
	xmlns="http://www.w3.org/2000/svg" xmlns:xlink="http://www.w3.org/1999/xlink" xml:space="preserve"
	x="0px" y="0px" width="800px" height="800px"
>
	<g id="Layer%201">
		<path d="M 91 597 L 589 597 L 589 575 L 178 575 L 100 497 L 100 249 L 23 249 L 23 170 L 100 170 L 100 112 L 178 34 L 692 34 L 769 111 L 769 632 L 629 772 L 91 772 L 91 597 ZM -58 -35 L -58 823 L 850 823 L 850 -55 L -58 -35 Z" stroke="#000000" stroke-width="1" fill="none"/>
		<path d="M 278 320 L 492 212 L 487 202 L 273 310 L 278 320 Z" stroke="#000000" stroke-width="1" fill="none"/>
		<path d="M 364 433 L 578 325 L 573 315 L 359 423 L 364 433 Z" stroke="#000000" stroke-width="1" fill="none"/>
		<rect id="box_-hits_2-" x="90" y="170" width="20" height="79" fill="#ff0000"/>
		<path d="M 589 598 L 586 616 L 181 616 L 178 598 " stroke="#ff0000" stroke-width="1" fill="none"/>
		<path d="M 360 422 L 354.625 404.625 L 561.375 300.375 L 572 315 " stroke="#ff0000" stroke-width="1" fill="none"/>
		<path d="M 491.6343 213 L 497 230.4286 L 290.6067 335 L 280 320.3299 " stroke="#ff0000" stroke-width="1" fill="none"/>
		<path d="M 100 253 L 118 256 L 118 490 L 185 557 L 586 557 L 589 575 " stroke="#ff0000" stroke-width="1" fill="none"/>
		<path d="M 100 170 L 118 167 L 118 119 L 185 52 L 685 52 L 751 118 L 751 625 L 622 754 L 301 754 L 298 772 " stroke="#ff0000" stroke-width="1" fill="none"/>
		<rect id="spawn" x="129" y="736" width="24" height="24" fill="#ff8000"/>
		<rect id="door_-key_value-" x="43" y="209" width="28" height="38" stroke="#ffffff00" stroke-width="1" fill="#d93600"/>
		<rect id="key" x="415" y="312" width="18" height="18" fill="#ff8000"/>
		<rect id="key_-id_2-" x="667" y="488" width="18" height="18" fill="#ff8000"/>
		<rect id="key_-id_3-" x="307" y="147" width="18" height="18" fill="#ff8000"/>
	</g>
</svg>