<?xml version="1.0" standalone="no"?>
<!-- Generator: Adobe Fireworks 10, Export SVG Extension by Aaron Beall (http://fireworks.abeall.com) . Version: 0.6.1  -->
<!DOCTYPE svg PUBLIC "-//W3C//DTD SVG 1.1//EN" "http://www.w3.org/Graphics/SVG/1.1/DTD/svg11.dtd">
<svg id="levels.fw-tight" viewBox="0 0 800 640" style="background-color:#ffffff00" version="1.1"
	xmlns="http://www.w3.org/2000/svg" xmlns:xlink="http://www.w3.org/1999/xlink" xml:space="preserve"
	x="0px" y="0px" width="800px" height="640px"
>
	<g id="Layer%201">
		<path d="M 415 699 L 415 792 L 455 792 L 455 699 L 801 699 L 801 644.74 C 806.8995 644.6062 810.3723 644.3723 810 644 C 808.4011 642.4011 809.3566 305.9063 809.805 171 L 850 171 L 850 -20 L 779 -20 L 779 -8 L -72 -8 C -72 -8 -69.4065 -1.082 -66.16 7 L -113 7 L -113 674 L -69 674 L -69 699 L 273 699 L 273 925 L 313 925 L 313 699 L 415 699 ZM 146 628 L 146 585 L 21 585 L 21 32 L 779 32 L 779 116 L 766 116 L 708 116 L 708 628 L 600 628 L 600 260 L 560 260 L 560 628 L 455 628 L 455 396 L 415 396 L 415 628 L 313 628 L 313 529 L 273 529 L 273 628 L 146 628 Z" stroke="#000000" stroke-width="1" fill="none"/>
		<rect id="box_-hits_1_id_2-" x="273" y="489" width="40" height="40" fill="#ff8000"/>
		<rect id="box_-hits_1_id_1-" x="415" y="356" width="40" height="40" fill="#ff8000"/>
		<rect id="box_-hits_1-" x="560" y="220" width="40" height="40" fill="#ff8000"/>
		<rect id="spawn" x="35" y="553" width="24" height="24" fill="#ff8000"/>
		<path d="M 708 628 L 705 610 L 149 610 L 146 628 " stroke="#ff0000" stroke-width="1" fill="none"/>
		<rect id="door_-key_value-" x="89" y="546" width="28" height="38" stroke="#ffffff00" stroke-width="1" fill="#d93600"/>
		<rect id="key_-id_1-" x="284" y="501" width="18" height="18" fill="#ffff00"/>
		<rect id="key_-id_2-" x="426" y="368" width="18" height="18" fill="#ffff00"/>
		<rect id="key_-id_3-" x="571" y="232" width="18" height="18" fill="#ffff00"/>
		<rect id="key_-id_4-" x="735" y="91" width="18" height="18" fill="#ffff00"/>
		<path d="M 96.2344 136.9844 C 95.3906 134.9844 94.2656 133.25 92.8594 131.7813 C 91.4531 130.3125 89.75 129.1563 87.7813 128.2969 C 85.8125 127.4375 83.7031 127 81.4531 127 C 78.9688 127 76.625 127.5156 74.4219 128.5313 C 72.2031 129.5469 70.3281 130.9531 68.7656 132.75 C 67.7031 134.0156 66.8125 135.4844 66.125 137.1563 C 65.4375 138.8281 65.0938 140.3281 65.0938 141.6563 C 65.0938 143.0938 65.5313 144.25 66.4063 145.1406 C 67.2813 146.0469 68.375 146.4844 69.7188 146.4844 C 72.1094 146.4844 73.5781 145.25 74.1406 142.75 C 75.2344 138.25 77.625 136 81.3125 136 C 82.2813 136 83.2031 136.1875 84.0781 136.5469 C 84.9531 136.9219 85.7188 137.4375 86.3906 138.0938 C 87.0469 138.7656 87.5625 139.5313 87.9375 140.4063 C 88.3125 141.2813 88.5 142.2031 88.5 143.1719 C 88.5 147.1719 85.8906 149.5625 80.6719 150.3438 C 78.8438 150.625 77.5313 151.1406 76.7188 151.875 C 75.9063 152.6094 75.5 153.6406 75.5 154.9688 C 75.5 156.4063 76 157.5313 77.0156 158.3594 C 78.0313 159.1875 79.4063 159.5938 81.125 159.5938 C 83.3438 159.5938 85.4375 159.1719 87.4375 158.3281 C 89.4219 157.4844 91.1563 156.3125 92.6406 154.8438 C 94.1094 153.375 95.2969 151.6563 96.1719 149.7031 C 97.0469 147.75 97.5 145.6719 97.5 143.4531 C 97.5 141.1563 97.0781 139 96.2344 136.9844 L 96.2344 136.9844 ZM 85.7344 173.2344 C 86.9063 172.0625 87.5 170.6406 87.5 168.9688 C 87.5 167.3125 86.9063 165.8906 85.7344 164.7344 C 84.5469 163.5781 83.125 163 81.4688 163 C 79.7969 163 78.3906 163.5781 77.2344 164.7344 C 76.0781 165.8906 75.5 167.3125 75.5 168.9688 C 75.5 170.6406 76.0781 172.0625 77.2344 173.2344 C 78.3906 174.4063 79.7969 175 81.4688 175 C 83.125 175 84.5469 174.4063 85.7344 173.2344 L 85.7344 173.2344 Z" stroke="#ff0000" stroke-width="1" fill="none"/>
		<path d="M 64.2189 96.2402 C 63.6982 94.9902 63.0039 93.9063 62.136 92.9883 C 61.2681 92.0703 60.217 91.3477 59.0019 90.8105 C 57.7869 90.2734 56.4851 90 55.0964 90 C 53.5632 90 52.1167 90.3223 50.757 90.957 C 49.3877 91.5918 48.2305 92.4707 47.2662 93.5938 C 46.6104 94.3848 46.0608 95.3027 45.6365 96.3477 C 45.2122 97.3926 45 98.3301 45 99.1602 C 45 100.0586 45.27 100.7813 45.81 101.3379 C 46.35 101.9043 47.0251 102.1777 47.8544 102.1777 C 49.3298 102.1777 50.2363 101.4063 50.5834 99.8438 C 51.2584 97.0313 52.7338 95.625 55.0096 95.625 C 55.6075 95.625 56.1765 95.7422 56.7165 95.9668 C 57.2565 96.2012 57.729 96.5234 58.1437 96.9336 C 58.5487 97.3535 58.8669 97.832 59.0984 98.3789 C 59.3298 98.9258 59.4455 99.502 59.4455 100.1074 C 59.4455 102.6074 57.8351 104.1016 54.6143 104.5898 C 53.486 104.7656 52.676 105.0879 52.1745 105.5469 C 51.6731 106.0059 51.4224 106.6504 51.4224 107.4805 C 51.4224 108.3789 51.731 109.082 52.3578 109.5996 C 52.9846 110.1172 53.8332 110.3711 54.8939 110.3711 C 56.2633 110.3711 57.5554 110.1074 58.7898 109.5801 C 60.0145 109.0527 61.0849 108.3203 62.001 107.4023 C 62.9074 106.4844 63.6403 105.4102 64.1803 104.1895 C 64.7204 102.9688 65 101.6699 65 100.2832 C 65 98.8477 64.7396 97.5 64.2189 96.2402 L 64.2189 96.2402 ZM 57.7387 118.8965 C 58.4619 118.1641 58.8284 117.2754 58.8284 116.2305 C 58.8284 115.1953 58.4619 114.3066 57.7387 113.584 C 57.0058 112.8613 56.1283 112.5 55.1061 112.5 C 54.0743 112.5 53.2064 112.8613 52.4928 113.584 C 51.7792 114.3066 51.4224 115.1953 51.4224 116.2305 C 51.4224 117.2754 51.7792 118.1641 52.4928 118.8965 C 53.2064 119.6289 54.0743 120 55.1061 120 C 56.1283 120 57.0058 119.6289 57.7387 118.8965 L 57.7387 118.8965 Z" stroke="#ff0000" stroke-width="1" fill="none"/>
		<path d="M 39.8954 66.3086 C 40.4214 66.6785 40.9868 66.9385 41.5915 67.0887 C 42.1963 67.2389 42.8379 67.2652 43.51 67.1763 C 44.1821 67.0873 44.8317 66.8713 45.4566 66.5241 C 46.1466 66.1408 46.7223 65.6503 47.186 65.0564 C 47.6541 64.4602 47.9698 63.8193 48.1417 63.129 C 48.2522 62.6487 48.2854 62.1441 48.2325 61.62 C 48.1796 61.096 48.0563 60.668 47.8626 60.3359 C 47.653 59.9766 47.3629 59.755 46.99 59.6674 C 46.6148 59.5758 46.2472 59.6352 45.8741 59.8425 C 45.2101 60.2114 44.9822 60.7466 45.1906 61.4584 C 45.5431 62.7521 45.2073 63.6835 44.1832 64.2524 C 43.9141 64.4019 43.6307 64.4972 43.3353 64.5424 C 43.0376 64.5837 42.7498 64.5729 42.4675 64.5125 C 42.1873 64.4458 41.9324 64.3339 41.7007 64.173 C 41.4689 64.0121 41.2824 63.8106 41.1411 63.5684 C 40.5578 62.5684 40.9338 61.5681 42.2693 60.5676 C 42.736 60.2153 43.0253 59.8838 43.1439 59.5749 C 43.2624 59.2659 43.2248 58.9454 43.0312 58.6134 C 42.8215 58.254 42.5186 58.0499 42.1158 57.9996 C 41.7129 57.9493 41.2718 58.0599 40.7945 58.325 C 40.1783 58.6674 39.6583 59.0959 39.2259 59.6154 C 38.7979 60.1325 38.4871 60.6931 38.289 61.2893 C 38.0953 61.8831 38.0162 62.496 38.058 63.1193 C 38.0998 63.7426 38.277 64.332 38.6006 64.8867 C 38.9355 65.4609 39.3672 65.9349 39.8954 66.3086 L 39.8954 66.3086 ZM 37.5251 55.6261 C 37.3705 56.0999 37.413 56.5469 37.6568 56.9649 C 37.8983 57.379 38.2706 57.6428 38.7647 57.7511 C 39.2631 57.8569 39.7423 57.7821 40.2023 57.5265 C 40.6666 57.2686 40.9728 56.9071 41.1253 56.4396 C 41.2778 55.9721 41.231 55.5275 40.9895 55.1134 C 40.7457 54.6954 40.3778 54.4292 39.8857 54.3146 C 39.3937 54.2 38.9166 54.2686 38.4523 54.5265 C 37.9923 54.7821 37.684 55.1499 37.5251 55.6261 L 37.5251 55.6261 Z" stroke="#ff0000" stroke-width="1" fill="none"/>
		<path d="M 183.9083 52.2383 C 183.4865 51.457 182.9629 50.8038 182.3376 50.2786 C 181.7123 49.7534 180.9809 49.3767 180.1553 49.1402 C 179.3297 48.9036 178.4653 48.8515 177.5627 48.9904 C 176.5661 49.1437 175.6473 49.5032 174.8058 50.0623 C 173.9581 50.6224 173.2645 51.3241 172.7126 52.1692 C 172.3391 52.7621 172.043 53.4291 171.8369 54.1681 C 171.6308 54.9072 171.5553 55.5534 171.6107 56.1068 C 171.6706 56.7057 171.8943 57.1605 172.2824 57.4776 C 172.6712 57.8012 173.1281 57.916 173.6672 57.833 C 174.6262 57.6855 175.164 57.0805 175.2855 56.0042 C 175.5367 54.0617 176.402 52.9766 177.8813 52.749 C 178.2699 52.6892 178.6475 52.7105 179.0135 52.8062 C 179.3801 52.9085 179.7088 53.0761 180.0056 53.308 C 180.2969 53.5475 180.5356 53.8347 180.7225 54.1761 C 180.9094 54.5175 181.0231 54.8901 181.0634 55.2937 C 181.2301 56.9604 180.2829 58.1175 178.2219 58.7651 C 177.5003 58.9951 176.9953 59.291 176.6999 59.6471 C 176.4046 60.0033 176.2846 60.458 176.3399 61.0114 C 176.3998 61.6104 176.6473 62.0483 177.0892 62.3306 C 177.5311 62.613 178.0996 62.6974 178.7891 62.5913 C 179.6792 62.4544 180.5015 62.1494 181.2687 61.6744 C 182.0296 61.2004 182.6765 60.6051 183.2108 59.9015 C 183.7388 59.1988 184.1435 58.4094 184.4132 57.5416 C 184.6828 56.6738 184.778 55.7799 184.6855 54.8555 C 184.5898 53.8984 184.3307 53.026 183.9083 52.2383 L 183.9083 52.2383 ZM 181.2066 67.9905 C 181.6279 67.4298 181.8068 66.8008 181.7371 66.1041 C 181.6681 65.414 181.3707 64.8582 180.8524 64.4488 C 180.3279 64.0403 179.7334 63.8872 179.069 63.9894 C 178.3983 64.0926 177.8582 64.4202 177.4426 64.9734 C 177.0269 65.5265 176.8542 66.1546 176.9232 66.8447 C 176.9929 67.5414 177.2841 68.0981 177.7967 68.515 C 178.3094 68.932 178.8983 69.0926 179.569 68.9894 C 180.2334 68.8872 180.779 68.552 181.2066 67.9905 L 181.2066 67.9905 Z" stroke="#ff0000" stroke-width="1" fill="none"/>
		<path d="M 99.7853 62.5925 C 98.5443 61.2231 97.147 60.1531 95.5947 59.3849 C 94.0398 58.6154 92.3327 58.1934 90.4962 58.0971 C 88.6599 58.0009 86.8344 58.2945 85.0272 58.9896 C 83.036 59.7554 81.3155 60.8965 79.8618 62.3969 C 78.4016 63.896 77.3367 65.5994 76.6404 67.5139 C 76.182 68.8452 75.9212 70.2821 75.8814 71.8142 C 75.8418 73.3403 76.0198 74.6238 76.4146 75.6672 C 76.8408 76.7935 77.5237 77.5691 78.4682 78.0083 C 79.4165 78.4592 80.3975 78.4808 81.4466 78.0881 C 83.3161 77.3884 84.1099 75.9904 83.8269 73.8577 C 83.378 69.9652 84.6138 67.4492 87.5452 66.3359 C 88.317 66.0428 89.1061 65.9146 89.9077 65.939 C 90.7138 65.976 91.4728 66.1592 92.1968 66.4839 C 92.9123 66.8257 93.5415 67.2849 94.0887 67.8737 C 94.6351 68.4617 95.0445 69.1426 95.3169 69.916 C 96.4361 73.0937 95.0348 75.751 91.1382 77.8963 C 89.7812 78.6505 88.8978 79.4352 88.4697 80.2425 C 88.0425 81.0481 88.0177 81.9639 88.3937 82.9893 C 88.7996 84.096 89.5057 84.8166 90.5289 85.1605 C 91.5514 85.5042 92.7361 85.4215 94.0774 84.9284 C 95.8118 84.2908 97.3361 83.3629 98.6756 82.1333 C 100.0075 80.904 101.0572 79.4879 101.8322 77.9074 C 102.5982 76.3248 103.0755 74.6216 103.2418 72.8179 C 103.4088 71.0058 103.2041 69.212 102.5958 67.434 C 101.9633 65.5851 101.0268 63.9702 99.7853 62.5925 L 99.7853 62.5925 ZM 101.3699 93.9749 C 101.9673 92.7655 102.0499 91.5262 101.603 90.2615 C 101.1589 89.0045 100.3126 88.0912 99.0848 87.5436 C 97.8434 86.9997 96.5757 86.9641 95.2845 87.4365 C 93.983 87.9128 93.0497 88.7524 92.4722 89.9575 C 91.8966 91.1586 91.8427 92.3934 92.2993 93.6383 C 92.7587 94.8908 93.593 95.7922 94.8024 96.3448 C 96.0103 96.8968 97.2536 96.9487 98.5425 96.4847 C 99.8213 96.0243 100.7623 95.1847 101.3699 93.9749 L 101.3699 93.9749 Z" stroke="#ff0000" stroke-width="1" fill="none"/>
		<path d="M 171.4721 101.1319 C 170.8525 97.6945 169.6963 94.5679 168.0034 91.7523 C 166.3104 88.9366 164.0396 86.4993 161.2456 84.4275 C 158.4516 82.3557 155.2869 80.891 151.7459 80.0579 C 147.8361 79.1379 143.9649 79.0757 140.138 79.8468 C 136.2865 80.6121 132.8376 82.115 129.7422 84.3441 C 127.6219 85.9282 125.7 87.8933 124.0259 90.251 C 122.3519 92.6087 121.2796 94.8252 120.8092 96.9004 C 120.3001 99.1465 120.5791 101.1151 121.6408 102.8307 C 122.6969 104.5708 124.2632 105.6594 126.378 106.157 C 130.1403 107.0422 132.8889 105.6574 134.6596 101.9594 C 137.9746 95.3332 142.5338 92.7028 148.3371 94.0683 C 149.8617 94.427 151.2461 95.0613 152.4959 95.9469 C 153.7401 96.8568 154.7624 97.946 155.5874 99.2202 C 156.3822 100.513 156.9225 101.9002 157.2028 103.4063 C 157.483 104.9123 157.4516 106.4222 157.1085 107.9359 C 155.6919 114.1859 150.7386 116.955 142.2488 116.2432 C 139.2722 116.0057 137.024 116.3253 135.4852 117.1719 C 133.9464 118.0185 132.9418 119.4794 132.4715 121.5546 C 131.9623 123.8007 132.3508 125.7437 133.6559 127.4137 C 134.9609 129.0837 136.981 130.2276 139.6859 130.8641 C 143.1777 131.6857 146.6222 131.8018 150.0686 131.2241 C 153.4903 130.6405 156.6349 129.4517 159.4911 127.7064 C 162.3228 125.9554 164.8004 123.7096 166.8691 120.9818 C 168.9379 118.2541 170.387 115.1748 171.1729 111.708 C 171.9863 108.1191 172.0861 104.5938 171.4721 101.1319 L 171.4721 101.1319 ZM 142.1089 153.8844 C 144.3682 152.4873 145.8062 150.4855 146.3984 147.8732 C 146.985 145.2853 146.5541 142.8438 145.1194 140.6032 C 143.66 138.3568 141.627 136.927 139.0205 136.3136 C 136.3893 135.6945 133.9715 136.0771 131.7423 137.4556 C 129.5131 138.8341 128.0997 140.8417 127.5131 143.4296 C 126.921 146.0419 127.3272 148.4777 128.7319 150.7369 C 130.1365 152.9961 132.1393 154.4445 134.7705 155.0636 C 137.377 155.677 139.825 155.2757 142.1089 153.8844 L 142.1089 153.8844 Z" stroke="#ff0000" stroke-width="1" fill="none"/>
	</g>
</svg>