<?xml version="1.0" standalone="no"?>
<!-- Generator: Adobe Fireworks 10, Export SVG Extension by Aaron Beall (http://fireworks.abeall.com) . Version: 0.6.1  -->
<!DOCTYPE svg PUBLIC "-//W3C//DTD SVG 1.1//EN" "http://www.w3.org/Graphics/SVG/1.1/DTD/svg11.dtd">
<svg id="Untitled-Page%201" viewBox="0 0 32 32" style="background-color:#ffffff00" version="1.1"
	xmlns="http://www.w3.org/2000/svg" xmlns:xlink="http://www.w3.org/1999/xlink" xml:space="preserve"
	x="0px" y="0px" width="32px" height="32px"
>
	<g id="Layer%201">
		<path id="Ellipse" d="M 0 16 C 0 7.1633 7.1633 0 16 0 C 24.8367 0 32 7.1633 32 16 C 32 24.8367 24.8367 32 16 32 C 7.1633 32 0 24.8367 0 16 Z" fill="#ff4000"/>
		<g>
			<path d="M 14 20 L 14 12.2969 L 15.375 12.2969 C 16.0625 12.2969 16.6875 12.3906 17.25 12.5781 C 17.8125 12.7656 18.3125 13.0313 18.7188 13.3594 C 19.125 13.7031 19.4375 14.1094 19.6563 14.5781 C 19.875 15.0469 20 15.5781 20 16.1406 C 20 16.8281 19.8281 17.4531 19.5156 18.0156 C 19.2031 18.5938 18.7656 19.0625 18.2188 19.4063 C 17.8438 19.625 17.4531 19.7813 17.0313 19.875 C 16.5938 19.9688 16.0313 20 15.3438 20 L 14 20 L 14 20 ZM 11 20.8594 L 11 21.2188 C 11 22.375 11.5938 22.9688 12.7969 23 L 13.1563 23 L 15.7656 23 C 17.375 23 18.7031 22.6875 19.75 22.0469 C 20.25 21.7344 20.6875 21.375 21.0938 20.9688 C 21.5 20.5625 21.8438 20.1094 22.125 19.6094 C 22.4063 19.125 22.625 18.6094 22.7813 18.0469 C 22.9219 17.5 23 16.9375 23 16.3594 C 23 15.3281 22.7656 14.3438 22.3125 13.4219 C 21.8438 12.5156 21.2031 11.7188 20.375 11.0469 C 19.75 10.5469 19.0781 10.2031 18.375 9.9844 C 17.6563 9.7656 16.7969 9.6563 15.7656 9.6563 L 13.1563 9.6563 L 12.7969 9.6563 C 11.625 9.6563 11.0313 10.25 11 11.4375 L 11 11.7969 L 11 20.8594 L 11 20.8594 Z" fill="#ffffff"/>
		</g>
	</g>
</svg>