<?xml version="1.0" standalone="no"?>
<!-- Generator: Adobe Fireworks 10, Export SVG Extension by Aaron Beall (http://fireworks.abeall.com) . Version: 0.6.1  -->
<!DOCTYPE svg PUBLIC "-//W3C//DTD SVG 1.1//EN" "http://www.w3.org/Graphics/SVG/1.1/DTD/svg11.dtd">
<svg id="Untitled-Page%201" viewBox="0 0 77 32" style="background-color:#ffffff00" version="1.1"
	xmlns="http://www.w3.org/2000/svg" xmlns:xlink="http://www.w3.org/1999/xlink" xml:space="preserve"
	x="0px" y="0px" width="77px" height="32px"
>
	<g id="Layer%201">
		<rect x="0" y="0" width="77" height="32" fill="#ff4000" rx="16" ry="16"/>
		<g>
			<path d="M 16.4611 15.807 L 14.315 10.1158 C 14.0206 9.3744 13.548 9 12.8894 9 C 12.5485 9 12.2463 9.1123 11.9906 9.3295 C 11.7272 9.5467 11.5568 9.8462 11.4638 10.2281 L 9.1395 19.7385 L 9.062 20.0455 C 9.031 20.1204 9.0155 20.2103 9.0077 20.3001 C 9 20.3975 9 20.4873 9 20.5622 C 9 20.9741 9.1395 21.3185 9.4261 21.5881 C 9.705 21.8652 10.0614 22 10.4876 22 C 11.2779 22 11.7892 21.5732 12.0139 20.712 L 12.0991 20.405 L 13.3465 15.2903 L 15.0898 20.7719 C 15.3532 21.5956 15.8103 22 16.4766 22 C 16.771 22 17.0267 21.9176 17.2592 21.7529 C 17.4916 21.5881 17.662 21.3485 17.7705 21.0415 L 17.8712 20.7719 L 19.6377 15.2903 L 20.9239 20.405 L 21.0013 20.7344 C 21.1098 21.1463 21.2958 21.4608 21.5592 21.678 C 21.8226 21.8952 22.1403 22 22.5277 22 C 22.9383 22 23.2869 21.8652 23.5814 21.5881 C 23.868 21.3185 24.0152 20.9891 24.0152 20.5997 C 24.0152 20.4124 23.992 20.2177 23.961 20.023 L 23.8758 19.716 L 21.4817 10.288 C 21.3732 9.8836 21.1873 9.5616 20.9316 9.337 C 20.6682 9.1123 20.3583 9 19.9941 9 C 19.6455 9 19.3588 9.1048 19.1264 9.307 C 18.8939 9.5167 18.6925 9.8387 18.522 10.288 L 16.4611 15.807 L 16.4611 15.807 Z" fill="#ffffff"/>
			<path d="M 26.1304 9.4793 C 25.8205 9.7563 25.6655 10.1083 25.6655 10.5276 C 25.6655 10.7224 25.7042 10.9021 25.7895 11.0668 C 25.8747 11.2391 25.9909 11.3888 26.1381 11.5161 C 26.2776 11.6434 26.448 11.7483 26.6417 11.8232 C 26.8354 11.898 27.0369 11.9355 27.2538 11.9355 C 27.7032 11.9355 28.0828 11.7932 28.3927 11.5086 C 28.7026 11.2241 28.8576 10.8871 28.8576 10.4902 C 28.8576 10.0933 28.7026 9.7563 28.4005 9.4793 C 28.0906 9.2022 27.7264 9.0599 27.2925 9.0599 C 26.8277 9.0599 26.4403 9.2022 26.1304 9.4793 L 26.1304 9.4793 ZM 28.7181 14.3692 L 28.7181 14.0847 C 28.7181 13.6653 28.6019 13.3209 28.3695 13.0588 C 28.1371 12.7967 27.8426 12.6619 27.4707 12.6619 C 27.1066 12.6619 26.8122 12.7967 26.5875 13.0513 C 26.3628 13.3059 26.2466 13.6503 26.2388 14.0847 L 26.2388 14.3692 L 26.2388 20.2926 L 26.2388 20.5772 C 26.2388 21.004 26.3473 21.3485 26.5798 21.6106 C 26.8122 21.8727 27.1143 22 27.4862 22 C 27.8426 22 28.1371 21.8727 28.3617 21.6181 C 28.5864 21.3635 28.7026 21.019 28.7181 20.5772 L 28.7181 20.2926 L 28.7181 14.3692 L 28.7181 14.3692 Z" fill="#ffffff"/>
			<path d="M 32.7392 13.1262 C 32.1194 13.3358 31.6236 13.6578 31.2517 14.0922 C 30.8798 14.5265 30.7016 14.9983 30.7016 15.5075 C 30.7016 15.9568 30.841 16.3687 31.1277 16.7581 C 31.4066 17.1475 31.7863 17.4395 32.2589 17.6417 C 32.5533 17.769 32.9407 17.8963 33.4133 18.0311 C 33.8782 18.1659 34.3198 18.2707 34.7227 18.3531 C 35.3425 18.4729 35.6602 18.6826 35.6602 18.9672 C 35.6602 19.1544 35.5749 19.3041 35.4045 19.424 C 35.234 19.5438 35.0171 19.6037 34.7537 19.6037 C 34.6142 19.6037 34.498 19.5962 34.3895 19.5737 C 34.2811 19.5588 34.1726 19.5213 34.0641 19.4614 C 33.9557 19.4015 33.8317 19.3266 33.6922 19.2218 C 33.5528 19.1169 33.3823 18.9821 33.1809 18.8174 C 32.9174 18.6077 32.6773 18.443 32.4603 18.3306 C 32.2434 18.2258 32.0187 18.1659 31.794 18.1659 C 31.4609 18.1659 31.1742 18.3007 30.9418 18.5628 C 30.7016 18.8249 30.5854 19.1244 30.5854 19.4689 C 30.5854 19.8059 30.6938 20.1279 30.9108 20.4274 C 31.1277 20.727 31.4221 20.9965 31.794 21.2287 C 32.1659 21.4608 32.5843 21.648 33.0647 21.7903 C 33.5373 21.9326 34.0331 22 34.5522 22 C 35.1101 22 35.6059 21.9326 36.0398 21.7903 C 36.4737 21.6555 36.8533 21.4533 37.1632 21.1987 C 37.4732 20.9441 37.7133 20.6371 37.8838 20.2776 C 38.0542 19.9257 38.1395 19.5363 38.1395 19.102 C 38.1395 18.6601 38.0232 18.2632 37.8063 17.9038 C 37.5894 17.5518 37.2795 17.2748 36.8843 17.0726 C 36.6751 16.9827 36.4582 16.8929 36.2258 16.818 C 35.9933 16.7431 35.6524 16.6532 35.2185 16.5484 C 34.6297 16.4136 34.2191 16.2863 34.0021 16.1665 C 33.7852 16.0467 33.6767 15.8894 33.6767 15.6947 C 33.6767 15.5899 33.7232 15.5 33.8162 15.4176 C 33.9092 15.3353 34.0254 15.2903 34.1726 15.2903 C 34.312 15.2903 34.4515 15.3203 34.591 15.3802 C 34.7227 15.4401 34.9474 15.5524 35.265 15.7247 C 35.513 15.8744 35.7221 15.9718 35.8926 16.0317 C 36.0553 16.0916 36.2258 16.1141 36.3962 16.1141 C 36.7061 16.1141 36.985 16.0017 37.2252 15.7696 C 37.4654 15.5374 37.5894 15.2604 37.5894 14.9384 C 37.5894 14.6688 37.4964 14.4067 37.3259 14.1596 C 37.1555 13.9124 36.9231 13.6953 36.6441 13.5081 C 36.3575 13.3209 36.0243 13.1711 35.6369 13.0588 C 35.2495 12.9539 34.8544 12.894 34.436 12.894 C 33.8007 12.894 33.2351 12.9764 32.7392 13.1262 L 32.7392 13.1262 Z" fill="#ffffff"/>
			<path d="M 41.6647 13.1262 C 41.0449 13.3358 40.549 13.6578 40.1771 14.0922 C 39.8052 14.5265 39.627 14.9983 39.627 15.5075 C 39.627 15.9568 39.7665 16.3687 40.0532 16.7581 C 40.3321 17.1475 40.7117 17.4395 41.1843 17.6417 C 41.4788 17.769 41.8661 17.8963 42.3388 18.0311 C 42.8036 18.1659 43.2453 18.2707 43.6481 18.3531 C 44.268 18.4729 44.5856 18.6826 44.5856 18.9672 C 44.5856 19.1544 44.5004 19.3041 44.3299 19.424 C 44.1595 19.5438 43.9426 19.6037 43.6791 19.6037 C 43.5397 19.6037 43.4235 19.5962 43.315 19.5737 C 43.2065 19.5588 43.098 19.5213 42.9896 19.4614 C 42.8811 19.4015 42.7571 19.3266 42.6177 19.2218 C 42.4782 19.1169 42.3078 18.9821 42.1063 18.8174 C 41.8429 18.6077 41.6027 18.443 41.3858 18.3306 C 41.1688 18.2258 40.9442 18.1659 40.7195 18.1659 C 40.3863 18.1659 40.0997 18.3007 39.8672 18.5628 C 39.627 18.8249 39.5108 19.1244 39.5108 19.4689 C 39.5108 19.8059 39.6193 20.1279 39.8362 20.4274 C 40.0532 20.727 40.3476 20.9965 40.7195 21.2287 C 41.0914 21.4608 41.5098 21.648 41.9901 21.7903 C 42.4627 21.9326 42.9586 22 43.4777 22 C 44.0355 22 44.5314 21.9326 44.9653 21.7903 C 45.3991 21.6555 45.7788 21.4533 46.0887 21.1987 C 46.3986 20.9441 46.6388 20.6371 46.8092 20.2776 C 46.9797 19.9257 47.0649 19.5363 47.0649 19.102 C 47.0649 18.6601 46.9487 18.2632 46.7318 17.9038 C 46.5148 17.5518 46.2049 17.2748 45.8098 17.0726 C 45.6006 16.9827 45.3837 16.8929 45.1512 16.818 C 44.9188 16.7431 44.5779 16.6532 44.144 16.5484 C 43.5552 16.4136 43.1445 16.2863 42.9276 16.1665 C 42.7107 16.0467 42.6022 15.8894 42.6022 15.6947 C 42.6022 15.5899 42.6487 15.5 42.7417 15.4176 C 42.8346 15.3353 42.9508 15.2903 43.098 15.2903 C 43.2375 15.2903 43.377 15.3203 43.5164 15.3802 C 43.6481 15.4401 43.8728 15.5524 44.1905 15.7247 C 44.4384 15.8744 44.6476 15.9718 44.8181 16.0317 C 44.9808 16.0916 45.1512 16.1141 45.3217 16.1141 C 45.6316 16.1141 45.9105 16.0017 46.1507 15.7696 C 46.3909 15.5374 46.5148 15.2604 46.5148 14.9384 C 46.5148 14.6688 46.4219 14.4067 46.2514 14.1596 C 46.081 13.9124 45.8485 13.6953 45.5696 13.5081 C 45.2829 13.3209 44.9498 13.1711 44.5624 13.0588 C 44.175 12.9539 43.7799 12.894 43.3615 12.894 C 42.7262 12.894 42.1606 12.9764 41.6647 13.1262 L 41.6647 13.1262 Z" fill="#ffffff"/>
			<path d="M 48.9399 9.4793 C 48.63 9.7563 48.475 10.1083 48.475 10.5276 C 48.475 10.7224 48.5138 10.9021 48.599 11.0668 C 48.6842 11.2391 48.8004 11.3888 48.9476 11.5161 C 49.0871 11.6434 49.2575 11.7483 49.4512 11.8232 C 49.6449 11.898 49.8464 11.9355 50.0633 11.9355 C 50.5127 11.9355 50.8923 11.7932 51.2022 11.5086 C 51.5122 11.2241 51.6671 10.8871 51.6671 10.4902 C 51.6671 10.0933 51.5122 9.7563 51.21 9.4793 C 50.9001 9.2022 50.5359 9.0599 50.1021 9.0599 C 49.6372 9.0599 49.2498 9.2022 48.9399 9.4793 L 48.9399 9.4793 ZM 51.5276 14.3692 L 51.5276 14.0847 C 51.5276 13.6653 51.4114 13.3209 51.179 13.0588 C 50.9466 12.7967 50.6522 12.6619 50.2803 12.6619 C 49.9161 12.6619 49.6217 12.7967 49.397 13.0513 C 49.1723 13.3059 49.0561 13.6503 49.0484 14.0847 L 49.0484 14.3692 L 49.0484 20.2926 L 49.0484 20.5772 C 49.0484 21.004 49.1568 21.3485 49.3893 21.6106 C 49.6217 21.8727 49.9239 22 50.2958 22 C 50.6522 22 50.9466 21.8727 51.1713 21.6181 C 51.3959 21.3635 51.5122 21.019 51.5276 20.5772 L 51.5276 20.2926 L 51.5276 14.3692 L 51.5276 14.3692 Z" fill="#ffffff"/>
			<path d="M 54.0069 20.2926 L 54.0069 20.5772 C 54.0069 21.004 54.1154 21.3485 54.3478 21.6106 C 54.5803 21.8727 54.8824 22 55.2543 22 C 55.6495 22 55.9594 21.8652 56.1763 21.5956 C 56.3933 21.326 56.5017 20.9516 56.4862 20.4649 L 56.4862 20.2926 L 56.4862 10.6699 L 56.4862 10.4977 C 56.4862 10.0783 56.37 9.7339 56.1453 9.4718 C 55.9207 9.2097 55.6262 9.0749 55.2543 9.0749 C 54.8824 9.0749 54.5803 9.2097 54.3556 9.4643 C 54.1309 9.7189 54.0147 10.0634 54.0069 10.4977 L 54.0069 10.7823 L 54.0069 20.2926 L 54.0069 20.2926 Z" fill="#ffffff"/>
			<path d="M 64.1023 15.807 L 60.732 17.1624 C 60.7785 16.6382 61.011 16.1889 61.4293 15.8295 C 61.8477 15.47 62.3436 15.2903 62.9324 15.2903 C 63.4748 15.2903 63.8621 15.4626 64.1023 15.807 L 64.1023 15.807 ZM 61.5068 18.6526 L 65.9076 16.9378 C 66.3027 16.773 66.5816 16.6083 66.7521 16.4361 C 66.9148 16.2713 67 16.0541 67 15.7995 C 67 15.4176 66.8838 15.0507 66.6514 14.6987 C 66.4189 14.3543 66.109 14.0397 65.7294 13.7702 C 65.342 13.5006 64.9003 13.2909 64.3967 13.1336 C 63.8931 12.9764 63.3818 12.894 62.8549 12.894 C 62.1886 12.894 61.5688 13.0138 60.9877 13.2535 C 60.3989 13.4931 59.8875 13.8226 59.4459 14.2344 C 59.0043 14.6463 58.6556 15.1256 58.3999 15.6722 C 58.1365 16.2264 58.0126 16.803 58.0126 17.4171 C 58.0126 18.0386 58.1443 18.6227 58.4077 19.1768 C 58.6711 19.731 59.0353 20.2177 59.4846 20.6371 C 59.934 21.0565 60.4531 21.3859 61.0497 21.6331 C 61.6385 21.8802 62.2661 22 62.9324 22 C 63.405 22 63.8776 21.9326 64.358 21.7828 C 64.8306 21.6331 65.2567 21.4234 65.6286 21.1388 C 65.9695 20.8917 66.2252 20.6446 66.3802 20.3975 C 66.5351 20.1578 66.6204 19.8882 66.6204 19.5887 C 66.6204 19.2068 66.4886 18.8923 66.2407 18.6452 C 65.9928 18.4055 65.6751 18.2782 65.2955 18.2782 C 65.1405 18.2782 65.0088 18.3007 64.8849 18.3456 C 64.7609 18.3906 64.6137 18.4729 64.4587 18.5853 C 64.1953 18.78 63.9396 18.9222 63.6917 19.0046 C 63.4438 19.087 63.1958 19.1244 62.9324 19.1244 C 62.3901 19.1244 61.9097 18.9672 61.5068 18.6526 L 61.5068 18.6526 Z" fill="#ffffff"/>
		</g>
	</g>
</svg>