<?xml version="1.0" standalone="no"?>
<!-- Generator: Adobe Fireworks 10, Export SVG Extension by Aaron Beall (http://fireworks.abeall.com) . Version: 0.6.1  -->
<!DOCTYPE svg PUBLIC "-//W3C//DTD SVG 1.1//EN" "http://www.w3.org/Graphics/SVG/1.1/DTD/svg11.dtd">
<svg id="Untitled-Page%201" viewBox="0 0 32 32" style="background-color:#ffffff00" version="1.1"
	xmlns="http://www.w3.org/2000/svg" xmlns:xlink="http://www.w3.org/1999/xlink" xml:space="preserve"
	x="0px" y="0px" width="32px" height="32px"
>
	<g id="Layer%201">
		<path id="Ellipse" d="M 0 16 C 0 7.1633 7.1633 0 16 0 C 24.8367 0 32 7.1633 32 16 C 32 24.8367 24.8367 32 16 32 C 7.1633 32 0 24.8367 0 16 Z" fill="#202020"/>
		<g>
			<path d="M 17.375 18 L 14.1875 18 L 15.7656 14.1563 L 17.375 18 L 17.375 18 ZM 18.4375 21 L 18.9063 21.8438 L 19.0469 22.1094 C 19.3594 22.7031 19.8594 23 20.5469 23 C 20.9531 23 21.2969 22.8594 21.6094 22.5781 C 21.9219 22.2969 22.0781 21.9531 22.0781 21.5469 C 22.0781 21.3594 22.0469 21.2031 22.0156 21.0469 C 21.9688 20.9063 21.875 20.6719 21.7344 20.3438 L 17.2031 10.4844 C 17.0625 10.1719 16.8594 9.9375 16.6094 9.7813 C 16.3438 9.625 16.0469 9.5469 15.7344 9.5469 C 15.0469 9.5469 14.5625 9.8594 14.2813 10.4844 L 9.8594 20.375 L 9.7188 20.6875 C 9.5625 21 9.5 21.2969 9.5 21.5469 C 9.5 21.9531 9.6406 22.2969 9.9531 22.5781 C 10.2656 22.8594 10.625 23 11.0469 23 C 11.7031 23 12.2031 22.7031 12.5469 22.0781 L 12.6563 21.8281 L 13.0781 21 L 18.4375 21 L 18.4375 21 Z" fill="#ffffff"/>
		</g>
	</g>
</svg>