<?xml version="1.0" standalone="no"?>
<!-- Generator: Adobe Fireworks 10, Export SVG Extension by Aaron Beall (http://fireworks.abeall.com) . Version: 0.6.1  -->
<!DOCTYPE svg PUBLIC "-//W3C//DTD SVG 1.1//EN" "http://www.w3.org/Graphics/SVG/1.1/DTD/svg11.dtd">
<svg id="Untitled-Page%201" viewBox="0 0 32 32" style="background-color:#ffffff00" version="1.1"
	xmlns="http://www.w3.org/2000/svg" xmlns:xlink="http://www.w3.org/1999/xlink" xml:space="preserve"
	x="0px" y="0px" width="32px" height="32px"
>
	<g id="Layer%201">
		<path id="Ellipse" d="M 0 16 C 0 7.1633 7.1633 0 16 0 C 24.8367 0 32 7.1633 32 16 C 32 24.8367 24.8367 32 16 32 C 7.1633 32 0 24.8367 0 16 Z" fill="#202020"/>
		<g>
			<path d="M 19.8438 17.2656 L 17.4844 10.3438 C 17.3594 10.0625 17.1719 9.8438 16.9219 9.6719 C 16.6719 9.5156 16.3594 9.4219 16.0156 9.4219 C 15.6406 9.4219 15.3125 9.5313 15.0469 9.7188 C 14.7656 9.9063 14.5781 10.1719 14.4844 10.4844 L 12.2344 17.2656 L 10.3125 10.9844 C 10.1406 10.4219 9.9375 10.0156 9.7031 9.7813 C 9.4688 9.5625 9.1406 9.4375 8.7344 9.4375 C 8.3281 9.4375 7.9688 9.5938 7.6719 9.875 C 7.375 10.1563 7.2344 10.5 7.2344 10.875 C 7.2344 11 7.2344 11.1094 7.25 11.2344 C 7.2656 11.3594 7.2969 11.4688 7.3438 11.5781 L 7.4375 11.9063 L 10.6875 21.7969 C 10.8281 22.2344 11.0156 22.5313 11.2344 22.7188 C 11.4531 22.9063 11.75 23 12.1406 23 C 12.4844 23 12.7813 22.9063 13.0469 22.7188 C 13.2969 22.5313 13.4844 22.2813 13.5938 21.9375 L 16.0469 14.9219 L 18.5156 21.9375 C 18.6406 22.2813 18.8281 22.5313 19.0781 22.7188 C 19.3281 22.9063 19.6094 23 19.9531 23 C 20.6563 23 21.1406 22.6094 21.4219 21.7969 L 24.5938 11.8438 L 24.7031 11.5156 C 24.7656 11.3125 24.8125 11.0938 24.8125 10.8438 C 24.8125 10.4375 24.6563 10.0781 24.3594 9.7969 C 24.0625 9.5156 23.7031 9.3594 23.2813 9.3594 C 22.8438 9.3594 22.5156 9.4844 22.2813 9.7188 C 22.0313 9.9688 21.8438 10.375 21.6875 10.9375 L 19.8438 17.2656 L 19.8438 17.2656 Z" fill="#ffffff"/>
		</g>
	</g>
</svg>