<?xml version="1.0" standalone="no"?>
<!-- Generator: Adobe Fireworks 10, Export SVG Extension by Aaron Beall (http://fireworks.abeall.com) . Version: 0.6.1  -->
<!DOCTYPE svg PUBLIC "-//W3C//DTD SVG 1.1//EN" "http://www.w3.org/Graphics/SVG/1.1/DTD/svg11.dtd">
<svg id="Untitled-Page%201" viewBox="0 0 30 30" style="background-color:#ffffff00" version="1.1"
	xmlns="http://www.w3.org/2000/svg" xmlns:xlink="http://www.w3.org/1999/xlink" xml:space="preserve"
	x="0px" y="0px" width="30px" height="30px"
>
	<g id="Layer%201">
		<path d="M 25 30 L 28 30 C 29.1046 30 30 29.1046 30 28 L 30 10.5 L 29 11 L 27 9.6667 L 27 25 C 27 25.9568 26.3277 26.7581 25.43 26.955 L 27 28 L 25 30 ZM 0 21 L 0 28 C 0 29.1046 0.8954 30 2 30 L 21 30 L 24 28 L 23 27 L 7 27 L 23.445 10.555 L 23 10.6667 L 23.8 10.2 L 27 7 L 27 8.3333 L 29 9 L 30 8.5 L 30 2 C 30 0.8954 29.1046 0 28 0 L 16.5 0 L 15 1 L 17 3 L 23 3 L 3 23 L 3 16 L 0 21 ZM 2 0 C 0.8954 0 0 0.8954 0 2 L 0 15 L 2 12 L 3 13.335 L 3 5 C 3 3.8954 3.8954 3 5 3 L 15 3 L 12 1 L 13 0 L 2 0 ZM 9 26 L 22 26 L 25 22 L 24 26 C 25.1046 26 26 25.1046 26 24 L 26 9.915 L 24.78 10.22 L 9 26 ZM 6 4 C 4.8954 4 4 4.8954 4 6 L 4 12.5 L 5 11 L 7 12 L 5 12 L 4.075 14.77 L 5 16 L 8 16 L 5 18 L 4 17 L 4 21 L 21 4 L 16.25 4 L 14 7 L 14.75 4 L 6 4 Z" fill="#694838"/>
	</g>
</svg>