<?xml version="1.0" standalone="no"?>
<!-- Generator: Adobe Fireworks 10, Export SVG Extension by Aaron Beall (http://fireworks.abeall.com) . Version: 0.6.1  -->
<!DOCTYPE svg PUBLIC "-//W3C//DTD SVG 1.1//EN" "http://www.w3.org/Graphics/SVG/1.1/DTD/svg11.dtd">
<svg id="Untitled-Page%201" viewBox="0 0 30 30" style="background-color:#ffffff00" version="1.1"
	xmlns="http://www.w3.org/2000/svg" xmlns:xlink="http://www.w3.org/1999/xlink" xml:space="preserve"
	x="0px" y="0px" width="30px" height="30px"
>
	<g id="Layer%201">
		<path d="M 27 7 L 27 25 C 27 26.1046 26.1046 27 25 27 L 7 27 L 27 7 ZM 5 3 L 23 3 L 3 23 L 3 5 C 3 3.8954 3.8954 3 5 3 ZM 2 0 C 0.8954 0 0 0.8954 0 2 L 0 28 C 0 29.1046 0.8954 30 2 30 L 28 30 C 29.1046 30 30 29.1046 30 28 L 30 2 C 30 0.8954 29.1046 0 28 0 L 2 0 ZM 9 26 L 24 26 C 25.1046 26 26 25.1046 26 24 L 26 9 L 9 26 ZM 6 4 C 4.8954 4 4 4.8954 4 6 L 4 21 L 21 4 L 6 4 Z" fill="#5b3b30"/>
	</g>
</svg>