<?xml version="1.0" standalone="no"?>
<!-- Generator: Adobe Fireworks 10, Export SVG Extension by Aaron Beall (http://fireworks.abeall.com) . Version: 0.6.1  -->
<!DOCTYPE svg PUBLIC "-//W3C//DTD SVG 1.1//EN" "http://www.w3.org/Graphics/SVG/1.1/DTD/svg11.dtd">
<svg id="Untitled-Page%201" viewBox="0 0 30 30" style="background-color:#ffffff00" version="1.1"
	xmlns="http://www.w3.org/2000/svg" xmlns:xlink="http://www.w3.org/1999/xlink" xml:space="preserve"
	x="0px" y="0px" width="30px" height="30px"
>
	<g id="Layer%201">
		<path d="M 28 5 L 27 7 L 27 9.665 L 28 10 L 30 9 L 30 2 C 30 0.8954 29.1046 0 28 0 L 23 0 L 27 2 L 25.35 3.235 L 28 5 ZM 22.8 11.2 L 27 7 L 27 5 L 24.23 4.075 L 22 5 L 19 7 L 8 18 L 3 23 L 3 18 L 0 23 L 0 28 C 0 29.1046 0.8954 30 2 30 L 4 30 L 7 28 L 5 26 L 12 22 L 22.445 11.555 L 22 11.6667 L 22.8 11.2 ZM 18 0 L 13 0 L 10 2 L 11 3 L 22 3 L 24 2 L 18 0 ZM 30 18 L 30 11 L 28 12 L 27 11.335 L 27 16.535 L 27.5 16 L 30 18 ZM 24 30 L 28 30 C 29.1046 30 30 29.1046 30 28 L 30 22 L 27.5 20 L 27 20.265 L 27 25 C 27 26.1046 26.1046 27 25 27 L 24.5 27 L 26 28 L 24 30 ZM 10 30 L 20 30 L 23 28 L 22 27 L 11 27 L 13 28 L 10 30 ZM 0 3.23 L 0 17 L 2 14 L 3 15.335 L 3 5.52 L 1.7358 5.2642 L 0.9118 3.4412 L 0 3.23 ZM 2 0 C 1.1324 0 0.392 0.5527 0.115 1.325 L 0.25 1.125 L 2.5 1.5 L 2.7755 4.2245 L 3.095 4.395 C 3.3517 3.5868 4.1067 3 5 3 L 8.5 3 L 7 2 L 9 0 L 2 0 ZM 26 9.3333 L 26 9 L 25.2 9.8 L 26 9.3333 ZM 9 26 L 21 26 L 24 22 L 23 26 L 24 26 C 25.1046 26 26 25.1046 26 24 L 26 20.8 L 25 21.3333 L 20 16.6667 L 25 18.6667 L 26 17.6 L 26 10.6667 L 23.78 11.22 L 9 26 ZM 4 19 L 4 21 L 5 20 L 4 19 ZM 6 4 C 5.2543 4 4.6039 4.41 4.26 5.015 L 6.6087 6.2609 L 4.02 5.73 C 4.0081 5.8179 4 5.9087 4 6 L 4 14.5 L 5 13 L 7 14 L 5 14 L 4.075 16.77 L 5 18 L 7 18 L 19.5 5.5 L 20 4 L 12 4 L 9 8 L 10 4 L 6 4 Z" fill="#89664a"/>
	</g>
</svg>