<?xml version="1.0" standalone="no"?>
<!-- Generator: Adobe Fireworks 10, Export SVG Extension by Aaron Beall (http://fireworks.abeall.com) . Version: 0.6.1  -->
<!DOCTYPE svg PUBLIC "-//W3C//DTD SVG 1.1//EN" "http://www.w3.org/Graphics/SVG/1.1/DTD/svg11.dtd">
<svg id="Untitled-Page%201" viewBox="0 0 30 30" style="background-color:#ffffff00" version="1.1"
	xmlns="http://www.w3.org/2000/svg" xmlns:xlink="http://www.w3.org/1999/xlink" xml:space="preserve"
	x="0px" y="0px" width="30px" height="30px"
>
	<g id="Layer%201">
		<path d="M 29.9004 25.5257 L 30 25.575 L 30 19 L 27.5 17 L 27 17.21 L 27 22.51 L 29.4264 23.6453 L 29.9004 25.5257 ZM 28 30 C 29.0687 30 29.9394 29.1598 29.995 28.105 L 27.9619 27.1833 L 28.2947 24.3371 L 27 23.19 L 27 25 C 27 26.1046 26.1046 27 25 27 L 24.5 27 L 26 28 L 24 30 L 28 30 ZM 17 0 L 13 0 L 10 2 L 10.5 3 L 21 3 L 23 2 L 17 0 ZM 30 15 L 30 10 L 28 11 L 27 10.335 L 27 13.335 L 27.5 13 L 30 15 ZM 10 30 L 20 30 L 23 28 L 21.75 27 L 13 27 L 10 30 ZM 0 23 L 0 28 C 0 29.1046 0.8954 30 2 30 L 4 30 L 9 27 L 7 27 L 8 26 L 6 24 L 14.8 19.2 L 18.525 15.475 L 16 12.6667 L 19.2 14.8 L 23.775 10.225 L 22 10.6667 L 25.2 8.8 L 27 7 L 27 8.665 L 28 9 L 30 8 L 30 2 C 30 0.8954 29.1046 0 28 0 L 22 0 L 26 2 L 24.35 3.235 L 27 5 L 26 7 L 26 5 L 23.23 4.075 L 21 5 L 18 11 L 18.5 7.5 L 12.235 13.765 L 13.125 14 L 12 14 L 8.57 17.43 L 9.375 18 L 10 19.75 L 7.32 18.68 L 3 23 L 3 20.335 L 0 23 ZM 0 3.23 L 0 17 L 3 14.6 L 3 5.52 L 1.7358 5.2642 L 0.9118 3.4412 L 0 3.23 ZM 2 0 C 1.1324 0 0.392 0.5527 0.115 1.325 L 0.25 1.125 L 2.5 1.5 L 2.7755 4.2245 L 3.095 4.395 C 3.3517 3.5868 4.1067 3 5 3 L 7.75 3 L 7 2 L 9 0 L 2 0 ZM 26 14 L 26 9.6667 L 25.11 9.89 L 19.8 15.2 L 22 16.6667 L 26 14 ZM 12.335 26 L 20.5 26 L 18 24 L 21 20 L 20 24 L 23 26 L 24 26 C 25.1046 26 26 25.1046 26 24 L 26 22.305 L 25.3754 21.7498 L 26 22.04 L 26 17.635 L 22 19.3333 L 19 16 L 17 18 L 11 24 L 12.335 26 ZM 7.985 17.015 L 11 14 L 9.375 14 L 7.6406 16.77 L 7.985 17.015 ZM 4 19.445 L 4 21 L 6.605 18.395 L 5.625 18 L 4 19.445 ZM 6 4 C 5.2543 4 4.6039 4.41 4.26 5.015 L 6.6087 6.2609 L 4.02 5.73 C 4.0081 5.8179 4 5.9087 4 6 L 4 14.18 L 6.0656 15.65 L 9.375 13 L 11.445 13.555 L 18.665 6.335 L 19 4 L 11 4 L 12 6 L 9 11 L 10 6 L 8.5 4 L 6 4 Z" fill="#a57f59"/>
	</g>
</svg>