<?xml version="1.0" standalone="no"?>
<!-- Generator: Adobe Fireworks 10, Export SVG Extension by Aaron Beall (http://fireworks.abeall.com) . Version: 0.6.1  -->
<!DOCTYPE svg PUBLIC "-//W3C//DTD SVG 1.1//EN" "http://www.w3.org/Graphics/SVG/1.1/DTD/svg11.dtd">
<svg id="Untitled-Page%201" viewBox="0 0 28 38" style="background-color:#ffffff00" version="1.1"
	xmlns="http://www.w3.org/2000/svg" xmlns:xlink="http://www.w3.org/1999/xlink" xml:space="preserve"
	x="0px" y="0px" width="28px" height="38px"
>
	<g id="Layer%201">
		<path d="M 14.565 38 L 25 38 L 25 14 C 25 14 25.0025 3.3785 14.565 3.01 L 14.565 38 ZM 3 38 L 13.565 38 L 13.565 3.005 C 3.0025 3.2927 3 14 3 14 L 3 38 ZM 0 38 L 2 38 L 2 14 C 2 14 2 2 14 2 C 26 2 26 14 26 14 L 26 38 L 28 38 L 28 14 C 28 14 27.75 0 14 0 C 0.25 0 0 14 0 14 L 0 38 Z" stroke="#ffffff00" stroke-width="1" fill="#555555"/>
		<path d="M 11 23 L 12 23 C 12 23 12.0625 21 14 21 C 15.9375 21 16 23 16 23 L 17 23 C 17 23 17.125 20 14 20 C 10.875 20 11 23 11 23 ZM 14.0156 24.7344 C 14.0156 24.7344 15.0156 24.7969 15.0156 25.7344 C 15.0156 26.1444 14.8259 26.3861 14.6106 26.5294 L 15.0156 28.1563 L 13.0156 28.1563 L 13.4156 26.5544 C 13.2027 26.4153 13.0156 26.1679 13.0156 25.7344 C 13.0156 24.7344 14.0156 24.7344 14.0156 24.7344 ZM 11 24 L 11 28 C 11 28 10.9375 29 12 29 L 16 29 C 16 29 17 29.0625 17 28 L 17 24 L 11 24 Z" stroke="#ffffff" stroke-width="2" fill="none"/>
		<path d="M 14.0156 24.7344 C 14.0156 24.7344 15.0156 24.7969 15.0156 25.7344 C 15.0156 26.1444 14.8259 26.3861 14.6106 26.5294 L 15.0156 28.1563 L 13.0156 28.1563 L 13.4156 26.5544 C 13.2027 26.4153 13.0156 26.1679 13.0156 25.7344 C 13.0156 24.7344 14.0156 24.7344 14.0156 24.7344 ZM 11 24 L 11 28 C 11 28 10.9375 29 12 29 L 16 29 C 16 29 17 29.0625 17 28 L 17 24 L 11 24 Z" stroke="#ffffff00" stroke-width="1" fill="#000000"/>
		<path d="M 11 23 C 11 23 10.875 20 14 20 C 17.125 20 17 23 17 23 L 16 23 C 16 23 15.9375 21 14 21 C 12.0625 21 12 23 12 23 L 11 23 Z" stroke="#ffffff00" stroke-width="1" fill="#000000"/>
	</g>
</svg>