<?xml version="1.0" standalone="no"?>
<!-- Generator: Adobe Fireworks 10, Export SVG Extension by Aaron Beall (http://fireworks.abeall.com) . Version: 0.6.1  -->
<!DOCTYPE svg PUBLIC "-//W3C//DTD SVG 1.1//EN" "http://www.w3.org/Graphics/SVG/1.1/DTD/svg11.dtd">
<svg id="Untitled-Page%201" viewBox="0 0 28 38" style="background-color:#ffffff00" version="1.1"
	xmlns="http://www.w3.org/2000/svg" xmlns:xlink="http://www.w3.org/1999/xlink" xml:space="preserve"
	x="0px" y="0px" width="28px" height="38px"
>
	<g id="Layer%201">
		<path d="M 3 38 L 25 38 L 25 14 C 25 14 25 3 14 3 C 3 3 3 14 3 14 L 3 38 Z" stroke="#ffffff00" stroke-width="1" fill="#ffd24d"/>
		<path d="M 0 38 L 2 38 L 2 14 C 2 14 2 2 14 2 C 26 2 26 14 26 14 L 26 38 L 28 38 L 28 14 C 28 14 27.75 0 14 0 C 0.25 0 0 14 0 14 L 0 38 Z" stroke="#ffffff00" stroke-width="1" fill="#d93600"/>
	</g>
</svg>