<?xml version="1.0" standalone="no"?>
<!-- Generator: Adobe Fireworks 10, Export SVG Extension by Aaron Beall (http://fireworks.abeall.com) . Version: 0.6.1  -->
<!DOCTYPE svg PUBLIC "-//W3C//DTD SVG 1.1//EN" "http://www.w3.org/Graphics/SVG/1.1/DTD/svg11.dtd">
<svg id="Untitled-Page%201" viewBox="0 0 18 18" style="background-color:#ffffff00" version="1.1"
	xmlns="http://www.w3.org/2000/svg" xmlns:xlink="http://www.w3.org/1999/xlink" xml:space="preserve"
	x="0px" y="0px" width="18px" height="18px"
>
	<g id="Layer%201">
		<path d="M 2 6 C 2 3.7908 3.7908 2 6 2 C 8.2092 2 10 3.7908 10 6 C 10 6.8492 9.7363 7.6374 9.285 8.285 L 16 15 L 16 16 L 8.83 8.83 C 8.1059 9.5536 7.1046 10 6 10 C 3.7908 10 2 8.2092 2 6 ZM 0 6 C 0 9.3138 2.6862 12 6 12 C 6.8804 12 7.7168 11.8106 8.47 11.47 L 8.8125 11.8125 L 9.9375 12.9375 L 10.75 13.75 L 11 15 L 11 17 L 14 17 L 15 18 L 18 18 L 18 15 L 11.47 8.47 C 11.8106 7.7167 12 6.8804 12 6 C 12 2.6862 9.3138 0 6 0 C 2.6862 0 0 2.6862 0 6 ZM 6 9 C 6.8284 9 7.5771 8.6629 8.12 8.12 L 8 8 L 8.235 8 C 8.7109 7.4692 9 6.769 9 6 C 9 4.3431 7.6569 3 6 3 C 4.3431 3 3 4.3431 3 6 C 3 7.6569 4.3431 9 6 9 Z" fill="#ff8000"/>
	</g>
</svg>