<?xml version="1.0" standalone="no"?>
<!-- Generator: Adobe Fireworks 10, Export SVG Extension by Aaron Beall (http://fireworks.abeall.com) . Version: 0.6.1  -->
<!DOCTYPE svg PUBLIC "-//W3C//DTD SVG 1.1//EN" "http://www.w3.org/Graphics/SVG/1.1/DTD/svg11.dtd">
<svg id="Untitled-Page%201" viewBox="0 0 15 8" style="background-color:#ffffff00" version="1.1"
	xmlns="http://www.w3.org/2000/svg" xmlns:xlink="http://www.w3.org/1999/xlink" xml:space="preserve"
	x="0px" y="0px" width="15px" height="8px"
>
	<g id="Layer%201">
		<path d="M 11.275 6.92 C 14.8472 6.4451 15 4 15 4 C 15 4 14.8965 1.5439 11.27 1.075 C 11.5661 1.265 12 1.9034 12 4 C 12 6.0878 11.571 6.727 11.275 6.92 ZM 4.85 5.79 C 5.6882 6.3494 7.2531 7 10 7 L 10.065 7 C 10.2889 6.9751 11 6.6842 11 4 C 11 1.3158 10.2889 1.0249 10.065 1 L 10 1 C 7.2366 1 5.6766 1.6433 4.845 2.2 C 4.9372 2.6294 5 3.211 5 4 C 5 4.7819 4.9408 5.3617 4.85 5.79 ZM 0 0 L 0 8 L 3.765 6.12 C 3.9011 5.6744 4 5.0032 4 4 C 4 2.9968 3.9011 2.3256 3.765 1.88 L 0 0 Z" fill="#000000"/>
	</g>
</svg>