<?xml version="1.0" standalone="no"?>
<!-- Generator: Adobe Fireworks 10, Export SVG Extension by Aaron Beall (http://fireworks.abeall.com) . Version: 0.6.1  -->
<!DOCTYPE svg PUBLIC "-//W3C//DTD SVG 1.1//EN" "http://www.w3.org/Graphics/SVG/1.1/DTD/svg11.dtd">
<svg id="Untitled-Page%201" viewBox="0 0 33 28" style="background-color:#ffffff00" version="1.1"
	xmlns="http://www.w3.org/2000/svg" xmlns:xlink="http://www.w3.org/1999/xlink" xml:space="preserve"
	x="0px" y="0px" width="33px" height="28px"
>
	<g id="Layer%201">
		<path d="M 25.4081 11.1928 C 26.5325 9.5421 27.698 9.4762 29.128 10.2626 C 30.5534 11.0465 29.1513 12.4797 31.0552 12.8072 C 32.9586 13.1348 31.3835 14.871 30.6344 15.1466 C 29.8869 15.4216 24.835 14.7138 24.835 14.7138 C 24.835 14.7138 24.2951 12.8268 25.4081 11.1928 Z" fill="#ff8000"/>
		<path d="M 26.26 9.9531 C 25.5971 7.8021 22.7243 6.4531 22.7243 6.4531 C 22.7243 6.4531 23.7556 7.9844 23.9029 9.9531 " stroke="#ffffff00" stroke-width="1" fill="none"/>
		<path d="M 13.8037 17.6979 C 13.1713 18.9905 10.0596 20.3478 9.5768 21.1443 C 9.038 22.0333 8.7659 22.8498 8.5707 24.2645 C 8.3973 25.5208 12.9643 26.1042 11.6384 23.3333 C 10.5115 20.9783 11.3531 22.5624 11.5893 21.5833 C 11.7974 20.7209 21.993 21.7325 18.2616 17.5 " stroke="#ffffff00" stroke-width="1" fill="#d93600"/>
		<path id="Ellipse" d="M 27.6498 11.9576 C 27.7052 11.631 28.0125 11.3852 28.3361 11.4091 C 28.6597 11.433 28.8762 11.7176 28.8197 12.0442 C 28.7633 12.3702 28.4561 12.6146 28.1336 12.5907 C 27.8111 12.5668 27.5945 12.2836 27.6498 11.9576 Z" stroke="#ffffff00" stroke-width="1" fill="#ffffff"/>
		<path d="M 25.0247 13.5481 C 24.8993 14.0928 22.3431 14.968 20.206 14.3684 C 18.0654 13.7678 14.97 12.9111 12.1275 13.7655 C 9.3057 14.6138 8.1873 17.4174 5.9999 16.7865 C 3.8087 16.1546 3.4829 15.1206 0.3191 16.3583 C 0.3191 16.3583 1.6265 18.7354 5.7542 19.0486 C 9.8894 19.3624 11.3635 14.9498 11.9823 14.9234 C 11.9823 14.9234 11.2577 16.6794 11.411 19.4779 C 11.5619 22.2321 11.411 19.4779 11.411 19.4779 C 11.411 19.4779 24.254 21.374 25.4203 18.2505 C 26.6091 15.0666 26.989 15.2051 28.3128 14.9733 C 28.3128 14.9733 25.1505 13.0017 25.0247 13.5481 Z" stroke="#ffffff00" stroke-width="1" fill="#ff8000"/>
		<path d="M 4.8907 16.7746 C 4.8907 16.7746 3.4865 15.0847 0.3191 16.3583 C 0.3191 16.3583 1.8869 18.6136 4.7174 18.7575 L 5.8767 17.9213 L 4.8907 16.7746 Z" stroke="#ffffff00" stroke-width="1" fill="#ffffff"/>
		<path d="M 15.0268 20.0521 C 18.1584 19.7917 23.8454 20.3503 26.9566 16.0446 C 26.9566 16.0446 26.391 15.9292 23.127 18.0776 C 19.9118 20.1939 13.7866 18.6757 15.0268 20.0521 Z" fill="#ffffff"/>
		<path d="M 23.5714 18.6667 C 25.8549 20.7083 29.0223 21.8507 30.6429 21.7778 C 32.2634 21.7049 32.779 21.3403 30.6429 20.6111 C 28.5067 19.8819 26.3705 19.4688 24.75 18.6667 C 23.1295 17.8646 21.2879 16.625 23.5714 18.6667 Z" stroke="#ffffff00" stroke-width="1" fill="#d93600"/>
		<path d="M 25.2158 12.3745 C 24.7649 11.9683 22.4405 10.2979 23.4408 8.6324 C 23.4408 8.6324 26.1521 10.722 27.0193 10.8611 " stroke="#ffffff00" stroke-width="1" fill="#ff8000"/>
		<path d="M 27.153 14.8868 C 27.8121 13.6073 29.2981 14.3836 30.844 13.9809 C 32.3956 13.5768 32.6978 14.3409 30.8844 14.5756 C 29.0763 14.8095 28.6408 14.777 27.153 14.8868 Z" fill="#ffffff"/>
		<path d="M 31.0848 13.9271 C 31.3058 13.1979 32.1897 13.0521 32.2634 13.9271 C 32.3371 14.8021 30.8638 14.6563 31.0848 13.9271 Z" fill="#000000"/>
		<path d="M 11.2089 16.5449 C 10.7939 17.8604 6.0172 20.109 5.7567 20.7537 C 5.4812 21.4355 7.6595 21.4459 7.7551 20.6518 C 7.8439 19.9141 20.3618 21.8632 16.3036 17.3056 " stroke="#ffffff00" stroke-width="1" fill="#ff8000"/>
		<path d="M 22.0627 18.0177 C 22.3185 19.9933 28.5186 23.8014 30.6275 22.7576 C 32.8392 21.6629 30.7558 20.9403 30.0341 21.1326 C 29.3269 21.321 24.4743 19.6855 23.5714 16.9167 " stroke="#ffffff00" stroke-width="1" fill="#ff8000"/>
		<path d="M 8.8549 18.8895 C 7.6121 19.6875 5.9352 20.3118 5.7567 20.7537 C 5.4812 21.4355 3.5046 23.7195 4.5587 24.3012 C 5.6883 24.9246 8.25 26.25 6.9241 23.7708 C 5.8291 21.7234 7.6595 21.4459 7.7551 20.6518 C 7.7978 20.2971 9.6552 20.4876 11.6445 20.3611 L 10.7724 20.0963 L 10.6915 19.2322 L 9.6897 18.7412 C 9.6897 18.7412 9.3517 18.794 8.8549 18.8895 Z" stroke="#ffffff00" stroke-width="1" fill="#d93600"/>
		<path d="M 24.2504 20.9816 C 26.1689 22.3299 29.2631 23.4329 30.6275 22.7576 C 32.8392 21.6629 30.7558 20.9403 30.0341 21.1326 C 29.6104 21.2455 27.7595 20.9791 26.193 20.1205 L 25.8639 20.5745 L 24.8218 20.4609 L 24.2504 20.9816 Z" stroke="#ffffff00" stroke-width="1" fill="#d93600"/>
	</g>
</svg>