<?xml version="1.0" standalone="no"?>
<!-- Generator: Adobe Fireworks 10, Export SVG Extension by Aaron Beall (http://fireworks.abeall.com) . Version: 0.6.1  -->
<!DOCTYPE svg PUBLIC "-//W3C//DTD SVG 1.1//EN" "http://www.w3.org/Graphics/SVG/1.1/DTD/svg11.dtd">
<svg id="Untitled-Page%201" viewBox="0 0 33 28" style="background-color:#ffffff00" version="1.1"
	xmlns="http://www.w3.org/2000/svg" xmlns:xlink="http://www.w3.org/1999/xlink" xml:space="preserve"
	x="0px" y="0px" width="33px" height="28px"
>
	<g id="Layer%201">
		<path d="M 25.4081 12.1928 C 26.5325 10.5421 27.698 10.4762 29.128 11.2626 C 30.5534 12.0465 29.1513 13.4797 31.0552 13.8072 C 32.9586 14.1348 31.3835 15.871 30.6344 16.1466 C 29.8869 16.4216 24.835 15.7138 24.835 15.7138 C 24.835 15.7138 24.2951 13.8268 25.4081 12.1928 Z" fill="#ff8000"/>
		<path d="M 14.1429 18.5 C 14.0692 20.6146 12.0067 23.6042 12.0067 24.5521 C 12.0067 25.5 12.2537 26.2135 13.4063 26.5938 C 14.5112 26.9583 17.4576 26.5938 15.3951 25.7188 C 13.3326 24.8438 13.9701 25.1455 13.9955 24.1146 C 14.0692 21.125 20.6987 23.3125 18.2679 18.1354 " stroke="#ffffff00" stroke-width="1" fill="#d93600"/>
		<path id="Ellipse" d="M 27.6498 12.9576 C 27.7052 12.631 28.0125 12.3852 28.3361 12.4091 C 28.6597 12.433 28.8762 12.7176 28.8197 13.0442 C 28.7633 13.3702 28.4561 13.6146 28.1336 13.5907 C 27.8111 13.5668 27.5945 13.2836 27.6498 12.9576 Z" stroke="#ffffff00" stroke-width="1" fill="#ffffff"/>
		<path d="M 25.0247 14.5481 C 24.8993 15.0928 22.3431 15.968 20.206 15.3684 C 18.0654 14.7678 14.97 13.9111 12.1275 14.7655 C 9.3057 15.6138 8.1873 18.4174 5.9999 17.7865 C 3.8087 17.1546 3.4829 16.1206 0.3191 17.3583 C 0.3191 17.3583 1.6265 19.7354 5.7542 20.0486 C 9.8894 20.3624 11.3635 15.9498 11.9823 15.9234 C 11.9823 15.9234 11.2577 17.6794 11.411 20.4779 C 11.5619 23.2321 11.411 20.4779 11.411 20.4779 C 11.411 20.4779 24.254 22.374 25.4203 19.2505 C 26.6091 16.0666 26.989 16.2051 28.3128 15.9733 C 28.3128 15.9733 25.1505 14.0017 25.0247 14.5481 Z" stroke="#ffffff00" stroke-width="1" fill="#ff8000"/>
		<path d="M 4.8907 17.7746 C 4.8907 17.7746 3.4865 16.0847 0.3191 17.3583 C 0.3191 17.3583 1.8869 19.6136 4.7174 19.7575 L 5.8767 18.9213 L 4.8907 17.7746 Z" stroke="#ffffff00" stroke-width="1" fill="#ffffff"/>
		<path d="M 15.0268 21.0521 C 18.1584 20.7917 23.8454 21.3503 26.9566 17.0446 C 26.9566 17.0446 26.391 16.9292 23.127 19.0776 C 19.9118 21.1939 13.7866 19.6757 15.0268 21.0521 Z" fill="#ffffff"/>
		<path d="M 22.9606 19.8956 C 24.9975 22.338 24.8424 26.5351 26.5179 26.4479 C 28.1933 26.3607 28.7779 25.9246 26.6941 25.0523 C 24.6103 24.18 25.7143 20.8551 24.1711 19.8956 C 22.6278 18.9361 20.9237 17.4533 22.9606 19.8956 Z" stroke="#ffffff00" stroke-width="1" fill="#d93600"/>
		<path d="M 25.2158 13.3745 C 24.7649 12.9683 22.4405 11.2979 23.4408 9.6324 C 23.4408 9.6324 26.1521 11.722 27.0193 11.8611 " stroke="#ffffff00" stroke-width="1" fill="#ff8000"/>
		<path d="M 27.153 15.8868 C 27.8121 14.6073 29.2981 15.3836 30.844 14.9809 C 32.3956 14.5768 32.6978 15.3409 30.8844 15.5756 C 29.0763 15.8095 28.6408 15.777 27.153 15.8868 Z" fill="#ffffff"/>
		<path d="M 31.0848 14.9271 C 31.3058 14.1979 32.1897 14.0521 32.2634 14.9271 C 32.3371 15.8021 30.8638 15.6563 31.0848 14.9271 Z" fill="#000000"/>
		<path d="M 10.678 18.8901 C 11.1731 21.1526 8.2733 23.259 8.5295 24.2732 C 8.7856 25.2875 9.7782 27.2991 11.0742 27.706 C 12.3166 28.0961 15.0766 27.5499 12.7049 26.6137 C 10.3331 25.6775 10.8987 24.8974 10.4703 23.8051 C 10.0419 22.7129 18.7657 24.0392 14.8501 18.5 " stroke="#ffffff00" stroke-width="1" fill="#ff8000"/>
		<path d="M 21.2938 18.7617 C 20.1221 21.3785 23.3821 27.8333 25.7349 27.8333 C 28.0878 27.8333 27.0821 25.9581 26.3766 26.0016 C 23.8661 26.1563 22.4445 22.4252 23.634 18.5 " stroke="#ffffff00" stroke-width="1" fill="#ff8000"/>
		<path d="M 10.323 20.9872 C 9.6379 22.391 8.7133 23.9665 8.8873 24.6556 C 9.1434 25.6698 9.7782 27.2991 11.0742 27.706 C 12.3166 28.0961 15.0766 27.5499 12.7049 26.6137 C 10.3331 25.6775 11.2565 25.2797 10.8281 24.1875 C 10.626 23.6723 12.1013 23.3105 13.6849 22.897 L 12.8439 22.6349 L 12.2999 21.3866 L 11.0549 20.6845 C 11.0549 20.6845 10.7564 20.7938 10.323 20.9872 Z" stroke="#ffffff00" stroke-width="1" fill="#d93600"/>
		<path d="M 21.4979 22.5822 C 22.3444 25.1779 24.2254 27.8333 25.7349 27.8333 C 28.0878 27.8333 27.1462 26.3838 26.4442 26.3021 C 25.192 26.1563 24.5388 24.7025 23.7924 22.875 L 23.2844 23.121 L 22.4075 22.3505 L 21.4979 22.5822 Z" stroke="#ffffff00" stroke-width="1" fill="#d93600"/>
	</g>
</svg>