<?xml version="1.0" standalone="no"?>
<!-- Generator: Adobe Fireworks 10, Export SVG Extension by Aaron Beall (http://fireworks.abeall.com) . Version: 0.6.1  -->
<!DOCTYPE svg PUBLIC "-//W3C//DTD SVG 1.1//EN" "http://www.w3.org/Graphics/SVG/1.1/DTD/svg11.dtd">
<svg id="Untitled-Page%201" viewBox="0 0 33 28" style="background-color:#ffffff00" version="1.1"
	xmlns="http://www.w3.org/2000/svg" xmlns:xlink="http://www.w3.org/1999/xlink" xml:space="preserve"
	x="0px" y="0px" width="33px" height="28px"
>
	<g id="Layer%201">
		<path d="M 23.5714 19.8333 C 25.8549 21.875 28.4714 22.8679 27.4754 24.1354 C 26.4442 25.4479 28.2857 25.8125 28.8013 23.9896 C 29.4106 21.8357 26.9598 20.2708 25.3393 19.4688 C 23.7188 18.6667 21.2879 17.7917 23.5714 19.8333 Z" stroke="#ffffff00" stroke-width="1" fill="#d93600"/>
		<path d="M 25.1533 12.9401 C 26.0261 11.0388 27.2254 10.8187 28.8524 11.4717 C 30.4742 12.1227 29.2739 13.8282 31.3111 13.932 C 33.3479 14.0357 32.0221 16.086 31.2929 16.4756 C 30.5654 16.8644 25.1886 16.7608 25.1886 16.7608 C 25.1886 16.7608 24.2894 14.8221 25.1533 12.9401 Z" fill="#ff8000"/>
		<path d="M 26.26 11.1198 C 25.5971 8.9688 22.7243 7.6198 22.7243 7.6198 C 22.7243 7.6198 23.7556 9.151 23.9029 11.1198 " stroke="#ffffff00" stroke-width="1" fill="none"/>
		<path d="M 13.1718 19.4303 C 14.3384 21.451 13.3463 23.8078 13.8609 24.563 C 14.3575 25.2919 15.149 26.8637 16.398 26.8315 C 17.5972 26.8007 20.0589 25.6239 17.6639 25.5317 C 15.2584 25.4392 16.1803 24.4044 15.5257 23.6281 C 14.8464 22.8227 22.5048 21.6856 17.4282 17.5 " stroke="#ffffff00" stroke-width="1" fill="#d93600"/>
		<path id="Ellipse" d="M 27.62 13.4657 C 27.619 13.111 27.8943 12.8098 28.2348 12.7937 C 28.5755 12.7775 28.8514 13.0525 28.8512 13.4074 C 28.851 13.7616 28.5756 14.0612 28.2362 14.0772 C 27.8968 14.0933 27.6209 13.8197 27.62 13.4657 Z" stroke="#ffffff00" stroke-width="1" fill="#ffffff"/>
		<path d="M 25.0247 14.7148 C 24.8993 15.2595 22.544 15.34 20.375 15.125 C 18.1627 14.9057 14.97 14.0777 12.1275 14.9322 C 9.3057 15.7804 9.8101 15.4903 7.6227 14.8594 C 5.4314 14.2275 4.1637 10.3873 1 11.625 C 1 11.625 2.8723 16.9368 7 17.25 C 11.1351 17.5638 8.8393 16.4792 11.2701 17.5729 C 11.2701 17.5729 11.2577 17.846 11.411 20.6445 C 11.5619 23.3987 11.411 20.6445 11.411 20.6445 C 11.411 20.6445 23.5797 22.2079 25.125 19.5 C 26.8095 16.5482 26.989 16.3718 28.3128 16.14 C 28.3128 16.14 25.1505 14.1683 25.0247 14.7148 Z" stroke="#ffffff00" stroke-width="1" fill="#ff8000"/>
		<path d="M 5.7658 14.6131 C 5.7658 14.6131 4.665 10.418 1.4977 11.6916 C 1.4977 11.6916 2.762 16.4521 5.5925 16.5959 L 6.7518 15.7598 L 5.7658 14.6131 Z" stroke="#ffffff00" stroke-width="1" fill="#ffffff"/>
		<path d="M 15.0268 21.2188 C 18.1584 20.9584 24.2638 21.5557 27.375 17.25 C 27.375 17.25 26.764 16.8516 23.5 19 C 20.2848 21.1163 13.7866 19.8424 15.0268 21.2188 Z" fill="#ffffff"/>
		<path d="M 25.1652 14.2223 C 24.6239 13.848 21.9091 12.3692 22.6501 10.4682 C 22.6501 10.4682 25.8422 12.3433 26.7683 12.3799 " stroke="#ffffff00" stroke-width="1" fill="#ff8000"/>
		<path d="M 27.6285 16.6468 C 28.0842 15.2004 29.7676 15.8354 31.302 15.2081 C 32.8419 14.5785 33.293 15.3529 31.4505 15.8358 C 29.6133 16.3172 29.155 16.3387 27.6285 16.6468 Z" fill="#ffffff"/>
		<path d="M 31.5426 15.1199 C 31.6416 14.3155 32.534 14.0466 32.7673 14.9683 C 33.0007 15.8901 31.4436 15.9243 31.5426 15.1199 Z" fill="#000000"/>
		<path d="M 10.9496 19.8225 C 11.8647 21.7311 10.2479 25.0816 10.6832 25.9211 C 11.1185 26.7606 12.3379 28.1989 13.3891 27.977 C 14.3969 27.7643 16.2913 25.9553 14.3209 26.1802 C 12.3504 26.4051 12.5757 25.4022 11.9949 24.5695 C 11.414 23.7368 18.1457 20.9068 13.9194 17.5 " stroke="#ffffff00" stroke-width="1" fill="#ff8000"/>
		<path d="M 25.5603 18.2292 C 25.275 20.125 25.8958 22.0549 25.9286 22.0208 C 25.9613 21.9867 27.1281 25.6587 26.146 26.3795 C 24.5111 27.5793 24.5195 26.0713 24.9313 25.6219 C 25.1947 25.3344 25.0314 24.0515 24.6027 22.3854 C 24.3698 21.4803 23.6451 20.8542 23.5714 19.4982 " stroke="#ffffff00" stroke-width="1" fill="#ff8000"/>
		<path d="M 11.1999 21.9727 C 11.0388 23.6215 10.3874 25.3507 10.6832 25.9211 C 11.1185 26.7606 12.3379 28.1989 13.3891 27.977 C 14.3969 27.7643 16.2913 25.9553 14.3209 26.1802 C 12.3504 26.4051 12.5757 25.4022 11.9949 24.5695 C 11.7209 24.1767 13.0725 23.3379 14.135 22.2052 L 13.4533 22.351 L 12.7495 21.4249 L 11.6638 21.3436 C 11.6638 21.3436 11.4711 21.5868 11.1999 21.9727 Z" stroke="#ffffff00" stroke-width="1" fill="#d93600"/>
		<path d="M 26.0759 21.8021 C 26.5496 23.7699 27.1478 25.6442 26.146 26.3795 C 24.5111 27.5793 24.5195 26.0713 24.9313 25.6219 C 25.1745 25.3565 24.7816 24.5172 24.525 23.0306 L 25.084 22.9365 L 25.3657 22.0562 L 26.0759 21.8021 Z" stroke="#ffffff00" stroke-width="1" fill="#d93600"/>
	</g>
</svg>