<?xml version="1.0" standalone="no"?>
<!-- Generator: Adobe Fireworks 10, Export SVG Extension by Aaron Beall (http://fireworks.abeall.com) . Version: 0.6.1  -->
<!DOCTYPE svg PUBLIC "-//W3C//DTD SVG 1.1//EN" "http://www.w3.org/Graphics/SVG/1.1/DTD/svg11.dtd">
<svg id="Untitled-Page%201" viewBox="0 0 33 28" style="background-color:#ffffff00" version="1.1"
	xmlns="http://www.w3.org/2000/svg" xmlns:xlink="http://www.w3.org/1999/xlink" xml:space="preserve"
	x="0px" y="0px" width="33px" height="28px"
>
	<g id="Layer%201">
		<path d="M 25.7365 13.4613 C 27.2826 11.8998 28.5262 11.9653 29.8172 12.8694 C 31.0283 13.7175 29.4385 14.9644 31.1712 15.3497 C 32.7821 15.7079 31.1013 17.2004 30.3708 17.4432 C 29.6228 17.6918 24.4498 17.0015 24.4498 17.0015 C 24.4498 17.0015 24.1518 15.0618 25.7365 13.4613 Z" fill="#ff8000"/>
		<path d="M 26.26 11.1198 C 25.5971 8.9688 22.7243 7.6198 22.7243 7.6198 C 22.7243 7.6198 23.7556 9.151 23.9029 11.1198 " stroke="#ffffff00" stroke-width="1" fill="none"/>
		<path d="M 14.1429 18.6667 C 14.0692 20.7813 12.6151 22.7991 11.7121 23.1146 C 10.4598 23.5521 9.7645 22.7947 8.7656 23.4792 C 6.8504 24.7917 9.2813 25.0104 12.375 24.5729 C 14.5964 24.2588 14.0692 24.2813 15.7634 23.9896 C 16.7897 23.8129 20.6987 23.4792 18.2679 18.3021 " stroke="#ffffff00" stroke-width="1" fill="#d93600"/>
		<path d="M 23.5714 19.8333 C 23.3504 23.3333 22.2455 26.7604 25.3393 26.7604 C 26.9615 26.7604 26.8085 25.3498 24.6027 24.8646 C 23.9397 24.7188 24.308 22.3854 24.75 19.8333 C 25.0561 18.0656 23.7634 16.7933 23.5714 19.8333 Z" stroke="#ffffff00" stroke-width="1" fill="#d93600"/>
		<path id="Ellipse" d="M 28.0245 14.3842 C 28.1408 14.0713 28.5005 13.8549 28.8239 13.901 C 29.1433 13.9464 29.3061 14.2311 29.1914 14.5368 C 29.0769 14.8419 28.727 15.0582 28.4061 15.0199 C 28.0811 14.9812 27.9085 14.6966 28.0245 14.3842 Z" stroke="#ffffff00" stroke-width="1" fill="#ffffff"/>
		<path d="M 25.0247 14.7148 C 24.8993 15.2595 22.6728 16.4675 20.5357 15.8679 C 18.3952 15.2673 14.97 14.0777 12.1275 14.9322 C 9.3057 15.7804 8.1732 16.014 5.9175 16.3316 C 2.7991 16.7708 2.0625 18.7396 0.9576 21.2188 C 0.9576 21.2188 3.0965 22.2745 6.1138 19.4688 C 8.5446 17.2083 11.3635 16.1165 11.9823 16.09 C 11.9823 16.09 11.2577 17.846 11.411 20.6445 C 11.5619 23.3987 11.411 20.6445 11.411 20.6445 C 11.411 20.6445 24.5837 22.8736 25.75 19.75 C 26.9388 16.5661 26.989 16.3718 28.3128 16.14 C 28.3128 16.14 25.1505 14.1683 25.0247 14.7148 Z" stroke="#ffffff00" stroke-width="1" fill="#ff8000"/>
		<path d="M 15.0268 21.2188 C 18.1584 20.9584 24.5 23.375 26.9566 17.2113 C 26.9566 17.2113 26.7207 17.4287 23.4567 19.5771 C 20.2415 21.6934 13.7866 19.8424 15.0268 21.2188 Z" fill="#ffffff"/>
		<path d="M 25.3044 14.65 C 24.8579 14.206 22.314 12.2182 23.8785 10.538 C 23.8785 10.538 26.6521 13.0494 27.5629 13.2649 " stroke="#ffffff00" stroke-width="1" fill="#ff8000"/>
		<path d="M 26.982 17.1904 C 27.8956 15.9781 29.2413 16.7394 30.7697 16.3998 C 32.2218 16.0772 32.3468 16.7488 30.7014 16.9336 C 28.9496 17.1304 28.5257 17.097 26.982 17.1904 Z" fill="#ffffff"/>
		<path d="M 30.9987 16.3566 C 31.328 15.7099 32.1364 15.61 32.0452 16.3809 C 31.9548 17.1456 30.6682 17.0056 30.9987 16.3566 Z" fill="#000000"/>
		<path d="M 10.6071 17.5 C 10.5335 19.6146 9.6496 21 9.6496 21.9479 C 9.6496 22.8958 11.7857 22.5313 11.6384 21.5104 C 11.4911 20.4896 17.1629 22.3125 14.7321 17.1354 " stroke="#ffffff00" stroke-width="1" fill="#ff8000"/>
		<path d="M 21.1329 18.9705 C 19.5669 21.8607 20.1094 21.2917 20.3304 23.1146 C 20.4798 24.3475 20.4777 24.7188 22.0246 23.9167 C 22.5556 23.6413 21.6245 22.9461 23.5527 18.6667 " stroke="#ffffff00" stroke-width="1" fill="#ff8000"/>
		<path d="M 22.1895 22.3646 C 21.8105 24.8864 20.5713 27.259 19.2588 27.259 C 17.213 27.259 17.5461 25.4599 18.1205 25.3021 C 18.4648 25.2075 19.6209 24.3878 19.9621 22.6042 L 20.5987 22.9058 L 21.29 22.1289 L 22.1895 22.3646 Z" stroke="#ffffff00" stroke-width="1" fill="#d93600"/>
		<path d="M 10.1652 20.5625 C 9.161 21.8746 11.5795 22.6566 10.9754 22.8958 C 9.8705 23.3333 10.4099 23.6707 9.4875 24.4533 C 9.0705 24.2819 8.7953 24.4125 8.9719 25.0367 C 8.9719 25.0367 8.9919 25.9357 9.3549 26.1042 C 9.9912 27.58 11.2076 28.3204 11.5647 26.9063 C 11.7096 26.3328 11.2078 26.1631 10.8134 25.62 C 12.1272 23.8193 11.7121 24.1354 12.7433 23.2604 C 13.1164 22.9438 12.8906 21.8021 12.8906 21.8021 L 12.4487 21.1458 L 12.154 20.2708 C 12.154 20.2708 10.631 20.3818 10.1652 20.5625 Z" stroke="#ffffff00" stroke-width="1" fill="#d93600"/>
		<path d="M 4.567 16.9167 L 4.7143 18.6667 L 5.8929 18.6667 C 5.8929 18.6667 5.3932 20.3314 3.5357 21 C 0.2946 22.1667 1.3079 20.6864 2.0625 19.25 C 3.0201 17.4271 4.567 16.9167 4.567 16.9167 Z" stroke="#ffffff00" stroke-width="1" fill="#ffffff"/>
	</g>
</svg>