<?xml version="1.0" standalone="no"?>
<!-- Generator: Adobe Fireworks 10, Export SVG Extension by Aaron Beall (http://fireworks.abeall.com) . Version: 0.6.1  -->
<!DOCTYPE svg PUBLIC "-//W3C//DTD SVG 1.1//EN" "http://www.w3.org/Graphics/SVG/1.1/DTD/svg11.dtd">
<svg id="Untitled-Page%201" viewBox="0 0 33 28" style="background-color:#ffffff00" version="1.1"
	xmlns="http://www.w3.org/2000/svg" xmlns:xlink="http://www.w3.org/1999/xlink" xml:space="preserve"
	x="0px" y="0px" width="33px" height="28px"
>
	<g id="Layer%201">
		<path d="M 25.4081 12.3595 C 26.5325 10.7088 27.698 10.6428 29.128 11.4292 C 30.5534 12.2132 29.1513 13.6463 31.0552 13.9739 C 32.9586 14.3014 31.3835 16.0377 30.6344 16.3132 C 29.8869 16.5882 24.835 15.8805 24.835 15.8805 C 24.835 15.8805 24.2951 13.9935 25.4081 12.3595 Z" fill="#ff8000"/>
		<path d="M 26.26 11.1198 C 25.5971 8.9688 22.7243 7.6198 22.7243 7.6198 C 22.7243 7.6198 23.7556 9.151 23.9029 11.1198 " stroke="#ffffff00" stroke-width="1" fill="none"/>
		<path d="M 13.1429 18.6667 C 13.0692 20.7813 10.3316 22.0699 9.4286 22.3854 C 8.1763 22.8229 6.0078 21.5551 5.0089 22.2396 C 3.0938 23.5521 6.9978 24.2813 10.0915 23.8438 C 12.3129 23.5296 11.2277 23.5521 12.9219 23.2604 C 13.9482 23.0837 16.875 23.75 17.2679 18.3021 " stroke="#ffffff00" stroke-width="1" fill="#d93600"/>
		<path id="Ellipse" d="M 27.6498 13.1243 C 27.7052 12.7977 28.0125 12.5518 28.3361 12.5757 C 28.6597 12.5996 28.8762 12.8842 28.8197 13.2109 C 28.7633 13.5369 28.4561 13.7813 28.1336 13.7574 C 27.8111 13.7335 27.5945 13.4503 27.6498 13.1243 Z" stroke="#ffffff00" stroke-width="1" fill="#ffffff"/>
		<path d="M 25.0247 14.7148 C 24.8993 15.2595 22.3431 16.1347 20.206 15.535 C 18.0654 14.9344 14.97 14.0777 12.1275 14.9322 C 9.3057 15.7804 8.1873 18.584 5.9999 17.9532 C 3.8087 17.3213 3.4829 16.2872 0.3191 17.525 C 0.3191 17.525 1.6265 19.9021 5.7542 20.2153 C 9.8894 20.5291 11.3635 16.1165 11.9823 16.09 C 11.9823 16.09 11.2577 17.846 11.411 20.6445 C 11.5619 23.3987 11.411 20.6445 11.411 20.6445 C 11.411 20.6445 24.254 22.5407 25.4203 19.4171 C 26.6091 16.2333 26.989 16.3718 28.3128 16.14 C 28.3128 16.14 25.1505 14.1683 25.0247 14.7148 Z" stroke="#ffffff00" stroke-width="1" fill="#ff8000"/>
		<path d="M 4.8907 17.9413 C 4.8907 17.9413 3.4865 16.2513 0.3191 17.525 C 0.3191 17.525 1.8869 19.7803 4.7174 19.9241 L 5.8767 19.088 L 4.8907 17.9413 Z" stroke="#ffffff00" stroke-width="1" fill="#ffffff"/>
		<path d="M 15.0268 21.2188 C 18.1584 20.9584 23.8454 21.517 26.9566 17.2113 C 26.9566 17.2113 26.391 17.0959 23.127 19.2443 C 19.9118 21.3606 13.7866 19.8424 15.0268 21.2188 Z" fill="#ffffff"/>
		<path d="M 23.5714 19.8333 C 25.8549 21.875 27.9911 23.5521 29.6116 23.4792 C 31.2321 23.4063 32.7054 21.4375 29.9799 22.0938 C 27.7843 22.6224 26.3705 20.6354 24.75 19.8333 C 23.1295 19.0313 21.2879 17.7917 23.5714 19.8333 Z" stroke="#ffffff00" stroke-width="1" fill="#d93600"/>
		<path d="M 25.2158 13.5412 C 24.7649 13.1349 22.4405 11.4645 23.4408 9.7991 C 23.4408 9.7991 26.1521 11.8886 27.0193 12.0278 " stroke="#ffffff00" stroke-width="1" fill="#ff8000"/>
		<path d="M 27.153 16.0534 C 27.8121 14.7739 29.2981 15.5502 30.844 15.1476 C 32.3956 14.7434 32.6978 15.5076 30.8844 15.7422 C 29.0763 15.9762 28.6408 15.9437 27.153 16.0534 Z" fill="#ffffff"/>
		<path d="M 31.0848 15.0938 C 31.3058 14.3646 32.1897 14.2188 32.2634 15.0938 C 32.3371 15.9688 30.8638 15.8229 31.0848 15.0938 Z" fill="#000000"/>
		<path d="M 10.6071 18.6667 C 10.5335 20.7813 7.2188 22.75 7.2188 23.6979 C 7.2188 24.6458 9.3549 24.2813 9.2076 23.2604 C 9.0603 22.2396 17.1629 23.4792 14.7321 18.3021 " stroke="#ffffff00" stroke-width="1" fill="#ff8000"/>
		<path d="M 21.1329 18.9705 C 19.5669 21.8607 21.5876 28 23.6334 28 C 25.6792 28 25.1367 26.5425 24.5623 26.3846 C 23.9847 26.2259 21.6245 22.9461 23.5527 18.6667 " stroke="#ffffff00" stroke-width="1" fill="#ff8000"/>
		<path d="M 9.7527 20.6267 C 8.7485 21.9388 7.4397 22.2518 7.4397 22.8958 C 7.4397 23.8438 6.1523 24.3007 5.2299 25.0833 C 3.683 26.3958 5.5982 27.5625 6.5558 26.25 C 7.8696 24.4493 9.3549 24.2813 9.2076 23.2604 C 9.1381 22.7789 10.9036 22.7981 12.5341 22.4117 L 11.7857 22.1667 L 11.5647 21 L 10.5335 20.3438 C 10.5335 20.3438 10.2185 20.4459 9.7527 20.6267 Z" stroke="#ffffff00" stroke-width="1" fill="#d93600"/>
		<path d="M 20.7027 23.1057 C 21.0817 25.6275 22.3209 28 23.6334 28 C 25.6792 28 25.1367 26.5425 24.5623 26.3846 C 24.2181 26.29 23.2713 25.1289 22.9302 23.3452 L 22.2935 23.6469 L 21.6023 22.8699 L 20.7027 23.1057 Z" stroke="#ffffff00" stroke-width="1" fill="#d93600"/>
	</g>
</svg>