<?xml version="1.0" standalone="no"?>
<!-- Generator: Adobe Fireworks 10, Export SVG Extension by Aaron Beall (http://fireworks.abeall.com) . Version: 0.6.1  -->
<!DOCTYPE svg PUBLIC "-//W3C//DTD SVG 1.1//EN" "http://www.w3.org/Graphics/SVG/1.1/DTD/svg11.dtd">
<svg id="Untitled-Page%201" viewBox="0 0 33 28" style="background-color:#ffffff00" version="1.1"
	xmlns="http://www.w3.org/2000/svg" xmlns:xlink="http://www.w3.org/1999/xlink" xml:space="preserve"
	x="0px" y="0px" width="33px" height="28px"
>
	<g id="Layer%201">
		<path d="M 25.1128 13.3457 C 25.4608 11.4032 26.4663 10.922 28.0828 11.1921 C 29.7619 11.4726 28.9103 13.408 30.9023 13.1091 C 33.0307 12.7898 31.9595 15.0903 31.2929 15.5812 C 30.6483 16.0559 25.8883 16.6938 25.8883 16.6938 C 25.8883 16.6938 24.7886 15.1556 25.1128 13.3457 Z" fill="#ff8000"/>
		<path d="M 26.26 11.1198 C 25.5971 8.9688 22.7243 7.6198 22.7243 7.6198 C 22.7243 7.6198 23.7556 9.151 23.9029 11.1198 " stroke="#ffffff00" stroke-width="1" fill="none"/>
		<path d="M 14.1429 18.6667 C 14.0692 20.7813 11.933 22.75 11.933 23.6979 C 11.933 24.6458 12.4011 25.3593 13.5536 25.7396 C 14.6585 26.1042 17.4576 25.5938 15.3951 24.7188 C 13.3326 23.8438 14.0692 24.2813 13.9219 23.2604 C 13.7746 22.2396 20.6987 23.4792 18.2679 18.3021 " stroke="#ffffff00" stroke-width="1" fill="#d93600"/>
		<path id="Ellipse" d="M 27.3327 13.3765 C 27.2647 13.0428 27.4546 12.7028 27.7604 12.6188 C 28.0698 12.5339 28.376 12.7437 28.4406 13.0856 C 28.5047 13.4247 28.3056 13.7602 27.9996 13.837 C 27.6971 13.9128 27.4001 13.7074 27.3327 13.3765 Z" stroke="#ffffff00" stroke-width="1" fill="#ffffff"/>
		<path d="M 25.0247 14.7148 C 24.8993 15.2595 22.3431 16.1347 20.206 15.535 C 18.0654 14.9344 14.97 14.0777 12.1275 14.9322 C 9.3057 15.7804 8.1873 18.584 5.9999 17.9532 C 3.8087 17.3213 3.4829 16.2872 0.3191 17.525 C 0.3191 17.525 1.6265 19.9021 5.7542 20.2153 C 9.8894 20.5291 11.3635 16.1165 11.9823 16.09 C 11.9823 16.09 11.2577 17.846 11.411 20.6445 C 11.5619 23.3987 11.411 20.6445 11.411 20.6445 C 11.411 20.6445 24.254 22.5407 25.4203 19.4171 C 26.6091 16.2333 26.989 16.3718 28.3128 16.14 C 28.3128 16.14 25.1505 14.1683 25.0247 14.7148 Z" stroke="#ffffff00" stroke-width="1" fill="#ff8000"/>
		<path d="M 4.8907 17.9413 C 4.8907 17.9413 3.4865 16.2513 0.3191 17.525 C 0.3191 17.525 1.8869 19.7803 4.7174 19.9241 L 5.8767 19.088 L 4.8907 17.9413 Z" stroke="#ffffff00" stroke-width="1" fill="#ffffff"/>
		<path d="M 15.0268 21.2188 C 18.1584 20.9584 23.8454 21.517 26.9566 17.2113 C 26.9566 17.2113 26.391 17.0959 23.127 19.2443 C 19.9118 21.3606 13.7866 19.8424 15.0268 21.2188 Z" fill="#ffffff"/>
		<path d="M 23.5714 19.8333 C 25.8549 21.875 27.8438 25.7396 29.4643 25.6667 C 31.0848 25.5938 31.6004 25.2292 29.4643 24.5 C 27.3281 23.7708 26.3705 20.6354 24.75 19.8333 C 23.1295 19.0313 21.2879 17.7917 23.5714 19.8333 Z" stroke="#ffffff00" stroke-width="1" fill="#d93600"/>
		<path d="M 25.3788 14.4941 C 24.8626 14.2508 22.4344 13.4128 22.5845 11.5854 C 22.5845 11.5854 25.5691 12.6685 26.3727 12.52 " stroke="#ffffff00" stroke-width="1" fill="#ff8000"/>
		<path d="M 27.923 16.2749 C 28.0669 14.9041 29.7217 15.2209 31.1007 14.3647 C 32.5749 13.4493 33.1658 14.142 31.3481 14.9451 C 29.6584 15.6917 29.2377 15.78 27.923 16.2749 Z" fill="#ffffff"/>
		<path d="M 31.3264 14.2354 C 31.2972 13.4244 32.1711 12.9732 32.5556 13.8563 C 32.9362 14.7304 31.3551 15.0313 31.3264 14.2354 Z" fill="#000000"/>
		<path d="M 10.6071 18.6667 C 10.5335 20.7813 7.2188 22.75 7.2188 23.6979 C 7.2188 24.6458 7.6868 26.526 8.8393 26.9063 C 9.9442 27.2708 12.7433 26.7604 10.6808 25.8854 C 8.6183 25.0104 9.3549 24.2813 9.2076 23.2604 C 9.0603 22.2396 17.1629 23.4792 14.7321 18.3021 " stroke="#ffffff00" stroke-width="1" fill="#ff8000"/>
		<path d="M 21.7299 18.8854 C 21.2879 21.0729 25.7813 26.4688 27.9174 26.4688 C 30.0536 26.4688 28.7277 25.0833 28.0647 24.9375 C 27.4018 24.7917 23.6451 21.9479 23.7924 18.6667 " stroke="#ffffff00" stroke-width="1" fill="#ff8000"/>
		<path d="M 9.7527 20.6267 C 8.7485 21.9388 7.2188 23.0539 7.2188 23.6979 C 7.2188 24.6458 7.6868 26.526 8.8393 26.9063 C 9.9442 27.2708 12.7433 26.7604 10.6808 25.8854 C 8.6183 25.0104 9.3549 24.2813 9.2076 23.2604 C 9.1381 22.7789 10.9036 22.7981 12.5341 22.4117 L 11.7857 22.1667 L 11.5647 21 L 10.5335 20.3438 C 10.5335 20.3438 10.2185 20.4459 9.7527 20.6267 Z" stroke="#ffffff00" stroke-width="1" fill="#d93600"/>
		<path d="M 22.823 22.0792 C 24.2082 24.249 26.5469 26.4688 27.9174 26.4688 C 30.0536 26.4688 28.7277 25.0833 28.0647 24.9375 C 27.6692 24.8505 26.1742 23.8052 25.0623 22.2775 L 24.573 22.5295 L 23.5938 21.8855 L 22.823 22.0792 Z" stroke="#ffffff00" stroke-width="1" fill="#d93600"/>
	</g>
</svg>