<?xml version="1.0" standalone="no"?>
<!-- Generator: Adobe Fireworks 10, Export SVG Extension by Aaron Beall (http://fireworks.abeall.com) . Version: 0.6.1  -->
<!DOCTYPE svg PUBLIC "-//W3C//DTD SVG 1.1//EN" "http://www.w3.org/Graphics/SVG/1.1/DTD/svg11.dtd">
<svg id="smokes.fw-Page%201" viewBox="0 0 20 18" style="background-color:#ffffff00" version="1.1"
	xmlns="http://www.w3.org/2000/svg" xmlns:xlink="http://www.w3.org/1999/xlink" xml:space="preserve"
	x="0px" y="0px" width="20px" height="18px"
>
	<g id="Layer%201">
		<path d="M 13.3047 17.0809 C 18.6645 16.7132 19.5683 10.9737 18.7249 5.2366 C 17.8531 -0.6936 12.7468 3.0802 12.7468 3.0802 C 12.7468 3.0802 8.3877 -2.0414 3.7796 0.9237 C -0.8285 3.8888 1.7869 8.4713 1.7869 8.4713 C 1.7869 8.4713 -2.1985 13.8624 4.776 17.0971 C 7.4862 18.354 9.4824 18.1685 10.9533 17.3343 C 11.6635 17.3415 12.4809 17.2806 13.3047 17.0809 Z" fill="#ffffff"/>
		<path d="M 8.7614 13.8624 C 4.6514 12.3798 6.1459 6.4496 9.7577 6.3148 C 13.3695 6.1801 15.4867 9.4147 14.7395 11.706 C 13.9922 13.9972 11.7504 20.3317 4.776 17.0971 C -2.1985 13.8624 1.7869 8.4713 1.7869 8.4713 C 1.7869 8.4713 -0.8285 3.8888 3.7796 0.9237 C 8.3877 -2.0414 12.7468 3.0802 12.7468 3.0802 C 12.7468 3.0802 17.8531 -0.6936 18.7249 5.2366 C 19.5967 11.1668 18.6003 17.0971 12.7468 17.0971 C 12.7468 17.0971 15.4867 16.6927 16.7322 13.8624 C 17.9776 11.0321 17.2303 7.3931 16.7322 5.2366 C 16.234 3.0802 13.8677 3.7541 12.7468 5.2366 C 12.7468 5.2366 9.0104 -0.424 4.776 2.002 C 0.5415 4.428 3.7796 8.4713 3.7796 8.4713 C 3.7796 8.4713 0.1678 12.2451 3.7796 14.9406 C 7.3914 17.6362 10.8786 16.5579 12.7468 12.7842 C 14.6149 9.0104 12.124 8.2017 9.7577 8.4713 C 7.3914 8.7408 7.765 11.1668 8.7614 13.8624 Z" fill="#ffff00"/>
	</g>
</svg>