<?xml version="1.0" standalone="no"?>
<!-- Generator: Adobe Fireworks 10, Export SVG Extension by Aaron Beall (http://fireworks.abeall.com) . Version: 0.6.1  -->
<!DOCTYPE svg PUBLIC "-//W3C//DTD SVG 1.1//EN" "http://www.w3.org/Graphics/SVG/1.1/DTD/svg11.dtd">
<svg id="smokes.fw-Page%201" viewBox="0 0 20 18" style="background-color:#ffffff00" version="1.1"
	xmlns="http://www.w3.org/2000/svg" xmlns:xlink="http://www.w3.org/1999/xlink" xml:space="preserve"
	x="0px" y="0px" width="20px" height="18px"
>
	<g id="Layer%201">
		<path d="M 13.3741 17.0809 C 18.7338 16.7132 19.6376 10.9737 18.7942 5.2366 C 17.9224 -0.6936 12.8161 3.0802 12.8161 3.0802 C 12.8161 3.0802 8.4571 -2.0414 3.849 0.9237 C -0.7592 3.8888 1.8563 8.4713 1.8563 8.4713 C 1.8563 8.4713 -2.1292 13.8624 4.8453 17.0971 C 7.5556 18.354 9.5517 18.1685 11.0227 17.3343 C 11.7328 17.3415 12.5502 17.2806 13.3741 17.0809 Z" fill="#ffff00"/>
		<path d="M 8.8307 13.8624 C 4.7208 12.3798 6.2153 6.4496 9.8271 6.3148 C 13.4388 6.1801 15.5561 9.4147 14.8088 11.706 C 14.0615 13.9972 11.8198 20.3317 4.8453 17.0971 C -2.1292 13.8624 1.8563 8.4713 1.8563 8.4713 C 1.8563 8.4713 -0.7592 3.8888 3.849 0.9237 C 8.4571 -2.0414 12.8161 3.0802 12.8161 3.0802 C 12.8161 3.0802 17.9224 -0.6936 18.7942 5.2366 C 19.666 11.1668 18.6697 17.0971 12.8161 17.0971 C 12.8161 17.0971 15.5561 16.6927 16.8015 13.8624 C 18.0469 11.0321 17.2997 7.3931 16.8015 5.2366 C 16.3033 3.0802 13.937 3.7541 12.8161 5.2366 C 12.8161 5.2366 9.0798 -0.424 4.8453 2.002 C 0.6108 4.428 3.849 8.4713 3.849 8.4713 C 3.849 8.4713 0.2372 12.2451 3.849 14.9406 C 7.4607 17.6362 10.948 16.5579 12.8161 12.7842 C 14.6843 9.0104 12.1934 8.2017 9.8271 8.4713 C 7.4607 8.7408 7.8344 11.1668 8.8307 13.8624 Z" fill="#ff8000"/>
	</g>
</svg>