<?xml version="1.0" standalone="no"?>
<!-- Generator: Adobe Fireworks 10, Export SVG Extension by Aaron Beall (http://fireworks.abeall.com) . Version: 0.6.1  -->
<!DOCTYPE svg PUBLIC "-//W3C//DTD SVG 1.1//EN" "http://www.w3.org/Graphics/SVG/1.1/DTD/svg11.dtd">
<svg id="smokes.fw-Page%201" viewBox="0 0 20 18" style="background-color:#ffffff00" version="1.1"
	xmlns="http://www.w3.org/2000/svg" xmlns:xlink="http://www.w3.org/1999/xlink" xml:space="preserve"
	x="0px" y="0px" width="20px" height="18px"
>
	<g id="Layer%201">
		<path d="M 13.4434 17.0809 C 18.8032 16.7132 19.707 10.9737 18.8635 5.2366 C 17.9917 -0.6936 12.8855 3.0802 12.8855 3.0802 C 12.8855 3.0802 8.5264 -2.0414 3.9183 0.9237 C -0.6898 3.8888 1.9256 8.4713 1.9256 8.4713 C 1.9256 8.4713 -2.0598 13.8624 4.9146 17.0971 C 7.6249 18.354 9.6211 18.1685 11.092 17.3343 C 11.8022 17.3415 12.6196 17.2806 13.4434 17.0809 Z" fill="#ff4000"/>
		<path d="M 8.9 13.8624 C 4.7901 12.3798 6.2846 6.4496 9.8964 6.3148 C 13.5082 6.1801 15.6254 9.4147 14.8782 11.706 C 14.1309 13.9972 11.8891 20.3317 4.9146 17.0971 C -2.0598 13.8624 1.9256 8.4713 1.9256 8.4713 C 1.9256 8.4713 -0.6898 3.8888 3.9183 0.9237 C 8.5264 -2.0414 12.8855 3.0802 12.8855 3.0802 C 12.8855 3.0802 17.9917 -0.6936 18.8635 5.2366 C 19.7354 11.1668 18.739 17.0971 12.8855 17.0971 C 12.8855 17.0971 15.6254 16.6927 16.8708 13.8624 C 18.1163 11.0321 17.369 7.3931 16.8708 5.2366 C 16.3727 3.0802 14.0063 3.7541 12.8855 5.2366 C 12.8855 5.2366 9.1491 -0.424 4.9146 2.002 C 0.6802 4.428 3.9183 8.4713 3.9183 8.4713 C 3.9183 8.4713 0.3065 12.2451 3.9183 14.9406 C 7.5301 17.6362 11.0173 16.5579 12.8855 12.7842 C 14.7536 9.0104 12.2627 8.2017 9.8964 8.4713 C 7.5301 8.7408 7.9037 11.1668 8.9 13.8624 Z" fill="#8c2300"/>
	</g>
</svg>