<?xml version="1.0" standalone="no"?>
<!-- Generator: Adobe Fireworks 10, Export SVG Extension by Aaron Beall (http://fireworks.abeall.com) . Version: 0.6.1  -->
<!DOCTYPE svg PUBLIC "-//W3C//DTD SVG 1.1//EN" "http://www.w3.org/Graphics/SVG/1.1/DTD/svg11.dtd">
<svg id="smokes.fw-Page%201" viewBox="0 0 20 18" style="background-color:#ffffff00" version="1.1"
	xmlns="http://www.w3.org/2000/svg" xmlns:xlink="http://www.w3.org/1999/xlink" xml:space="preserve"
	x="0px" y="0px" width="20px" height="18px"
>
	<g id="Layer%201">
		<path d="M 13.5127 17.0809 C 18.8725 16.7132 19.7763 10.9737 18.9329 5.2366 C 18.0611 -0.6936 12.9548 3.0802 12.9548 3.0802 C 12.9548 3.0802 8.5958 -2.0414 3.9876 0.9237 C -0.6205 3.8888 1.9949 8.4713 1.9949 8.4713 C 1.9949 8.4713 -1.9905 13.8624 4.984 17.0971 C 7.6942 18.354 9.6904 18.1685 11.1614 17.3343 C 11.8715 17.3415 12.6889 17.2806 13.5127 17.0809 Z" fill="#ff0000"/>
		<path d="M 8.9694 13.8624 C 4.8594 12.3798 6.354 6.4496 9.9657 6.3148 C 13.5775 6.1801 15.6948 9.4147 14.9475 11.706 C 14.2002 13.9972 11.9584 20.3317 4.984 17.0971 C -1.9905 13.8624 1.9949 8.4713 1.9949 8.4713 C 1.9949 8.4713 -0.6205 3.8888 3.9876 0.9237 C 8.5958 -2.0414 12.9548 3.0802 12.9548 3.0802 C 12.9548 3.0802 18.0611 -0.6936 18.9329 5.2366 C 19.8047 11.1668 18.8083 17.0971 12.9548 17.0971 C 12.9548 17.0971 15.6948 16.6927 16.9402 13.8624 C 18.1856 11.0321 17.4384 7.3931 16.9402 5.2366 C 16.442 3.0802 14.0757 3.7541 12.9548 5.2366 C 12.9548 5.2366 9.2185 -0.424 4.984 2.002 C 0.7495 4.428 3.9876 8.4713 3.9876 8.4713 C 3.9876 8.4713 0.3759 12.2451 3.9876 14.9406 C 7.5994 17.6362 11.0866 16.5579 12.9548 12.7842 C 14.8229 9.0104 12.3321 8.2017 9.9657 8.4713 C 7.5994 8.7408 7.973 11.1668 8.9694 13.8624 Z" fill="#660000"/>
	</g>
</svg>