<?xml version="1.0" standalone="no"?>
<!-- Generator: Adobe Fireworks 10, Export SVG Extension by Aaron Beall (http://fireworks.abeall.com) . Version: 0.6.1  -->
<!DOCTYPE svg PUBLIC "-//W3C//DTD SVG 1.1//EN" "http://www.w3.org/Graphics/SVG/1.1/DTD/svg11.dtd">
<svg id="smokes.fw-Page%201" viewBox="0 0 20 18" style="background-color:#ffffff00" version="1.1"
	xmlns="http://www.w3.org/2000/svg" xmlns:xlink="http://www.w3.org/1999/xlink" xml:space="preserve"
	x="0px" y="0px" width="20px" height="18px"
>
	<g id="Layer%201">
		<path d="M 13.5821 17.0809 C 18.9419 16.7132 19.8456 10.9737 19.0022 5.2366 C 18.1304 -0.6936 13.0241 3.0802 13.0241 3.0802 C 13.0241 3.0802 8.6651 -2.0414 4.057 0.9237 C -0.5511 3.8888 2.0643 8.4713 2.0643 8.4713 C 2.0643 8.4713 -1.9211 13.8624 5.0533 17.0971 C 7.7636 18.354 9.7598 18.1685 11.2307 17.3343 C 11.9408 17.3415 12.7583 17.2806 13.5821 17.0809 Z" fill="#8e3937"/>
		<path d="M 9.0387 13.8624 C 4.9288 12.3798 6.4233 6.4496 10.0351 6.3148 C 13.6469 6.1801 15.7641 9.4147 15.0168 11.706 C 14.2696 13.9972 12.0278 20.3317 5.0533 17.0971 C -1.9211 13.8624 2.0643 8.4713 2.0643 8.4713 C 2.0643 8.4713 -0.5511 3.8888 4.057 0.9237 C 8.6651 -2.0414 13.0241 3.0802 13.0241 3.0802 C 13.0241 3.0802 18.1304 -0.6936 19.0022 5.2366 C 19.874 11.1668 18.8777 17.0971 13.0241 17.0971 C 13.0241 17.0971 15.7641 16.6927 17.0095 13.8624 C 18.255 11.0321 17.5077 7.3931 17.0095 5.2366 C 16.5114 3.0802 14.145 3.7541 13.0241 5.2366 C 13.0241 5.2366 9.2878 -0.424 5.0533 2.002 C 0.8188 4.428 4.057 8.4713 4.057 8.4713 C 4.057 8.4713 0.4452 12.2451 4.057 14.9406 C 7.6687 17.6362 11.156 16.5579 13.0241 12.7842 C 14.8923 9.0104 12.4014 8.2017 10.0351 8.4713 C 7.6687 8.7408 8.0424 11.1668 9.0387 13.8624 Z" fill="#222222"/>
	</g>
</svg>