<?xml version="1.0" standalone="no"?>
<!-- Generator: Adobe Fireworks 10, Export SVG Extension by Aaron Beall (http://fireworks.abeall.com) . Version: 0.6.1  -->
<!DOCTYPE svg PUBLIC "-//W3C//DTD SVG 1.1//EN" "http://www.w3.org/Graphics/SVG/1.1/DTD/svg11.dtd">
<svg id="smokes.fw-Page%201" viewBox="0 0 20 18" style="background-color:#ffffff00" version="1.1"
	xmlns="http://www.w3.org/2000/svg" xmlns:xlink="http://www.w3.org/1999/xlink" xml:space="preserve"
	x="0px" y="0px" width="20px" height="18px"
>
	<g id="Layer%201">
		<path d="M 13.6514 17.0809 C 19.0112 16.7132 19.915 10.9737 19.0716 5.2366 C 18.1998 -0.6936 13.0935 3.0802 13.0935 3.0802 C 13.0935 3.0802 8.7345 -2.0414 4.1263 0.9237 C -0.4818 3.8888 2.1336 8.4713 2.1336 8.4713 C 2.1336 8.4713 -1.8518 13.8624 5.1227 17.0971 C 7.8329 18.354 9.8291 18.1685 11.3 17.3343 C 12.0102 17.3415 12.8276 17.2806 13.6514 17.0809 Z" fill="#000000"/>
		<path d="M 9.1081 13.8624 C 4.9981 12.3798 6.4927 6.4496 10.1044 6.3148 C 13.7162 6.1801 15.8334 9.4147 15.0862 11.706 C 14.3389 13.9972 12.0971 20.3317 5.1227 17.0971 C -1.8518 13.8624 2.1336 8.4713 2.1336 8.4713 C 2.1336 8.4713 -0.4818 3.8888 4.1263 0.9237 C 8.7345 -2.0414 13.0935 3.0802 13.0935 3.0802 C 13.0935 3.0802 18.1998 -0.6936 19.0716 5.2366 C 19.9434 11.1668 18.947 17.0971 13.0935 17.0971 C 13.0935 17.0971 15.8334 16.6927 17.0789 13.8624 C 18.3243 11.0321 17.5771 7.3931 17.0789 5.2366 C 16.5807 3.0802 14.2144 3.7541 13.0935 5.2366 C 13.0935 5.2366 9.3572 -0.424 5.1227 2.002 C 0.8882 4.428 4.1263 8.4713 4.1263 8.4713 C 4.1263 8.4713 0.5146 12.2451 4.1263 14.9406 C 7.7381 17.6362 11.2253 16.5579 13.0935 12.7842 C 14.9616 9.0104 12.4708 8.2017 10.1044 8.4713 C 7.7381 8.7408 8.1117 11.1668 9.1081 13.8624 Z" fill="#444444"/>
	</g>
</svg>